<?xml version="1.0" encoding="UTF-8"?>
<svg width="50px" height="50px" viewBox="0 0 50 50" version="1.1" xmlns="http://www.w3.org/2000/svg" xmlns:xlink="http://www.w3.org/1999/xlink">
    <title>Group 3</title>
    <g id="Page-1" stroke="none" stroke-width="1" fill="none" fill-rule="evenodd">
        <g id="Group-3">
            <g id="Group-2" fill="#EDF1FF" fill-rule="nonzero">
                <g id="icon">
                    <rect id="Rectangle" x="0" y="0" width="50" height="50" rx="5"></rect>
                </g>
            </g>
            <g id="Group-5" transform="translate(14.000000, 13.000000)">
                <path d="M21.771688,23.9427416 L17.1624012,23.9427416 L17.1624012,19.3209546 L21.771688,19.3209546 L21.771688,23.9427416 Z M5.66335239,23.9427416 L1.05439894,23.9427416 L1.05439894,19.3209546 L5.66335239,19.3209546 L5.66335239,23.9427416 Z M7.01143627,1.05725841 L15.8146507,1.05725841 L15.8146507,9.88417956 L7.01143627,9.88417956 L7.01143627,1.05725841 Z M22.2988875,18.2636962 L19.9942441,18.2636962 L19.9942441,14.7518134 C19.9942441,14.4595046 19.7582294,14.2231841 19.4670446,14.2231841 L11.9402429,14.2231841 L11.9402429,10.941438 L16.3418502,10.941438 C16.6328683,10.941438 16.868883,10.7049504 16.868883,10.4128088 L16.868883,0.528629207 C16.868883,0.236487616 16.6328683,0 16.3418502,0 L6.4842368,0 C6.19305201,0 5.95703733,0.236487616 5.95703733,0.528629207 L5.95703733,10.4128088 C5.95703733,10.7049504 6.19305201,10.941438 6.4842368,10.941438 L10.885844,10.941438 L10.885844,14.2231841 L3.35870899,14.2231841 C3.0675242,14.2231841 2.83150952,14.4595046 2.83150952,14.7518134 L2.83150952,18.2636962 L0.52719947,18.2636962 C0.236014685,18.2636962 0,18.5000167 0,18.7923254 L0,24.4713708 C0,24.7635124 0.236014685,25 0.52719947,25 L6.19055186,25 C6.48173664,25 6.71775133,24.7635124 6.71775133,24.4713708 L6.71775133,18.7923254 C6.71775133,18.5000167 6.48173664,18.2636962 6.19055186,18.2636962 L3.88590846,18.2636962 L3.88590846,15.2804426 L18.9398451,15.2804426 L18.9398451,18.2636962 L16.6352017,18.2636962 C16.344017,18.2636962 16.1080023,18.5000167 16.1080023,18.7923254 L16.1080023,24.4713708 C16.1080023,24.7635124 16.344017,25 16.6352017,25 L22.2988875,25 C22.5900723,25 22.826087,24.7635124 22.826087,24.4713708 L22.826087,18.7923254 C22.826087,18.5000167 22.5900723,18.2636962 22.2988875,18.2636962 Z" id="Fill-1" stroke="#25356E" stroke-width="0.543478261" fill="#25356E"></path>
                <path d="M9.15405797,4.17753623 L12.5786957,4.17753623 C12.8317391,4.17753623 13.0369565,3.9726087 13.0369565,3.71913043 C13.0369565,3.46594203 12.8317391,3.26086957 12.5786957,3.26086957 L9.15405797,3.26086957 C8.90086957,3.26086957 8.69565217,3.46594203 8.69565217,3.71913043 C8.69565217,3.9726087 8.90086957,4.17753623 9.15405797,4.17753623 Z" id="Fill-2" fill="#6473A7"></path>
                <path d="M14.4710141,5.62144928 C14.4710141,5.36811594 14.2983021,5.16304348 14.0852175,5.16304348 L9.08144879,5.16304348 C8.86836416,5.16304348 8.69565217,5.36811594 8.69565217,5.62144928 C8.69565217,5.87478261 8.86836416,6.07985507 9.08144879,6.07985507 L14.0852175,6.07985507 C14.2983021,6.07985507 14.4710141,5.87478261 14.4710141,5.62144928 Z" id="Fill-3" fill="#6473A7"></path>
                <path d="M13.0369565,7.52362319 C13.0369565,7.27028986 12.8317391,7.06521739 12.5786957,7.06521739 L9.15405797,7.06521739 C8.90086957,7.06521739 8.69565217,7.27028986 8.69565217,7.52362319 C8.69565217,7.77695652 8.90086957,7.98202899 9.15405797,7.98202899 L12.5786957,7.98202899 C12.8317391,7.98202899 13.0369565,7.77695652 13.0369565,7.52362319 Z" id="Fill-4" fill="#6473A7"></path>
            </g>
        </g>
    </g>
</svg>