<svg height="50" viewBox="0 0 50 50" width="50" xmlns="http://www.w3.org/2000/svg"><g fill="none" fill-rule="evenodd"><rect fill="#e0ebff" fill-rule="nonzero" height="50" rx="6" width="50"/><g fill="#0755db" transform="translate(14 14)"><path d="m20.5060336 15.7213109c0 .3771429-.3067059.683479-.6836639.683479h-17.77174785c-.37677311 0-.68347899-.3063361-.68347899-.683479v-13.67068905c0-.37714286.30670588-.68347899.68347899-.68347899h17.77174785c.376958 0 .6836639.30633613.6836639.68347899zm-8.2024874 4.7847227h-2.73410082v-2.7341008h2.73410082zm7.5188235-20.5060336h-17.77174785c-1.13087395 0-2.05062185.91993277-2.05062185 2.05062185v13.67068905c0 1.1306891.9197479 2.0506219 2.05062185 2.0506219h6.15168067v2.7341008h-2.05043697c-.37751261 0-.68366387.3055967-.68366387.683479 0 .3778824.30615126.6836639.68366387.6836639h9.56944535c.3773278 0 .683479-.3057815.683479-.6836639 0-.3778823-.3061512-.683479-.683479-.683479h-2.0506218v-2.7341008h6.1516806c1.130874 0 2.0506219-.9199328 2.0506219-2.0506219v-13.67068905c0-1.13068908-.9197479-2.05062185-2.0506219-2.05062185z"/><path d="m16.6323697 13.3863529-2.7063697-2.7067395c-.266958-.2669579-.6997479-.2669579-.966521 0l-.6559328.6561177v-3.1347227h3.1339832l-.6553781.65556303c-.266958.26695798-.266958.6997479 0 .96652101l2.7065546 2.70673946zm-.4002521-4.04652097 1.3394118-1.33885714c.4305714-.43057143.1231261-1.16692437-.4832605-1.16692437h-5.4682017c-.3775126 0-.683479.30578151-.683479.68347899v5.46820169c0 .6050924.7346891.9138319 1.1667395.4834454l1.3394118-1.3397815 2.7063697 2.7067395c.266958.2669579.6997479.2669579.9665211 0l1.823042-1.8228572c.266958-.2671428.266958-.699563 0-.9667059z" opacity=".401553"/></g></g></svg>