<svg height="50" viewBox="0 0 50 50" width="50" xmlns="http://www.w3.org/2000/svg"><g fill="none" fill-rule="evenodd"><rect fill="#fdf0d5" fill-rule="nonzero" height="50" rx="5" width="50"/><g transform="translate(12 13)"><g fill-rule="nonzero"><path d="m20.4287175 22.4414818h-15.71436537v-10.9089951h15.71436537zm4.4839898-15.35609348c-.3068664-.30432728-.804143-.30432728-1.1110094 0l-2.9126808 2.88858017h-16.6351771l-2.91246826-2.88858017c-.30707893-.30432728-.80435552-.30432728-1.11122193 0-.30686641.30453803-.30686641.79748923 0 1.10202727l2.91268078 2.88836941v12.1448505c0 .4307791.35191881.7793645.78565451.7793645h17.2858869c.4339482 0 .7856545-.3485854.7856545-.7793645v-12.1448505l2.9126808-2.88836941c.3068664-.30453804.3068664-.79748924 0-1.10202727z" fill="#f69a17" stroke="#f69a17" stroke-width=".571429"/><path d="m8.28578673 1.45462414h8.57128367v4.3636757h-8.57128367zm-.71422534 5.81810313h9.99992751c.3944951 0 .7142254-.32534798.7142254-.72721371v-5.81810314c0-.40206244-.3197303-.72741042-.7142254-.72741042h-9.99992751c-.39449503 0-.71441853.32534798-.71441853.72741042v5.81810314c0 .40186573.3199235.72721371.71441853.72721371z" fill="#ffb64d"/></g><path d="m15.9047619 14.1142857h-6.66666666m0 0v2.7428572m0 0h6.66666666m0 0v2.7428571m0 0h-6.66666666" stroke="#f69a17" stroke-linecap="round" stroke-linejoin="round" stroke-width="1.333333"/></g></g></svg>