<svg height="50" viewBox="0 0 50 50" width="50" xmlns="http://www.w3.org/2000/svg"><g fill="none" fill-rule="evenodd"><g fill-rule="nonzero"><rect fill="#eff0ff" height="50" rx="5" width="50"/><g fill="#9097fd" transform="translate(15 14)"><path d="m10.2511449 1.28169639c.7067963 0 1.2816965.57507356 1.2816965 1.28169648 0 .70644955-.5749002 1.2815231-1.2816965 1.2815231-.70679616 0-1.28169635-.57507355-1.28169635-1.2815231 0-.70662292.57490019-1.28169648 1.28169635-1.28169648zm0 3.84491598c1.4134192 0 2.5632196-1.14962708 2.5632196-2.5632195 0-1.41376579-1.1498004-2.56339287-2.5632196-2.56339287-1.41324572 0-2.56321945 1.14962708-2.56321945 2.56339287 0 1.41359242 1.14997373 2.5632195 2.56321945 2.5632195z"/><path d="m19.2244065 12.1779359h-3.844916v-.6407615c0-.9865336-.3027888-1.94637611-.8217069-2.74971114.4776681-.68305152 1.2550053-1.09520487 2.1034034-1.09520487 1.4250315 0 2.5632195 1.14824053 2.5632195 2.56321961zm-5.1264391 1.2816964h-7.68983193v-1.9224579c0-2.05816708 1.6583194-3.84491601 3.84491593-3.84491601 2.1727312 0 3.844916 1.77253674 3.844916 3.84491601zm-12.81627101-1.2816964v-1.9224579c0-1.41359253 1.14980045-2.56321961 2.56321958-2.56321961.81598737 0 1.60771011.3833824 2.10271011 1.09815127-.52238447.81512084-.82101371 1.76837704-.82101371 2.74676474v.6407615zm15.37949061-5.76720061c-1.151187 0-2.2096481.51146534-2.9318698 1.36627626-.9499632-.87942229-2.1744642-1.36627626-3.4762658-1.36627626-1.31618687 0-2.54190122.49621326-3.47678561 1.36956932-.77404413-.91893908-1.83475847-1.36956932-2.93134982-1.36956932-2.12021534 0-3.84491597 1.72470063-3.84491597 3.84474271v2.5633928c0 .3540914.28701679.6407615.64093484.6407615h4.48567753v.6407616c0 .3542647.2868435.6407616.64076155.6407616h8.97135508c.353918 0 .6407615-.2864969.6407615-.6407616v-.6407616h4.4856776c.353918 0 .6409349-.2866701.6409349-.6407615v-2.5633928c0-2.12402845-1.7144748-3.84474271-3.844916-3.84474271z"/><path d="m16.6592805 1.28169639c.7067962 0 1.2815231.57507356 1.2815231 1.28169648 0 .70644955-.5747269 1.2815231-1.2815231 1.2815231-.7067963 0-1.2816965-.57507355-1.2816965-1.2815231 0-.70662292.5749002-1.28169648 1.2816965-1.28169648zm0 3.84491598c1.4134191 0 2.5632195-1.14962708 2.5632195-2.5632195 0-1.41376579-1.1498004-2.56339287-2.5632195-2.56339287s-2.5633929 1.14962708-2.5633929 2.56339287c0 1.41359242 1.1499738 2.5632195 2.5633929 2.5632195z" opacity=".6"/><path d="m3.84300947 1.28169639c.7069695 0 1.2816964.57507356 1.2816964 1.28169648 0 .70644955-.5747269 1.2815231-1.2816964 1.2815231-.70679621 0-1.28169647-.57507355-1.28169647-1.2815231 0-.70662292.57490026-1.28169648 1.28169647-1.28169648zm0 3.84491598c1.41341914 0 2.5632195-1.14962708 2.5632195-2.5632195 0-1.41376579-1.14980036-2.56339287-2.5632195-2.56339287-1.41324584 0-2.56321958 1.14962708-2.56321958 2.56339287 0 1.41359242 1.14997374 2.5632195 2.56321958 2.5632195z" opacity=".63072"/></g></g><path d="m33 29-8.9090909 9-5.0909091-5.1428571" stroke="#9097fd" stroke-linecap="round" stroke-linejoin="round" stroke-width="2"/></g></svg>