<?xml version="1.0" encoding="UTF-8"?>
<svg width="50px" height="50px" viewBox="0 0 50 50" version="1.1" xmlns="http://www.w3.org/2000/svg" xmlns:xlink="http://www.w3.org/1999/xlink">
    <title>Artboard</title>
    <defs>
        <rect id="path-1" x="0" y="0" width="50" height="50" rx="5"></rect>
    </defs>
    <g id="Artboard" stroke="none" stroke-width="1" fill="none" fill-rule="evenodd">
        <g id="icon">
            <mask id="mask-2" fill="white">
                <use xlink:href="#path-1"></use>
            </mask>
            <use id="Rectangle" fill="#D6E5FF" fill-rule="nonzero" xlink:href="#path-1"></use>
        </g>
        <path d="M34.5838218,17.7681728 C34.8182896,17.1787789 35.1524012,16.7367402 35.5861664,16.4420433 C36.0199318,16.1473463 36.4947219,16 37.0105509,16 C37.7842946,16 38.4759641,16.2652233 39.0855803,16.7956778 C39.6951965,17.3261323 40,17.968562 40,18.7229862 C40,19.0766226 39.9062143,19.4656167 39.7186401,19.8899803 L34.021102,32.1611 C33.7631875,32.7504937 33.3704599,33.2043211 32.8429074,33.5225937 C32.3153549,33.8408663 31.7350559,34 31.1019929,34 C30.46893,34 29.8944926,33.8408663 29.3786636,33.5225937 C28.8628344,33.2043211 28.4759684,32.7504937 28.2180539,32.1611 L24.8769051,24.6994106 L21.7467761,32.1611 C21.5123083,32.7504937 21.1313039,33.2043211 20.6037515,33.5225937 C20.0761991,33.8408663 19.4959,34 18.8628371,34 C18.2297741,34 17.6494751,33.8408663 17.1219226,33.5225937 C16.5943702,33.2043211 16.1899194,32.7504937 15.908558,32.1611 L10.2461899,19.8899803 C10.0820625,19.536344 10,19.1591376 10,18.7583497 C10,17.9803498 10.3223883,17.3261323 10.9671746,16.7956778 C11.6119611,16.2652233 12.3329385,16 13.1301289,16 C13.6928516,16 14.2028113,16.1473463 14.6600235,16.4420433 C15.1172356,16.7367402 15.4630703,17.1905666 15.6975381,17.8035363 L19.0386869,25.9724947 L22.4501759,17.8388998 C22.6846436,17.2495059 23.0480632,16.8015733 23.5404455,16.4950884 C24.0328278,16.1886036 24.5603723,16.0353635 25.1230949,16.0353635 C25.6858176,16.0353635 26.2133621,16.1886036 26.7057444,16.4950884 C27.1981267,16.8015733 27.5615463,17.2495059 27.7960141,17.8388998 L31.3130129,26.0078589 L34.5838218,17.7681728 Z" id="Path" stroke="#146AFF" stroke-width="1.5"></path>
    </g>
</svg>