<svg height="50" viewBox="0 0 50 50" width="50" xmlns="http://www.w3.org/2000/svg"><g fill="none" fill-rule="evenodd"><rect fill="#fcf1dd" fill-rule="nonzero" height="50" rx="5" width="50"/><g stroke-width=".5" transform="translate(12 12)"><path d="m17.7739905 3.12922912-14.6452769 3.68759427 2.91665084 11.58332221 14.64520596-3.6875943zm-.4675705.78216229 1.7194941 6.82887349-4.7965919-2.86689736-2.9922959 5.00627686-3.58706926-2.1440191-2.01932936 3.3784153-1.16846849-4.64052031 3.00240644-.756-.15729594-.62486635-3.00247088.756-.39385848-1.56426015zm-11.45321952 11.08643199 2.01926491-3.3784797 3.58706921 2.1440191 2.9922959-5.00627688 4.7813199 2.85781148.0091503-.0152721.6661074 2.6453556-13.3954797 3.372938z" fill="#ef9a07" stroke="#ef9a07"/><path d="m11.9637709 7.58468019-.1573604-.62486635-2.19002864.55140573.15729594.62486635z" fill="#ef9a07" stroke="#ef9a07"/><path d="m21.0768831 5.69010501-1.4327399-5.69010501-19.6441432 4.94647733 3.31694033 13.17290687-.94422673 3.7510669 2.01662936.5079093.55720525 2.2128401 4.11597924-1.0364392 12.95484485 3.2615227 1.7535179-6.9652267.8196659-.2062053-.3837995-1.524179 2.7564487-10.94853219zm-17.92200721 15.71284009.49424822-1.9634606.56126491 2.2293365zm23.02610261-13.76323388-2.3064057 9.16118378-.9968735-3.9588186.9570501-3.79991172-2.0433652-.51422435-.5358758-2.12842482zm-4.2109045 1.59763962 1.0823842.27244868-.5070071 2.01294988zm-17.10401672 12.39557756 6.74130072-1.6973914-.1572959-.6249308-6.74130076 1.6974559-.8853938-3.5161218-.17424343-.6921408v.0000645l-2.86689738-11.38588071 18.39434607-4.63175656 1.1907709 4.72918854-.0001933-.00006443.7146945 2.83802863v-.00006443l1.4634129 5.81286156.0001288-.0007088 1.2629428 5.0156205-4.6164845 1.1625465-13.77785516 3.4693389zm16.68374462 4.4011289-11.1674964-2.8115442 3.9668091-.9989355 3.4214606.861416.1572959-.6249244-2.2592363-.5687398 7.3927805-1.8616468z" fill="#ffb83e" stroke="#ffb83e"/></g></g></svg>