<svg height="50" viewBox="0 0 50 50" width="50" xmlns="http://www.w3.org/2000/svg"><g fill="none" fill-rule="evenodd"><rect fill="#fff6dd" fill-rule="nonzero" height="50" rx="5" width="50"/><g fill="#ffa300" transform="translate(14 14)"><path d="m20.5136134 4.73147899c0 2.03712605-1.4804705 3.7357479-3.4212773 4.08626891v-5.3985042h3.4212773zm-9.5733277 8.93976471c-2.63852099 0-4.78490755-2.1467563-4.78490755-4.78490757v-7.51919327h9.57000005v1.35198319c-.0003698.00573109-.0035127.01053782-.0035127.01645378 0 .00591597.0031429.01072269.0035127.01645378v6.13430252c0 2.63815127-2.1465715 4.78490757-4.7850925 4.78490757zm-9.57314284-8.93976471v-1.31223529h3.42109243v5.39924369c-1.94099159-.34885714-3.42109243-2.04840336-3.42109243-4.0870084zm12.30742854 15.77547901h-5.4685714v-1.3671429h5.4685714zm7.522521-18.45485716h-4.1047563v-1.36862185c0-.37769748-.3059664-.68347899-.683479-.68347899h-10.93695794c-.37769748 0-.68366387.30578151-.68366387.68347899v1.36862185h-4.1047563c-.37732773 0-.68347899.30559664-.68347899.68347899v1.99589916c0 2.84539496 2.16764706 5.19902521 4.93890756 5.49223531.56460505 2.5336975 2.6932437 4.4826386 5.31789914 4.7743697v2.7745883h-2.73428569c-.37751261 0-.68347899.3057815-.68347899.683479v2.0508067h-.68366387c-.3775126 0-.68347899.3057815-.68347899.683479 0 .3778823.30596639.6836638.68347899.6836638h9.57000005c.3773277 0 .6834789-.3057815.6834789-.6836638 0-.3776975-.3061512-.683479-.6834789-.683479h-.6836639v-2.0508067c0-.3776975-.3061513-.683479-.683479-.683479h-2.7342857v-2.7745883c2.6248403-.2919159 4.7536638-2.241042 5.3178991-4.7751092 2.7710757-.29542858 4.9389076-2.64776472 4.9389076-5.49149581v-1.99589916c0-.37788235-.3061513-.68347899-.6836639-.68347899z"/><path d="m8.20636975 2.73428571c-.37751261 0-.68347899.30578152-.68347899.683479v2.73557983c0 .37788235.30596638.68366386.68347899.68366386.3775126 0 .68366386-.30578151.68366386-.68366386v-2.73557983c0-.37769748-.30615126-.683479-.68366386-.683479z" opacity=".60419"/></g></g></svg>