<svg height="50" viewBox="0 0 50 50" width="50" xmlns="http://www.w3.org/2000/svg"><g fill="none" fill-rule="evenodd"><rect fill="#f0f0ff" fill-rule="nonzero" height="50" rx="5" width="50"/><g transform="translate(14 13)"><g stroke-width="1.5"><path d="m14.893617 2.68675532h-10.10638296l-4.78723404 4.78723404v15.95744684c0 .587234.47659575 1.0638298 1.06382979 1.0638298h13.82978721c.5872341 0 1.0638298-.4765958 1.0638298-1.0638298 0-3.5144117 0-5.9065841 0-7.176517 0-.9059991 0-4.9636561 0-5.3719634 0-1.58497125 0-3.96242815 0-7.13237069 0-.58723405-.4765957-1.06382979-1.0638298-1.06382979z" stroke="#3f45e6"/><path d="m18.0851064 22.8995213 3.7234042-.5319149c.731383-.0994681 1.1478724-.3978724 1.0638298-1.0638298l-2.6595744-20.21276596c-.0888298-.84202128-.775532-1.19680851-1.5957447-1.06382979l-10.6382979 1.06382979" stroke="#7c81f8"/><path d="m4.78723404 2.68675532v3.72340425c0 .58723405-.47659574 1.06382979-1.06382978 1.06382979h-3.72340426" stroke="#3f45e6"/></g><path d="m11.6557485 11.2851773-4.45995579 5.6029705-1.78254375-3.1810158c-.20434516-.3645599-.664367-.4948539-1.02891877-.2888841-.36324397.2062988-.49173621.6698953-.28673714 1.0357713l2.3314966 4.1595369c.26188876.4672158.91252377.522492 1.24666898.1016688l5.15799887-6.4808098c.2612349-.3270511.2089225-.8051247-.1170489-1.0676868-.3266253-.2628912-.801033-.208602-1.0609601.118449z" fill="#3f45e6"/></g></g></svg>