<svg height="50" viewBox="0 0 50 50" width="50" xmlns="http://www.w3.org/2000/svg"><g fill="none" fill-rule="evenodd"><rect fill="#defffe" fill-rule="nonzero" height="50" rx="5" width="50"/><g fill="#21b7a9" transform="translate(15 13)"><path d="m3.72704696 22.362685c-1.23300801 0-2.23618785-1.0031798-2.23618785-2.2363895v-13.35785564c.51025887.37195877 1.23280641.68585567 2.23618785.68585567h14.16306074v14.90838947zm14.90838944-16.39924857h-14.90838944c-1.51001145 0-2.22449484-1.08825659-2.22449484-2.22893013 0-1.1166827.68789187-2.24364719 2.22449484-2.24364719h14.90838944c.4120779 0 .7453288-.33345247.7453288-.74532875 0-.4120779-.3332509-.74553036-.7453288-.74553036h-14.90838944c-2.40311569 0-3.67463001 1.82350515-3.71172508 3.6518488-.00282245.02600687-.01532188.04858648-.01532188.07539977v16.39904693c0 2.0549462 1.6721008 3.727047 3.72704696 3.727047h14.90838944c.4120779 0 .7453288-.3332509.7453288-.7453288v-16.39924852c0-.41187629-.3332509-.74532875-.7453288-.74532875z"/><path d="m3.72704696 2.97889576c-.41205773 0-.74532875.33325086-.74532875.74532875 0 .4120779.33327102.74553036.74532875.74553036h14.16306074c.4118763 0 .7453287-.33345246.7453287-.74553036 0-.41207789-.3334524-.74532875-.7453287-.74532875z" opacity=".602004"/></g></g></svg>