<svg height="50" viewBox="0 0 50 50" width="50" xmlns="http://www.w3.org/2000/svg"><g fill="none" fill-rule="evenodd"><rect fill="#ecf5ff" fill-rule="nonzero" height="50" rx="5" width="50"/><g transform="translate(14 13)"><path d="m21.7221591 21.9604167c0 1.0242424-.8331439 1.8573863-1.8573864 1.8573863h-8.9975379c.4125-.5109848.6679925-1.1532197.6679925-1.8579545v-.8776515h7.9672348c.0323864 0 .0604167-.0130682.0912879-.0183712v.0195075h2.1284091zm-11.299053-1.4342803v1.4337121c0 .9715909-.74734852 1.7774621-1.70700762 1.8486742-1.14810606-.0837121-2.04261363-1.0454545-2.04261363-2.2028409v-14.93219695h12.27291665v13.29640155h-7.9672348c-.3073864 0-.5560606.2488636-.5560606.55625zm-4.30568186-14.96496216c-.30738636 0-.5560606.24867424-.5560606.55606061v14.85037875c-.9625-.2405303-1.66837122-1.1143939-1.66837122-2.1424242v-14.93238637h12.27272728v1.66837121zm-2.78068182-2.78068182c-.30738636 0-.5560606.24886364-.5560606.55625v14.85018938c-.96231061-.2405303-1.66856061-1.1143939-1.66856061-2.1424242v-14.93238639h12.27291669v1.66837121zm18.94147728 17.19053028h-2.219697v-13.85378785c0-.30738637-.2486742-.55606061-.5560606-.55606061h-2.2244318v-2.22443182c0-.30738636-.2488636-.55625-.55625-.55625h-2.2244318v-2.22443181c0-.30738637-.2486743-.55606061-.5560606-.55606061h-13.38522729c-.30738637 0-.55606061.24867424-.55606061.55606061v15.48844699c0 1.6551136 1.21723485 3.0422348 2.82234848 3.2827651.21761364 1.4263258 1.34147728 2.5649621 2.78068182 2.7806818.23238637 1.5240531 1.49981061 2.720644 3.08049243 2.8128788.01079545.0005682.0217803.0011364.03257575.0011364v.0081439h11.14867422c1.6373106 0 2.9695076-1.3321969 2.9695076-2.9696969v-1.433144c0-.3075757-.2486742-.55625-.5560606-.55625z" fill="#007aff"/><g fill="#5baaff"><path d="m8.89810606 9.81799242h7.82367424c.3073864 0 .55625-.24886363.55625-.55625 0-.30738636-.2488636-.5560606-.55625-.5560606h-7.82367424c-.30738636 0-.55625.24867424-.55625.5560606 0 .30738637.24886364.55625.55625.55625z"/><path d="m8.89810606 13.3301136h7.82367424c.3073864 0 .55625-.2486742.55625-.5560606 0-.3073863-.2488636-.55625-.55625-.55625h-7.82367424c-.30738636 0-.55625.2488637-.55625.55625 0 .3073864.24886364.5560606.55625.5560606z"/><path d="m13.3660985 16.2861742c0-.3073863-.2486743-.5560606-.55625-.5560606h-3.91174244c-.30738636 0-.55625.2486743-.55625.5560606 0 .3073864.24886364.5560606.55625.5560606h3.91174244c.3075757 0 .55625-.2486742.55625-.5560606z"/></g></g></g></svg>