<svg height="50" viewBox="0 0 50 50" width="50" xmlns="http://www.w3.org/2000/svg"><g fill="none" fill-rule="evenodd"><rect fill="#f7f7cc" fill-rule="nonzero" height="50" rx="5" width="50"/><g transform="translate(11 11)"><path d="m7.27155167 20c-.12395988 0-.24687368-.0565176-.33108271-.1652054-1.2694119-1.6379248-1.94046896-3.6133251-1.94046896-5.713173 0-5.03007026 3.937949-9.1216216 8.7786606-9.1216216 3.6032051 0 6.8957259 2.34602565 8.1928587 5.8381639.0842091.2277009-.0245827.4836606-.2437354.5711543-.2186297.0874936-.4644573-.0260851-.5486663-.2532426-1.1721269-3.15411922-4.1461179-5.27353086-7.400457-5.27353086-4.37259308 0-7.92924777 3.69592783-7.92924777 8.23907686 0 1.8960583.60620041 3.6801681 1.75322155 5.1599522.14697352.1896602.11820646.4679009-.06485665.6206072-.07845562.0657561-.17260236.097819-.26622606.097819z" fill="#eec854" stroke="#eec854" stroke-width=".85"/><path d="m24.1421393 22.999739c-.1108489 0-.2216977-.0412454-.3059002-.1242581-.168938-.1649812-.168938-.4338588 0-.59884l.783936-.7685201c.0719452-.0704825.0719452-.1848207 0-.2547811l-1.5529501-1.5213774c-.2371527-.2328533-.2840503-.5946633-.1135135-.8802479.4801674-.8014119.8446897-1.6639087 1.084507-2.5650402.0847354-.3205648.3789113-.5445425.7151884-.5445425h2.1967263c.1017891 0 .1843929-.0809243.1843929-.1801219v-3.693282c0-.0991976-.0826038-.180644-.1843929-.180644h-2.1967263c-.3362771 0-.630453-.2239777-.7151884-.5450645-.2403502-.9006095-.6048725-1.76310624-1.0839741-2.56399607-.1710697-.28610666-.1241721-.64791673.1129806-.88024788l1.5529501-1.52137741c.0468976-.04594414.0538257-.09971966.0538257-.12739056s-.0069281-.08196852-.0538257-.12791265l-2.6657023-2.61098438c-.0468976-.04594413-.1017891-.05325343-.1300343-.05325343-.0282451 0-.0831366.0073093-.1300342.05325343l-1.5529502 1.52137742c-.2382185.23180905-.6075371.27723109-.8985154.1106836-.8175105-.46988321-1.6979063-.82699445-2.6182718-1.06245815-.3272173-.08353479-.5558431-.37172982-.5558431-.70012598v-2.15310929c0-.09867547-.0826038-.1795998-.18386-.1795998h-3.7699276c-.1017892 0-.1843929.08092433-.1843929.1795998v2.15310929c0 .32839616-.2280929.61659119-.5553102.70012598-.9203655.2354637-1.80076135.59257494-2.61827181 1.06193606-.29204416.16811377-.66136277.12164754-.89851542-.11016151l-1.55295013-1.52137742c-.07194519-.07048248-.18865627-.07048248-.26060145 0l-2.66570232 2.61098438c-.04636468.04646622-.05382566.10024175-.05382566.12791265s.00746098.08144642.05382566.12739056l1.55295013 1.52137741c.23768557.23233115.28405025.59414122.11351351.87972579-.47963456.80141192-.84415683 1.66390866-1.08397411 2.56504026-.08526837.3210868-.37944423.5445424-.71572136.5445424h-2.1967263c-.10125618 0-.18385991.0814464-.18385991.180644v3.693282c0 .0991976.08260373.1801219.18385991.1801219h2.1967263c.33627713 0 .63045299.2239777.71572136.5440204.23928435.9016536.60433955 1.7641504 1.08397411 2.5650402.17053674.2861067.12417206.6479167-.11351351.88077l-1.55295013 1.5213774c-.07141226.0699604-.07141226.1842986 0 .2547811l.78393605.7685201c.16947088.1649812.16947088.4338588 0 .59884-.16893796.1660255-.44286258.1660255-.61180054 0l-.78393604-.767998c-.40928817-.4004449-.40928817-1.0530604 0-1.4535053l1.48366958-1.4540275c-.48070042-.818641-.85108489-1.6957563-1.10262657-2.6099402h-2.09920061c-.57875904 0-1.04933384-.4610077-1.04933384-1.0280001v-3.693282c0-.5675145.4705748-1.0285221 1.04933384-1.0285221h2.09866768c.25207461-.91470602.62245908-1.79129926 1.1031595-2.60994023l-1.48366958-1.45350539c-.19824896-.1942184-.30749905-.45213207-.30749905-.7267527 0-.27514273.10925009-.53357849.30749905-.72727479l2.66570232-2.61150647c.40928816-.400967 1.07544728-.400967 1.48420251 0l1.48366958 1.4535054c.83563-.4709274 1.73094785-.83378165 2.66410355-1.08020929v-2.05704428c0-.56647031.4711077-1.02747795 1.0498668-1.02747795h3.7699276c.5787591 0 1.0493339.46100764 1.0493339 1.02747795v2.05704428c.9331557.24642764 1.8284735.60928189 2.6641035 1.08020929l1.4836696-1.4535054c.395965-.38843678 1.0877046-.38895888 1.4842025 0l2.6657023 2.61150647c.198249.19421839.308032.45213206.308032.72727479 0 .27462063-.109783.5325343-.307499.7267527l-1.4836696 1.45350539c.4801675.81864097.8510849 1.69523421 1.1026266 2.60994023h2.0986676c.5787591 0 1.0498668.4610076 1.0498668 1.0285221v3.693282c0 .5669924-.4711077 1.0280001-1.0498668 1.0280001h-2.0986676c-.2515417.9141839-.6219262 1.7912992-1.1026266 2.6099402l1.4831366 1.4540275c.4092882.4004449.4092882 1.0530604.000533 1.4535053l-.7839361.767998c-.0847354.0830127-.1955843.1242581-.3064332.1242581z" fill="#eec854" stroke="#eec854" stroke-width="1.199086"/><g fill="#e6b624" stroke="#e6b624"><path d="m14.6755556 13.0404444c-1.3311112 0-2.4142223 1.0826667-2.4142223 2.4137778s1.0831111 2.4146667 2.4142223 2.4146667c1.3311111 0 2.4137777-1.0835556 2.4137777-2.4146667s-1.0826666-2.4137778-2.4137777-2.4137778zm0 5.5502223c-1.7293334 0-3.136-1.4066667-3.136-3.1364445 0-1.7288889 1.4066666-3.1355555 3.136-3.1355555 1.7288888 0 3.136 1.4066666 3.136 3.1355555 0 1.7297778-1.4071112 3.1364445-3.136 3.1364445z"/><path d="m21.5288889 26.7111111h-13.70711112c-.19911111 0-.36088889-.1613333-.36088889-.3604444 0-3.2355556 2.18088889-6.0933334 5.30311111-6.9506667.1924444-.0533333.3911111.06.4435556.252.0528888.1924444-.06.3911111-.2524445.444-2.6928889.7395556-4.60755554 3.1324444-4.76222221 5.8933333h12.96488891c-.1542222-2.7604444-2.0688889-5.1537777-4.7622222-5.8933333-.192-.0528889-.3053334-.2515556-.2524445-.444.0528889-.192.2515556-.3053333.4435556-.252 3.1226666.8573333 5.3031111 3.7151111 5.3031111 6.9506667 0 .1991111-.1613334.3604444-.3608889.3604444z"/></g></g></g></svg>