<?xml version="1.0" encoding="UTF-8"?>
<svg width="50px" height="50px" viewBox="0 0 50 50" version="1.1" xmlns="http://www.w3.org/2000/svg" xmlns:xlink="http://www.w3.org/1999/xlink">
    <title>icon</title>
    <g id="Page-1" stroke="none" stroke-width="1" fill="none" fill-rule="evenodd">
        <g id="icon">
            <g>
                <rect id="Rectangle-path" fill="#DBE8FD" fill-rule="nonzero" x="0" y="0" width="50" height="50" rx="5"></rect>
                <g id="Group-3" transform="translate(15.000000, 17.000000)">
                    <path d="M14.6153,4.40786552 C14.2078276,4.67101379 14.0906448,5.21565862 14.3543793,5.62307241 C15.3866897,7.22218621 15.4013448,9.29741724 14.3925414,10.9112448 C14.1345517,11.3233483 14.2594138,11.8655897 14.6715172,12.1228759 C14.8163103,12.2137966 14.9775172,12.2571172 15.1369655,12.2571172 C15.430069,12.2571172 15.7161379,12.1105655 15.8826793,11.8439 C17.2525862,9.65435862 17.2321276,6.83763448 15.8310345,4.66931379 C15.5678862,4.26131379 15.0226552,4.14342759 14.6153,4.40786552 Z" id="Fill-1" fill="#1734B0" opacity="0.390033"></path>
                    <path d="M18.9033448,2.79984138 C18.6442414,2.38955517 18.1014138,2.26762414 17.6904828,2.52555517 C17.2801379,2.7846 17.1576207,3.32801379 17.4167241,3.73835862 C19.2047138,6.57032414 19.1677828,10.2060379 17.322931,13.0010724 C17.0550931,13.4060828 17.1664138,13.9512552 17.572069,14.2192103 C17.7215517,14.3176345 17.8892069,14.3645897 18.0556897,14.3645897 C18.3411724,14.3645897 18.6214379,14.2261862 18.7902069,13.9694276 C21.0160345,10.5993241 21.0606448,6.21508276 18.9033448,2.79984138 Z" id="Path" fill="#1734B0" opacity="0.697437"></path>
                    <path d="M9.8347931,0.246910345 L4.7243,4.19618621 L1.17241379,4.19618621 C0.524655172,4.19618621 0,4.7209 0,5.3686 L0,11.230669 C0,11.8779 0.524655172,12.4030828 1.17241379,12.4030828 L4.7243,12.4030828 L9.8347931,16.351831 C10.6056552,16.9474172 11.7241379,16.3981414 11.7241379,15.4243931 L11.7241379,1.17428966 C11.7241379,0.200658621 10.6056552,-0.348617241 9.8347931,0.246910345 Z" id="Fill-2" stroke="#3416A6" stroke-width="1.5"></path>
                </g>
            </g>
        </g>
    </g>
</svg>