<svg height="50" viewBox="0 0 50 50" width="50" xmlns="http://www.w3.org/2000/svg"><g fill="none" fill-rule="evenodd"><rect fill="#fff" height="50" rx="5" width="50"/><g transform="translate(14 15)"><path d="m6.7890625 17.5520833h.4984375c.57291953 0 1.01979006.1070591 1.340625.3211806.32083494.2141214.48125.5179378.48125.9114583 0 .4166688-.14036318.7233787-.42109375.9201389-.28073057.1967603-.72473655.2951389-1.33203125.2951389h-4.74375c-.34375172 0-.63020719-.1157396-.859375-.3472222-.22916781-.2314827-.34375-.5208316-.34375-.8680556 0-.4282429.15468595-.7407397.4640625-.9375.30937655-.1967602.80207995-.2951389 1.478125-.2951389h.34375l5.56875-5.7638889-5.465625-5.36458329h-.240625c-.66458666 0-1.12577996-.08969818-1.38359375-.26909722-.25781379-.17939905-.38671875-.49478941-.38671875-.94618056 0-.47453941.14609229-.80150373.43828125-.98090277.29218896-.17939905.85077712-.26909723 1.67578125-.26909723h3.5234375c.61875309 0 1.06848818.10127214 1.34921875.30381945s.42109375.51793767.42109375.94618055c0 .39352049-.15755051.69444341-.47265625.90277778-.31510574.20833438-.77056994.3125-1.36640625.3125h-.1375l3.6953125 3.66319449 3.5234375-3.66319449h-.3609375c-.6416699 0-1.117186-.09548516-1.4265625-.28645833-.3093765-.19097318-.4640625-.48900261-.4640625-.89409722 0-.45139115.1374986-.77835547.4125-.98090278s.7218719-.30381945 1.340625-.30381945h4.46875c.3552101 0 .6445301.1128461.8679687.33854167.2234387.22569557.3351563.51793802.3351563.87673611 0 .42824288-.1432277.74363325-.4296875.94618056s-.7447885.30381944-1.375.30381944h-.48125l-4.9328125 5.19097219 6.015625 5.9375h.171875c.4354188 0 .7734363.1070591 1.0140625.3211806.2406262.2141214.3609375.5179378.3609375.9114583 0 .4629653-.1374986.7812492-.4125.9548611-.2750014.173612-.8421832.2604167-1.7015625.2604167h-3.50625c-.6072947 0-1.0541652-.0983786-1.340625-.2951389-.2864598-.1967602-.4296875-.5034701-.4296875-.9201389 0-.3819463.1374986-.6828692.4125-.9027778.2750014-.2199085.6531226-.3298611 1.134375-.3298611h.9625l-4.33125-4.2708333z" fill="#000"/><path d="m5.5 1.11111111h11" fill-rule="nonzero" stroke="#000" stroke-linecap="round" stroke-width="2.222222"/></g></g></svg>