<svg height="40" viewBox="0 0 40 40" width="40" xmlns="http://www.w3.org/2000/svg"><g fill="none" fill-rule="evenodd"><path d="m20 0c11.045695 0 20 8.954305 20 20 0 11.045695-8.954305 20-20 20-11.045695 0-20-8.954305-20-20 0-11.045695 8.954305-20 20-20z" fill="#ffe3e2"/><path d="m6.89545455 5 2.84289772-2.84289773c.34886363-.34886363.34886363-.91448863 0-1.26363636l-.63181818-.63181818c-.34886364-.34886364-.91448864-.34886364-1.26363636 0l-2.84289773 2.84289772-2.84289773-2.84289772c-.34886363-.34886364-.91448863-.34886364-1.26363636 0l-.63181818.63181818c-.34886364.34886364-.34886364.91448864 0 1.26363636l2.84289772 2.84289773-2.84289772 2.84289773c-.34886364.34886363-.34886364.91448863 0 1.26363636l.63181818.63181818c.34886364.34886363.91477273.34886363 1.26363636 0l2.84289773-2.84289772 2.84289773 2.84289772c.34886363.34886363.91477272.34886363 1.26363636 0l.63181818-.63181818c.34886363-.34886364.34886363-.91448864 0-1.26363636z" fill="#f96e6a" fill-rule="nonzero" transform="translate(15 15)"/></g></svg>