<svg height="40" viewBox="0 0 40 40" width="40" xmlns="http://www.w3.org/2000/svg"><g fill="none"><path d="m20 0c11.045695 0 20 8.954305 20 20 0 11.045695-8.954305 20-20 20-11.045695 0-20-8.954305-20-20 0-11.045695 8.954305-20 20-20z" fill="#f96e6a"/><path d="m16.9179863 26.7381538-5.6628273-5.6628272c-.340212-.3402121-.340212-.8918273 0-1.2320733l1.2320393-1.2320733c.340212-.3402461.8918613-.3402461 1.2320733 0l3.8147513 3.8147173 8.1707723-8.1707383c.340212-.340212.8918612-.340212 1.2320733 0l1.2320392 1.2320733c.3402121.3402121.3402121.8918273 0 1.2320733l-10.0188481 10.0188822c-.3402461.3402121-.8918613.3402121-1.2320733-.000034z" fill="#fff"/></g></svg>