<svg height="40" viewBox="0 0 40 40" width="40" xmlns="http://www.w3.org/2000/svg"><g fill="none"><path d="m20 0c11.045695 0 20 8.954305 20 20 0 11.045695-8.954305 20-20 20-11.045695 0-20-8.954305-20-20 0-11.045695 8.954305-20 20-20z" fill="#09f"/><path d="m5.91799476 12.7414974-5.66282722-5.66282724c-.34021204-.34021204-.34021204-.89182723 0-1.2320733l1.23203927-1.2320733c.34021204-.34024607.89186125-.34024607 1.23207329 0l3.81475131 3.81471728 8.17077229-8.17073822c.340212-.34021204.8918612-.34021204 1.2320733 0l1.2320392 1.2320733c.3402121.34021204.3402121.89182722 0 1.23207329l-10.01884814 10.01888219c-.34024607.3402121-.89186125.3402121-1.2320733-.000034z" fill="#fff" transform="translate(11 14)"/></g></svg>