<svg height="50" viewBox="0 0 50 50" width="50" xmlns="http://www.w3.org/2000/svg"><g fill="none" fill-rule="evenodd"><rect fill="#e2ffe0" fill-rule="nonzero" height="50" rx="5" width="50"/><path d="m31.1875116 32.6153702c-1.8952822 0-3.4374651-1.5529573-3.4374651-3.4614808 0-1.9085236 1.5421829-3.4614809 3.4374651-3.4614809s3.4376511 1.5529573 3.4376511 3.4614809c0 1.9085235-1.5423689 3.4614808-3.4376511 3.4614808zm-12.3750232 0c-1.8952822 0-3.4374652-1.5529573-3.4374652-3.4614808 0-1.9085236 1.542183-3.4614809 3.4374652-3.4614809 1.8954681 0 3.4376511 1.5529573 3.4376511 3.4614809 0 1.9085235-1.542183 3.4614808-3.4376511 3.4614808zm17.1875116-11.076851c0-3.0538624-2.4672324-5.5385192-5.499907-5.5385192-.3800605 0-.6876046.3096927-.6876046.6924085s.3075441.6922213.6876046.6922213c2.2745989 0 4.1250697 1.863399 4.1250697 4.1538894v4.2304699c-.8744739-.9002434-2.0916344-1.4612104-3.4376511-1.4612104-1.7463446 0-3.2738383.9448062-4.1174462 2.350594-1.1074562-1.2876402-3.0317449-1.2885764-4.1401308 0-.843422-1.4056005-2.3711016-2.350594-4.1174462-2.350594-1.3460167 0-2.5631772.560967-3.4374652 1.4612104v-4.2304699c0-2.2904904 1.8502849-4.1538894 4.1250698-4.1538894.3798745 0 .6874186-.3095055.6874186-.6922213s-.3075441-.6924085-.6874186-.6924085c-3.0328606 0-5.500093 2.4846568-5.500093 5.5385192v6.9229616c0 .0554227.0189658.1044792.0312379.1559698-.0193378.1763788-.0312379.3550045-.0312379.5364388 0 2.6718954 2.1591305 4.8461106 4.8124884 4.8461106s4.8126743-2.1742152 4.8126743-4.8461106c0-.1814343-.0119001-.36006-.0314238-.5364388.012272-.0514906.0314238-.1005471.0314238-.1559698 0-1.8295088 2.7498605-1.829696 2.7498605 0 0 .0554227.0191518.1044792.0312379.1559698-.0193377.1763788-.0312379.3550045-.0312379.5364388 0 2.6718954 2.1591305 4.8461106 4.8124884 4.8461106s4.8124884-2.1742152 4.8124884-4.8461106c0-.1814343-.0119001-.36006-.0312379-.5364388.0122721-.0514906.0312379-.1005471.0312379-.1559698z" fill="#45af3d" stroke="#45af3d" stroke-width=".25"/></g></svg>