<svg height="50" viewBox="0 0 50 50" width="50" xmlns="http://www.w3.org/2000/svg"><g fill="none" fill-rule="evenodd"><rect fill="#ffe8e8" fill-rule="nonzero" height="50" rx="5" width="50"/><g transform="translate(12 13)"><path d="m2.0656 1.00586667c-.58453333 0-1.06026667.47573333-1.06026667 1.05973333v14.0656c0 .5850667.47573334 1.0602667 1.06026667 1.0602667h22.8570667c.5845333 0 1.0597333-.4752 1.0597333-1.0602667v-14.0656c0-.584-.4752-1.05973333-1.0597333-1.05973333zm22.8570667 17.19146663h-22.8570667c-1.1392 0-2.0656-.9264-2.0656-2.0661333v-14.0656c0-1.13866667.9264-2.0656 2.0656-2.0656h22.8570667c1.1392 0 2.0656.92693333 2.0656 2.0656v14.0656c0 1.1397333-.9264 2.0661333-2.0656 2.0661333z" fill="#e61515" stroke="#e61515" stroke-width=".709091"/><path d="m11.8629333 7.22506667v3.74720003l3.4853334-1.87360003zm-.5034666 5.09120003c-.0896 0-.1786667-.024-.2576-.0709334-.152-.0912-.2448-.2549333-.2448-.432v-5.42986663c0-.17653334.0928-.3408.2448-.43146667.1514666-.09066667.3408-.0944.496-.0112l5.0501333 2.7152c.1632.08746667.2650667.2576.2650667.44266667 0 .18506666-.1018667.3552-.2650667.44266666l-5.0501333 2.71519997c-.0746667.04-.1562667.0597334-.2384.0597334z" fill="#f47676" stroke="#f47676" stroke-width=".709091"/><g stroke-width=".545455"><path d="m7.83306667 22.5962667h-4.1024c-.2784 0-.50346667-.2245334-.50346667-.5024 0-.2778667.22506667-.5029334.50346667-.5029334h4.1024c.27786666 0 .5024.2250667.5024.5029334 0 .2778666-.22453334.5024-.5024.5024z" fill="#e61515" stroke="#e61515"/><path d="m24.0394667 22.5962667h-14.26933337c-.27786666 0-.50293333-.2245334-.50293333-.5024 0-.2778667.22506667-.5029334.50293333-.5029334h14.26933337c.2778666 0 .5029333.2250667.5029333.5029334 0 .2778666-.2250667.5024-.5029333.5024z" fill="#f47676" stroke="#f47676"/><path d="m8.8016 21.6277333c-.25706667 0-.46613333.2090667-.46613333.4661334 0 .2565333.20906666.4656.46613333.4656.25653333 0 .4656-.2090667.4656-.4656 0-.2570667-.20906667-.4661334-.4656-.4661334zm0 1.9376c-.81173333 0-1.47146667-.6602666-1.47146667-1.4714666 0-.8117334.65973334-1.472 1.47146667-1.472.8112 0 1.4709333.6602666 1.4709333 1.472 0 .8112-.6597333 1.4714666-1.4709333 1.4714666z" fill="#e61515" stroke="#e61515"/><path d="m13.2986667 3.8384c-2.9002667 0-5.25973337 2.36-5.25973337 5.26026667 0 2.90026663 2.35946667 5.26026663 5.25973337 5.26026663 2.9008 0 5.2602666-2.36 5.2602666-5.26026663 0-2.90026667-2.3594666-5.26026667-5.2602666-5.26026667zm0 11.5258667c-3.45493337 0-6.26560003-2.8106667-6.26560003-6.26560003 0-3.45493334 2.81066666-6.26613334 6.26560003-6.26613334 3.4554666 0 6.2661333 2.8112 6.2661333 6.26613334 0 3.45493333-2.8106667 6.26560003-6.2661333 6.26560003z" fill="#f47676" stroke="#f47676"/></g></g></g></svg>