<svg height="50" viewBox="0 0 50 50" width="50" xmlns="http://www.w3.org/2000/svg"><g fill="none" fill-rule="evenodd"><rect fill="#ffe57f" fill-rule="nonzero" height="50" rx="5" width="50"/><g transform="translate(11 12)"><path d="m3.48087447 25.2398298c-.15395745 0-.26942553-.0373404-.36823404-.1085745-.39236171-.2849362-.36421277-1.0012979-.05457447-3.4939149.08387234-.6859149.20048936-1.6240213.16831915-1.8158936-.07295745-.1327021-.71808511-.8220638-1.18857447-1.3258723-1.71651064-1.8365745-2.16057447-2.4001277-2.0106383-2.8614256.1493617-.4601489.83929787-.6548936 3.30778723-1.1317021.23208511-.0396383.47451064.1045532.51931915.3389362.04538298.233234-.09306383.4561276-.32629787.5015106l-.03044681.0051702c-.79506383.1539575-2.05085106.3969575-2.54891489.5859575.29182979.4457872 1.16559574 1.3804468 1.71880851 1.9721489.95591489 1.0231277 1.29714894 1.4051489 1.38331915 1.6699787.08674468.2665532.03504255.7761064-.13787234 2.1668937-.09995745.8036808-.25678724 2.0726808-.23093617 2.6034893.51357447-.1390213 1.67285106-.6807447 2.40644681-1.0242766 1.269-.592851 1.73661702-.800234 2.01638298-.800234.27919148 0 .74853191.207383 2.01753191.8008085.7335957.3429574 1.8917234.8846808 2.4052979 1.0237021.027-.5319574-.1309788-1.8032553-.2297873-2.6080851-.1729149-1.3873404-.224617-1.8957447-.1395957-2.1611489.0304468-.0924894.0855957-.189.1798085-.315383.1401702-.1907234.4095957-.2326596.602617-.0901915.1907234.1413192.2309362.4107447.089617.6020426-.027.0361914-.0482553.0660638-.0603191.0901914-.018383.1482128.0970851 1.0845958.1826808 1.7687873.3096383 2.4960638.3366383 3.213-.0551489 3.4979362-.3935106.287234-1.0644893.0367659-3.33995743-1.027149-.62502128-.2924042-1.48212766-.693383-1.674-.7209574-.14936171.0275744-1.00417022.4285532-1.62919149.7209574-1.70674468.7973617-2.511 1.1362979-2.97344681 1.1362979z" stroke="#e8c53b"/><path d="m5.20427872 15.4738723c-.15395744 0-.26942553-.0373404-.36823404-.1085744-.3923617-.2849362-.36421277-1.0012979-.05457447-3.4939149.08387234-.6859149.20048936-1.6240213.16831915-1.8158936-.07295745-.13270217-.7180851-.82206387-1.18857447-1.32587238-1.71651063-1.83657447-2.16057446-2.40012766-2.01063829-2.86142553.15051063-.4607234.8404468-.65546809 3.30893617-1.1322766.6767234-.13097872 1.60448936-.30963829 1.77625532-.40040425.10340425-.10914894.55953191-.93580851.89329787-1.53842553 1.21614893-2.20136171 1.61425532-2.79708511 2.09910638-2.79708511.48599996 0 .88410636.59629787 2.10025536 2.79708511.3343404.60261702.7910425 1.42927659.9289149 1.56427659.1361489.0649149 1.060468.243 1.7348936.37397873l.5618298.10914893c.2338085.04595745.3848936.27229787.3389361.50610638-.0459574.23323405-.2682766.38776596-.5061064.33951064l-.5583829-.10914893c-1.3689575-.26482979-1.8681702-.37225532-2.0939362-.53540426-.2263404-.16487234-.4837021-.60778723-1.1598511-1.83197872-.3917872-.70946809-1.0122127-1.83025532-1.34655316-2.24502128-.33319149.41476596-.95361702 1.53555319-1.34540425 2.24502128-.67672341 1.22419149-.93351064 1.66710638-1.1592766 1.83140425-.22634043.16429788-.72670213.27114894-2.10025532.53655319-.79678723.15395745-2.05314894.39695745-2.55121277.58653192.29182979.44521277 1.16559575 1.38044681 1.71880851 1.97214894.9559149 1.02312766 1.29714894 1.40514893 1.38331915 1.66997872.08674468.26655321.03504256.77610641-.13787234 2.16689361-.09995744.8036809-.25678723 2.0726809-.23093617 2.6034894.51357447-.1390213 1.67285107-.6807447 2.40644681-1.0242766 1.269-.5928511 1.73661702-.8002341 2.01638298-.8002341.27919146 0 .74623406.2062341 2.00948936.7967873l.4825532.2251915c.2154255.1005319.3096383.3561702.2096808.5721702-.1011063.2165744-.3590425.3073404-.5721702.2096808l-.484851-.2257659c-.6227234-.2906809-1.47408514-.6899362-1.66595748-.7175107-.1493617.0275745-1.00417021.4285532-1.62919149.7209575-1.70674468.7973617-2.511 1.1362978-2.97344681 1.1362978z" stroke="#fffefc"/><path d="m18.4451936 15.6284043c.2791915 0 .7485319.2073829 2.0175319.8008085.730149.3418085 1.8871277.8818085 2.4052979 1.0225532.027-.5319575-.1309787-1.8026809-.2297872-2.6069362-.1729149-1.3873404-.2246171-1.8957447-.1395958-2.1611489.0867447-.2659788.4291277-.648 1.3850426-1.6711277.5532127-.5917021 1.4269787-1.52693618 1.7176596-1.97214894-.4969149-.18957447-1.7538511-.43257447-2.5494894-.58653192-1.3741277-.26540425-1.8744894-.37225532-2.1014043-.53655319-.2251915-.16429787-.4825532-.60721277-1.1587021-1.83140426-.3917872-.70946808-1.0122128-1.83025532-1.3465532-2.24502127-.3331915.41476595-.953617 1.53555319-1.3454042 2.24502127-.6767234 1.22419149-.9335107 1.66710639-1.1592766 1.83140426-.2263405.16429787-.7267022.27114894-2.1002554.53655319-.7967872.15395745-2.0531489.39695745-2.5512127.58653192.2918298.44521276 1.1655957 1.38044684 1.7188085 1.97214894.9559149 1.0231277 1.2971489 1.4051489 1.3833191 1.6699787.0867447.2665532.0350426.7761064-.1378723 2.1668936-.0999574.8031064-.2567872 2.070383-.2309362 2.6023405.5204681-.1407447 1.6762979-.6813192 2.4064468-1.0231277 1.2678511-.5928511 1.7366171-.800234 2.016383-.800234zm4.617 1.8578297v.4308511zm0 .8617022c-.4934681 0-1.4947659-.450383-2.9642553-1.1380213-.6250213-.2924043-1.4821277-.693383-1.674-.7209575-.1493617.0275745-1.0053192.4285532-1.6303404.7209575-1.4700639.6876383-2.4707873 1.1380213-2.9642553 1.1380213-.1482128 0-.2751703-.036766-.3762766-.1102979-.3923617-.2849362-.3642128-1.0012979-.0545745-3.4939149.0838723-.6859149.2004894-1.6240213.1683191-1.8158936-.0729574-.1327021-.7180851-.8220638-1.1885744-1.3258724-1.7165107-1.83657442-2.1605745-2.40012761-2.0106383-2.86142549.1505106-.4607234.8404468-.65546808 3.3089361-1.13227659.6767234-.13097872 1.6044894-.3096383 1.7762554-.40040426.1034042-.10914893.5595319-.93580851.8932978-1.53842553 1.216149-2.2013617 1.6142554-2.7970851 2.0991064-2.7970851.486 0 .8841064.59629787 2.1002553 2.7970851.3343405.60261702.7910426 1.4292766.9289149 1.5642766.1372979.06491489 1.0639149.24357447 1.7406383.37455319 2.4690639.47680851 3.1595745.67212766 3.3083617 1.13342553.1493617.46014894-.2935532 1.02370213-2.0106383 2.86027655-.4710638.5038086-1.1161915 1.1931703-1.2023617 1.3678086-.0183829.1487872.0970851 1.0851702.1826809 1.7693617.3096383 2.4960638.3366383 3.213-.055149 3.4979361-.1011063.0741064-.2274893.1108724-.3757021.1108724z" stroke="#ca9f12"/></g></g></svg>