<svg height="50" viewBox="0 0 50 50" width="50" xmlns="http://www.w3.org/2000/svg"><g fill="none" fill-rule="evenodd"><rect fill="#c9fde3" fill-rule="nonzero" height="50" rx="5" width="50"/><g transform="translate(11 13)"><path d="m26.768591 7.77935421h-25.65068004v-6.03522505c0-.34637965.28080724-.6276908.62671722-.6276908h8.11985323c.23874759 0 .45352249.1330724.56017609.34637964l1.8546967 3.70939335c.2969667.5944227.8948141.96379648 1.5606654.96379648h12.3018591c.3458904 0 .6267123.28131115.6267123.62671233zm0 15.43394329c0 .3463845-.2808219.6276957-.6267123.6276957h-24.39725052c-.34590998 0-.62671722-.2813112-.62671722-.6276957v-14.31603723h25.65068004zm-.6267123-18.19519574h-12.3018591c-.2397261 0-.454501-.1316047-.5611546-.34637965l-1.8546967-3.70792563c-.2969667-.5944227-.8953033-.96379648-1.55968689-.96379648h-8.11985323c-.96184931 0-1.74462818.78131116-1.74462818 1.74412916v21.46916834c0 .9628277.78277887 1.7446281 1.74462818 1.7446281h24.39725052c.9618395 0 1.7446184-.7818004 1.7446184-1.7446281v-16.45057734c0-.96183953-.7827789-1.7446184-1.7446184-1.7446184z" fill="#003232" stroke="#003232" stroke-width=".5"/><path d="m5.30528376 3.27739726c0 .64285714-.52347358 1.1648728-1.16585617 1.1648728-.64284246 0-1.16585616-.52201566-1.16585616-1.1648728 0-.64383562.5230137-1.16585127 1.16585616-1.16585127.64238259 0 1.16585617.52201565 1.16585617 1.16585127z" fill="#1c6e6e"/></g><g stroke="#1c6e6e"><g stroke-linecap="round"><path d="m18 23v8"/><path d="m17 24.5h2"/><path d="m17 26.5h2"/><path d="m17 28.5h2"/></g><circle cx="18" cy="33.5" r="2"/></g></g></svg>