<svg height="50" viewBox="0 0 50 50" width="50" xmlns="http://www.w3.org/2000/svg"><g fill="none" fill-rule="evenodd"><rect fill="#e5e5e5" fill-rule="nonzero" height="50" rx="5" width="50"/><g fill="#000" transform="translate(14 11)"><path d="m20.2187441 26.8266147h-8.6248935v-8.6032659h9.2186455v8.0165732c0 .3236656-.2661919.5866927-.593752.5866927zm-19.03124018-.5866927v-8.0165732h9.21884278v8.6032659h-8.62489349c-.3277574 0-.59394929-.2630271-.59394929-.5866927zm.59394929-25.06653667h18.43729089c.3275601 0 .593752.26302705.593752.58669266v5.51264928h-19.62499218v-5.51264928c0-.32366561.26619189-.58669266.59394929-.58669266zm9.81239739 7.27292225h9.2186455v8.60365582h-9.2186455zm-10.40634668 0h9.21884278v8.60365582h-9.21884278zm19.03124018-8.44630758h-18.43729089c-.98248289 0-1.78145321.78947112-1.78145321 1.76007799v24.47984401c0 .9706069.79897032 1.760078 1.78145321 1.760078h18.43729089c.9822856 0 1.7812559-.7894711 1.7812559-1.760078v-24.47984401c0-.97060687-.7989703-1.76007799-1.7812559-1.76007799z"/><path d="m18.6608958 24.2389653h-3.425625c-.3351111 0-.6059791.2710694-.6059791.6059791 0 .3349098.270868.6057778.6059791.6057778h3.425625c.3349098 0 .6059792-.270868.6059792-.6057778 0-.3349097-.2710694-.6059791-.6059792-.6059791z"/><path d="m18.6608958 22.0877292h-3.425625c-.3351111 0-.6059791.2710694-.6059791.6061805 0 .3349097.270868.6059792.6059791.6059792h3.425625c.3349098 0 .6059792-.2710695.6059792-.6059792 0-.3351111-.2710694-.6061805-.6059792-.6061805z"/><path d="m7.63626389 22.16375h-1.10723611v-1.1066319c0-.3349098-.27106945-.6059792-.60597917-.6059792s-.60577778.2710694-.60577778.6059792v1.1066319h-1.10683333c-.33490972 0-.60577778.2710694-.60577778.6059792 0 .3349097.27086806.6059791.60577778.6059791h1.10683333v1.1072361c0 .3349098.27086806.6057778.60577778.6057778s.60597917-.270868.60597917-.6057778v-1.1072361h1.10723611c.33490972 0 .60597917-.2710694.60597917-.6059791 0-.3349098-.27106945-.6059792-.60597917-.6059792z"/><path d="m18.8721528 12.1389167h-3.8481389c-.3349097 0-.6059792.2710694-.6059792.6061805 0 .3349097.2710695.6057778.6059792.6057778h3.8481389c.3351111 0 .6061805-.2708681.6061805-.6057778 0-.3351111-.2710694-.6061805-.6061805-.6061805z"/><path d="m6.78015972 12.5539792 1.17510417-1.1749028c.23663194-.236632.23663194-.6202778 0-.8567083-.23683333-.2368334-.62027778-.2368334-.85690972 0l-1.17510417 1.1749027-1.17490278-1.1749027c-.23643055-.2368334-.62007639-.2368334-.85690972 0-.23643056.2364305-.23643056.6200763 0 .8567083l1.17490278 1.1749028-1.17490278 1.1749027c-.23643056.2368334-.23643056.6202778 0 .8569098.23683333.2368333.62027778.2368333.85690972 0l1.17490278-1.1749028 1.17510417 1.1749028c.23663194.2368333.62007639.2368333.85690972 0 .23663194-.236632.23663194-.6200764 0-.8569098z"/><path d="m10.7171111 3.57122917.2964445-.14560417v2.16714583h-.4492987c-.100493 0-.1905138.03745834-.2622083.11015973-.0668611.07048611-.1015.15970138-.1015.25858333 0 .10049305.0358472.18990972.105125.2591875.069882.06867361.1592986.10472222.2585833.10472222h1.5611667c.098882 0 .1882986-.03544444.2585833-.10290972.0722987-.06927778.1101598-.15929861.1101598-.261 0-.09948611-.0366528-.18990972-.1083473-.26220833-.0708888-.06968056-.1609097-.10653473-.2603958-.10653473h-.3490069v-2.70324305c0-.10774306-.0396736-.20420834-.1143889-.27872222-.0745139-.07572223-.1709792-.11539584-.279125-.11539584h-.106132c-.071493 0-.1419791.01711806-.2112569.05276389l-.6863333.35726389c-.1379514.06988194-.2142778.19172222-.2142778.3425625 0 .10371528.03625.19474306.1047222.26341667.1023056.10250694.2225347.15567361.4474861.0598125z"/><path d="m14.9807153 4.17801389c-.1188195.08861111-.2799306.19816667-.4817222.32725694-.2390487.15426389-.4368125.29221528-.5888612.40881945-.1595.12304861-.296243.26623611-.4057986.42533333-.1202291.17238889-.18125.36471528-.18125.57174306 0 .11841666.0420903.22132639.1214375.29765277.0781389.07632639.1810486.11660417.2976528.11660417h1.9504514c.0988819 0 .1882986-.03544444.2585833-.10290972.0722986-.06927778.1101598-.15929861.1101598-.261 0-.09948611-.0366528-.18990972-.1083473-.26220833-.0710902-.06968056-.1609097-.10653473-.2603958-.10653473h-1.4445625c.0094653-.00825694.0203403-.01711805.0310139-.025375l.0004028-.00060416c.1166041-.09425.2918125-.21971528.5207916-.37236806.2670417-.174.4770903-.32181944.6432361-.453125.1721875-.13674305.3224237-.29825694.446882-.47990972.1337222-.19474306.2011875-.409625.2011875-.63920833 0-.23139584-.0604167-.43983334-.1792361-.61886806-.1178125-.177625-.2789236-.31738889-.479507-.41445833-.1975625-.09586111-.4176805-.14439584-.655118-.14439584-.4247292 0-.8248889.0924375-1.193632.27630556-.1230486.06686111-.1905139.18064583-.1905139.31960417 0 .097875.0344375.18346527.1000903.24911805.1023056.10311111.261.13090278.4011667.061625.2515347-.11197222.5213958-.16876389.8019305-.16876389.240257 0 .4112362.04390278.5089098.13090278.0928402.08357639.1385555.19575.1385555.34457639 0 .08800694-.0298055.17077778-.0912291.2519375-.0722987.09646528-.1639306.18688889-.2722778.26825z"/><path d="m18.6208194 5.51886111c-.1599027.07572222-.3610902.1141875-.5993333.1141875-.2724792 0-.5232083-.04551389-.749368-.13654167-.1661459-.06283333-.3073195-.02557638-.4047917.0815625-.0644445.06927778-.098882.15607639-.098882.25213889 0 .07975.0219514.15023611.0632362.20581945.039875.05578472.09425.09807639.1617152.12606944.3467917.14197917.7219792.21367361 1.1136806.21367361.4142569 0 .7604444-.09545833 1.028493-.28295139.2865764-.19816666.4319792-.48232638.4319792-.84381944 0-.319-.0922361-.56590278-.2732847-.73426389-.0793472-.07411111-.1647361-.13613889-.2545556-.18648611.069882-.05095139.1331181-.10955556.1901111-.17460417.1401667-.16090972.2110556-.3788125.2110556-.64806944 0-.33913889-.1276806-.60597917-.3792153-.79306945-.2372361-.17802777-.5703333-.26804861-.989625-.26804861-.3667291 0-.7272153.09304167-1.0740069.27690973-.1153959.06404166-.1792361.17238888-.1792361.30429861 0 .09646527.03625.18104861.1025069.24327777.0998889.09465278.2205208.12969445.3910972.06102084.2177014-.10129861.4597709-.15285417.7189584-.15285417.2295833 0 .401368.03846528.5089097.1141875.0940486.06565278.13775.148625.13775.25979167 0 .14922916-.059007.24992361-.1915208.32604861-.1540625.0888125-.3882778.13392361-.7278195.13392361-.0966667 0-.1846736.03665278-.2569722.10834722-.0696806.07028472-.1065347.15909722-.1065347.2555625 0 .09767361.0374583.18628472.107743.25677084.0710903.07048611.1590972.10713888.2557639.10713888h.0803542c.9656597 0 .9656597.36451389.9656597.48454167 0 .14338889-.0565903.23441667-.1838681.2954375z"/></g></g></svg>