<svg height="50" viewBox="0 0 50 50" width="50" xmlns="http://www.w3.org/2000/svg"><g fill="none" fill-rule="evenodd"><rect fill="#d7f4e8" fill-rule="nonzero" height="50" rx="5" width="50"/><g stroke-linecap="round" stroke-linejoin="round" transform="translate(13 13)"><path d="m21.9806763 14.5963366c0 .1747987-.0057568.3495974-.0167472.5243961-.3213365 5.0210145-5.2 9.8782206-10.9636473 9.8782206-5.96409017 0-11.0002818-4.7682367-11.0002818-10.8333333 0-6.06509665 5.22093398-11.12745575 10.422504-11.12745575" stroke="#107d51" stroke-width="1.851852"/><g stroke="#39aa7c" stroke-width="1.388889"><path d="m25 13.6070853h-13.6070853v-13.6070853c7.5163446 0 13.6070853 6.09074074 13.6070853 13.6070853z"/><path d="m16.626409 1.046699-5.233494 5.233494"/><path d="m19.007649 2.328905-7.614734 7.614734"/><path d="m21.012077 3.987923-9.619162 9.619162"/><path d="m22.671095 5.992351-7.614734 7.614734"/><path d="m23.953301 8.373591-5.233494 5.233494"/></g></g></g></svg>