<svg height="50" viewBox="0 0 50 50" width="50" xmlns="http://www.w3.org/2000/svg"><g fill="none" fill-rule="evenodd"><rect fill="#dadada" fill-rule="nonzero" height="50" rx="5" width="50"/><path d="m36.8125805 33.8204327c0 1.0955118-.9218909 2.0125301-2.0228423 2.0125301-1.1009515 0-2.0227842-.9170183-2.0227842-2.0125301 0-1.0955119.9218327-2.0128189 2.0227842-2.0128189 1.1009514 0 2.0228423.917307 2.0228423 2.0128189zm-4.0456265-8.7883561c0-1.0958007.9215715-2.0131077 2.0227842-2.0131077 1.1439388 0 2.0817358.9869138 2.0199107 2.1231499-.0574713 1.0527658-.9616273 1.9013326-2.0195914 1.9013326-1.1009515 0-2.0231035-.9152853-2.0231035-2.0113748zm-5.5790925 8.1982874c-.2652965.1770495-.637089.2379915-.9407286.3101976-.4037209.0979116-.8106927.176183-1.2213799.237125-.8586144.1273717-1.725298.2047767-2.5917204.2518551-1.948507.1059987-3.9182319.0849145-5.861224-.1028215-.9291182-.0895357-1.8959701-.1958231-2.7896478-.4765607-.1210669-.037836-.5933179-.1392135-.5933179-.2951788v-2.7975554c2.2120619.729571 4.6905814.7590311 6.9990383.7590311 2.3084279 0 4.7869183-.0294601 6.9989803-.7590311zm-.2740043-16.5069057c-.9740793.3832414-2.0872507.4866695-3.1214426.5874404-1.1967369.116714-2.4012817.1600377-3.6032722.1600377-1.2022517 0-2.4071158-.0433237-3.6041139-.1600377-1.0339307-.1007709-2.147073-.204199-3.1208911-.5874404.72913-.2865141 1.5427253-.3965563 2.3145523-.4964896 1.4608433-.1897578 2.9382894-.2506998 4.4104527-.2506998 1.4719022 0 2.9493482.060942 4.4099303.2506998.7720592.0999333 1.5856545.2099755 2.3147845.4964896-.0351213.0138635-.8350744-.3281048 0 0zm-13.4131472 5.4030425c2.1412678.6798932 4.5602553.685092 6.7871494.6793155 1.1894514-.0031771 2.3801218-.042746 3.5646387-.1507665 1.1160449-.1016662 2.2814338-.2333703 3.3353634-.6348365v2.8085308c0 .3382136-1.4753562.5279714-1.774642.5773604-1.0565419.1744501-2.1246651.2792934-3.1948781.326083-2.2355729.0979116-4.5019133.0756721-6.7203609-.2426127-.7073606-.1013774-1.7081728-.1730059-2.3081376-.5938234-.0397655-.0649856 0-.2778493 0-.3509219v-2.5246162c.1022001.0387025.2066932.0733614.3108671.1062875zm-.0005805-4.1541648c2.1447219.6793155 4.5568012.6859585 6.7877299.6798932 1.1897707-.0031771 2.3807023-.0430349 3.5657998-.1507665 1.1157836-.1013774 2.2808533-.2339479 3.3342023-.635703v2.8096861c0 .354099-1.5589798.5395244-1.8648835.5909352-1.0249327.1715618-2.0660908.2654298-3.1043464.3104865-2.2347021.0976227-4.5001426.075672-6.7180098-.2414574-.7076798-.1013775-1.7108141-.1724283-2.3107789-.592957-.0397655-.0649855 0-.278167 0-.3512108v-2.5254826c.1019098.0389624.206403.0733615.3102866.1065763zm13.687732 8.2023309v2.8117078c0 .382115-1.9209325.602777-2.2126425.6461007-1.1633571.1727172-2.3409078.2469451-3.515614.283337-2.3127818.0670073-4.709158.0323484-6.980723-.4485446-.4118772-.0872251-.861488-.1692513-1.2309584-.3777827-.1109078-.0626749-.0580807-.2723616-.0580807-.3873138v-2.5275044c1.053378.4017551 2.2181864.5337479 3.3336217.6354142 1.2179258.1111975 2.4428177.1510553 3.6656778.1510553 1.184575 0 2.3705723-.0384137 3.5510546-.1406576 1.1525885-.100511 2.3595134-.2307709 3.4476645-.6458119zm5.5790925-9.9933325c0-1.0955118.9218327-2.0128189 2.0227842-2.0128189 1.1009514 0 2.0228423.9173071 2.0228423 2.0128189 0 1.0955119-.9218909 2.0125301-2.0228423 2.0125301-1.1009515 0-2.0227842-.9170182-2.0227842-2.0125301zm5.233046 8.8507422c0-.9092199-.4005281-1.7884021-1.084697-2.3903127-.3218679-.2830481-.7001041-.5013996-1.1073371-.637436-.316382-.105421-.4243293-.0127082-.4243293-.3301265v-2.3088642c0-.0696067.788604-.3000888.9192205-.3696955 1.6507305-.8809152 2.1993196-3.0523277 1.1479733-4.5989547-1.023133-1.5059606-3.1736601-1.8574313-4.6214998-.7431458-1.4704218 1.1316149-1.6602801 3.3376575-.3932716 4.6959998.2908393.3119306.6440551.5655186 1.0335824.741124.1892487.0852033.7265176.1207287.7265176.3301266v2.3363024c0 .2680293-.4132994.2336592-.6391207.3275272-.844682.3512107-1.5136994 1.0634523-1.807151 1.9267491-.0783989.2313486-.007866.4303488-.2618424.4303488h-3.0738402c-.0748577 0-.0388947-.1083093-.0388947-.1706954v-7.2093518c0-.3179959.0090271-.6097088-.2101473-.8705174-.3404735-.4055098-.9090904-.6033547-1.4004695-.7503665-1.4847025-.4445011-3.0851602-.541835-4.6255925-.6062429-1.3609942-.0568984-2.7261102-.0548767-4.0865239.0080871-1.5270803.0710509-3.1266963.1700888-4.5893102.6449454-.4658363.1513441-1.0188082.3613197-1.3093572.7804042-.1851851.2674516-.1515151.581404-.1515151.8887134v16.0690476c0 1.039191 1.2818117 1.3499663 2.0933461 1.5261494 1.1926732.2587868 2.417304.3780714 3.6346492.4468117 2.2889805.1293934 4.6011527.1033992 6.8785229-.173006.9044462-.1097534 1.8503995-.2449233 2.710175-.5620527.5537846-.2041991 1.0562225-.5490557 1.0562225-1.1882246v-7.5972433c0-.0906909.0632764-.0548767.1489028-.0548767h3.0738402c.0598223 0 .2638742.7194622.3219259.8344144.2112794.4196622.5160801.7910907.8864503 1.0816483.3450886.2709175.7453554.4699177 1.1705845.5808263.2862241.0748056.2191453.100511.2191453.3847145v1.7855139c0 .0652743.0438291.3399466 0 .3928015-.4612211.0863585-.9015436.274961-1.2820438.548478-1.5151507 1.0882912-1.7694464 3.3006879-.5337859 4.697155 1.2083182 1.3658518 3.3846783 1.436325 4.6783616.1490336 1.3198065-1.3129968 1.2138911-3.5323254-.224341-4.7162175-.3314755-.2729393-.7178389-.4788713-1.1302676-.6013329-.3361196-.0993557-.3204457-.0361031-.3204457-.3590091v-2.2288597c0 .0491002 1.0971491-.4260163 1.1943858-.4910019.7491868-.5013996 1.2641059-1.3106862 1.3903394-2.2011325.0211889-.1484559.0316382-.2983559.0316382-.4482559z" fill="#333"/></g></svg>