<svg height="50" viewBox="0 0 50 50" width="50" xmlns="http://www.w3.org/2000/svg"><g fill="none" fill-rule="evenodd"><rect fill="#ffefdb" fill-rule="nonzero" height="50" rx="5" width="50"/><g fill="#ce875c"><path d="m18.2780887 27.0728748h15.9053866v-6.6273546h-15.9053866zm16.5682354 1.3253198h-17.2310465c-.3661919 0-.6628866-.2962791-.6628866-.6624709v-7.9530524c0-.3661918.2966947-.6628488.6628866-.6628488h17.2310465c.3657762 0 .6628489.296657.6628489.6628488v7.9530524c0 .3661918-.2970727.6624709-.6628489.6624709z" transform="matrix(.70710678 -.70710678 .70710678 .70710678 -9.117338 25.506816)"/><path d="m32.209274 19.1062141h2.6513576c.730532 0 1.3253576-.5944476 1.3253576-1.3256976v-3.9759593c0-.73125-.5948256-1.3256977-1.3253576-1.3256977h-2.6513576zm2.6513576 1.3253198h-3.3142064c-.3658139 0-.6628488-.2962791-.6628488-.6624709v-7.9530524c0-.3661918.2970349-.6628488.6628488-.6628488h3.3142064c1.4613663 0 2.6506773 1.1892733 2.6506773 2.6513954v3.9759593c0 1.4617441-1.189311 2.6510174-2.6506773 2.6510174z" transform="matrix(.70710678 -.70710678 .70710678 .70710678 -1.150677 28.806715)"/><path d="m14.3657225 32.8972906 6.3718517 2.9408721v-5.8817442zm7.0347383 4.639186c-.0948924 0-.1893692-.020029-.2777616-.060843l-8.6155233-3.9767151c-.2350959-.1084593-.3854651-.3431395-.3854651-.6016279 0-.2581105.1503692-.4935465.3854651-.60125l8.6155233-3.977093c.2048256-.0948547.4440407-.0778489.6348837.0438372.1904651.1220639.305689.3321802.305689.5581686v7.9530523c0 .2259884-.1152239.4361046-.305689.5577907-.1084593.0695349-.2327907.1046802-.3571221.1046802z" transform="matrix(.70710678 -.70710678 .70710678 .70710678 -18.255608 21.721604)"/></g><path d="m31.8245023 23.2504272h-12.5926163c-.365436 0-.6628488-.2970349-.6628488-.6624709 0-.3665698.2974128-.6628488.6628488-.6628488h12.5926163c.3658139 0 .6624709.296279.6624709.6628488 0 .365436-.296657.6624709-.6624709.6624709z" fill="#e3a57f" transform="matrix(.70710678 -.70710678 .70710678 .70710678 -8.494984 24.666829)"/><path d="m33.6986539 25.1247678h-12.5926163c-.3654361 0-.6628489-.296657-.6628489-.6628489 0-.3658139.2974128-.6628488.6628489-.6628488h12.5926163c.3658139 0 .6624709.2970349.6624709.6628488 0 .3661919-.296657.6628489-.6624709.6628489z" fill="#e3a57f" transform="matrix(.70710678 -.70710678 .70710678 .70710678 -9.271283 26.540981)"/><path d="m34.1978546 17.7802206c-.3666076 0-.6628867-.296657-.6628867-.6628488v-2.6502617c0-.3665697.2962791-.6628488.6628867-.6628488.3658139 0 .662811.2962791.662811.6628488v2.6502617c0 .3661918-.2969971.6628488-.662811.6628488z" fill="#e3a57f" transform="matrix(.70710678 -.70710678 .70710678 .70710678 -1.150492 28.806949)"/><path d="m17.192794 34.9912833c-.1727035 0-.3457849-.0672674-.4757849-.2018023-.2543314-.2630233-.247907-.6828779.0154942-.9375872.4784302-.4625582.7104651-.9326745.7104651-1.4379361 0-.8725872-.7036628-1.5785174-.7104651-1.5860756-.2634012-.2539535-.2698256-.6738081-.0154942-.9364535.2543314-.2626453.6745639-.2702034.9372093-.0154941.0453488.0442151 1.1144477 1.0955523 1.1144477 2.5380232 0 .8703198-.3745437 1.6748837-1.1144477 2.3910175-.1288663.1243313-.2947675.1863081-.4614244.1863081z" fill="#ce875c" transform="matrix(.70710678 -.70710678 .70710678 .70710678 -17.698691 21.95244)"/></g></svg>