<svg height="50" viewBox="0 0 50 50" width="50" xmlns="http://www.w3.org/2000/svg"><g fill="none" fill-rule="evenodd"><rect fill="#f8ebeb" fill-rule="nonzero" height="50" rx="5" width="50"/><g fill="#300"><path d="m18.1848933 27.3139133h17.1288779v-7.1371512h-17.1288779zm17.8427152 1.4272674h-18.5565117c-.3943604 0-.7138779-.3190698-.7138779-.7134302v-8.5648256c0-.3943605.3195175-.7138372.7138779-.7138372h18.5565117c.3939127 0 .7138372.3194767.7138372.7138372v8.5648256c0 .3943604-.3199245.7134302-.7138372.7134302z" transform="matrix(.70710678 -.70710678 .70710678 .70710678 -8.955647 25.869423)"/><path d="m33.1877084 18.7344325h2.8553081c.7867268 0 1.4273082-.6401744 1.4273082-1.4276744v-4.2818023c0-.7875-.6405814-1.4276745-1.4273082-1.4276745h-2.8553081zm2.8553081 1.4272675h-3.5691453c-.3939535 0-.7138372-.3190698-.7138372-.7134303v-8.5648256c0-.3943604.3198837-.7138372.7138372-.7138372h3.5691453c1.5737791 0 2.8545756 1.2807558 2.8545756 2.8553489v4.2818023c0 1.574186-1.2807965 2.8549419-2.8545756 2.8549419z" transform="matrix(.70710678 -.70710678 .70710678 .70710678 -.376166 29.42316)"/><path d="m13.9715759 33.586361 6.8619942 3.167093v-6.334186zm7.5758721 4.9960465c-.1021919 0-.203936-.0215698-.2991279-.0655232l-9.2782558-4.2826163c-.2531803-.1168023-.4151163-.3695349-.4151163-.647907 0-.2779651.161936-.5315116.4151163-.6475l9.2782558-4.2830233c.2205814-.1021511.4781977-.0838372.6837209.0472093.2051163.1314535.3292035.3577326.3292035.6011047v8.5648256c0 .2433721-.1240872.4696511-.3292035.6006977-.1168023.0748837-.2506977.1127325-.384593.1127325z" transform="matrix(.70710678 -.70710678 .70710678 .70710678 -18.796861 21.79304)"/><path d="m32.7733388 23.1974312h-13.5612791c-.3935465 0-.7138372-.3198837-.7138372-.7134302 0-.3947674.3202907-.7138372.7138372-.7138372h13.5612791c.3939535 0 .7134302.3190698.7134302.7138372 0 .3935465-.3194767.7134302-.7134302.7134302z" transform="matrix(.70710678 -.70710678 .70710678 .70710678 -8.28542 24.964822)"/><path d="m34.7916559 25.2159518h-13.5612791c-.3935465 0-.7138372-.3194767-.7138372-.7138372 0-.3939535.3202907-.7138372.7138372-.7138372h13.5612791c.3939535 0 .7134302.3198837.7134302.7138372 0 .3943605-.3194767.7138372-.7134302.7138372z" transform="matrix(.70710678 -.70710678 .70710678 .70710678 -9.121434 26.983139)"/><path d="m35.3292566 17.3064395c-.3948081 0-.7138779-.3194767-.7138779-.7138372v-2.8541279c0-.3947675.3190698-.7138372.7138779-.7138372.3939535 0 .7137965.3190697.7137965.7138372v2.8541279c0 .3943605-.319843.7138372-.7137965.7138372z" transform="matrix(.70710678 -.70710678 .70710678 .70710678 -.375967 29.423411)"/><path d="m17.0161144 35.8414301c-.1859883 0-.3723837-.0724419-.5123837-.2173256-.2738953-.2832558-.2669767-.735407.0166861-1.0097093.5152325-.4981395.7651162-1.0044186.7651162-1.5485465 0-.9397093-.7577907-1.6999419-.7651162-1.7080814-.2836628-.2734884-.2905814-.7256396-.0166861-1.0084884.2738954-.2828488.7264535-.2909884 1.0093023-.016686.0488373.0476162 1.2001745 1.1798255 1.2001745 2.7332558 0 .9372674-.4033547 1.8037209-1.2001745 2.5749418-.138779.1338954-.3174418.2006396-.4969186.2006396z" transform="matrix(.70710678 -.70710678 .70710678 .70710678 -18.197105 22.041633)"/></g><path d="m29.2157136 35.4142136v-1.35h-2.4805v-1.304l1.981-.001v-1.35l-1.981.001v-1.283l2.4805-.0005v-1.35h-4.3065v6.6375zm2.808 0v-1.998h.7245c.504 0 .9435-.10575 1.3185-.31725s.666-.495.873-.8505.3105-.75075.3105-1.18575-.1035-.825-.3105-1.17-.498-.61725-.873-.81675-.8145-.29925-1.3185-.29925h-2.5425v6.6375zm-.0005-5.287.5405-.0005c.15 0 .29025.03075.42075.09225s.23625.16125.31725.29925.1215.3195.1215.5445-.0405.4125-.1215.5625-.18675.26175-.31725.33525-.27075.11025-.42075.11025l-.5405.0005zm6.4175 5.404c.504 0 .95325-.075 1.34775-.225s.70425-.36975.92925-.65925.3375-.64275.3375-1.05975c0-.399-.08475-.726-.25425-.981s-.40575-.46725-.70875-.63675-.6555-.32475-1.0575-.46575c-.267-.096-.50625-.186-.71775-.27s-.37725-.17475-.49725-.27225-.18-.21075-.18-.33975c0-.183.07125-.3225.21375-.4185s.34575-.144.60975-.144c.267 0 .45525.0675.56475.2025s.16425.3.16425.495v.1395h1.8135v-.225c0-.438-.1125-.8055-.3375-1.1025s-.53025-.522-.91575-.675-.82275-.2295-1.31175-.2295c-.471 0-.89925.078-1.28475.234s-.69225.38025-.92025.67275-.342.64425-.342 1.05525c0 .399.0885.73275.2655 1.00125s.40575.48675.68625.65475.57675.3015.88875.4005c.288.09.54975.1845.78525.2835s.423.204.5625.315.20925.231.20925.36c0 .174-.07425.29925-.22275.37575s-.35175.11475-.60975.11475c-.267 0-.46575-.0705-.59625-.2115s-.19575-.3165-.19575-.5265v-.198h-1.8135v.234c0 .462.11325.849.33975 1.161s.53475.54675.92475.70425.831.23625 1.323.23625z" fill="#913d3d" fill-rule="nonzero" transform="matrix(.70710678 -.70710678 .70710678 .70710678 -13.036244 32.72315)"/></g></svg>