<svg height="50" viewBox="0 0 50 50" width="50" xmlns="http://www.w3.org/2000/svg"><g fill="none"><rect fill="#f7ffe5" height="50" rx="5" width="50"/><path d="m16.1679688 40.921875c.2994791 0 .5644531-.0390625.7949218-.1171875.2304688-.078125.421875-.1764323.5742188-.2949219.1523437-.1184896.266276-.2421875.3417968-.3710937.0755209-.1289063.1132813-.2415365.1132813-.3378907 0-.109375-.0338542-.1940104-.1015625-.2539062s-.15625-.0898438-.265625-.0898438c-.1015625 0-.1796875.0234376-.234375.0703126-.1328125.125-.2408854.2239583-.3242188.296875-.0833333.0729166-.1744791.141276-.2734374.2050781-.0989584.0638021-.2011719.1106771-.3066407.140625-.1054687.0299479-.2220052.0449219-.3496093.0449219-.1901042 0-.3639323-.046875-.5214844-.140625s-.2838542-.233073-.3789063-.4179688-.1438802-.3984375-.1464843-.640625h2.0859374c.2786459 0 .4947917-.0397135.6484376-.1191406.1536458-.0794271.2304687-.2532552.2304687-.5214844 0-.2890625-.0742187-.5729167-.2226563-.8515625-.1484374-.2786458-.3717447-.5058594-.6699218-.6816406-.2981771-.1757813-.655599-.2636719-1.0722656-.2636719-.3203126 0-.6119792.0514323-.875.1542969-.2630209.1028646-.484375.250651-.6640626.4433593-.1796874.1927084-.3164062.4238282-.4101562.6933594-.09375.2695313-.140625.561849-.140625.8769532 0 .6692708.1901042 1.1992187.5703125 1.5898437s.9127604.5859375 1.5976563.5859375zm.8554687-2.5117188h-1.9335937c.0364583-.359375.1399739-.6308593.3105468-.8144531.1705729-.1835937.3886719-.2753906.6542969-.2753906.2786458 0 .5032552.0904948.6738281.2714844s.2688802.453776.2949219.8183593zm2.5859375 2.5117188c.1666667 0 .3046875-.0598958.4140625-.1796875s.1640625-.2955729.1640625-.5273437v-1.6210938h1.0625c.7109375 0 1.2460938-.1503906 1.6054688-.4511719.359375-.3007812.5390624-.7428385.5390624-1.3261719 0-.2734374-.0442708-.5195312-.1328124-.7382812-.0885417-.21875-.218099-.4036458-.3886719-.5546875s-.3730469-.2591146-.6074219-.3242187c-.2369792-.0677084-.5755208-.1015626-1.015625-.1015626h-1.4882812c-.2552084 0-.4414063.0546876-.5585938.1640626s-.1757812.2916666-.1757812.546875v4.4140624c0 .2291667.0533854.4029948.1601562.5214844s.2473958.1777344.421875.1777344zm1.359375-3.203125h-.78125v-1.75h.78125c.5182292 0 .8606771.0846354 1.0273438.2539062.1484374.1588542.2226562.3645834.2226562.6171876 0 .2109374-.0481771.3815104-.1445312.5117187-.0963542.1302083-.2363282.2239583-.4199219.28125-.1835938.0572917-.4121094.0859375-.6855469.0859375zm5.8984375 3.203125c.3697917 0 .6927083-.0442708.96875-.1328125s.5182292-.2291667.7265625-.421875c.2421875-.2265625.406901-.4895833.4941406-.7890625s.1308594-.6731771.1308594-1.1210938v-2.7539062c0-.2369792-.0540365-.4134115-.1621094-.5292969s-.2493489-.1738281-.4238281-.1738281-.3138021.0579427-.4179687.1738281c-.1041667.1158854-.15625.2923177-.15625.5292969v2.8398438c0 .4895833-.09375.8548177-.28125 1.0957031s-.5078126.3613281-.9609376.3613281c-.328125 0-.5833333-.0592448-.765625-.1777344-.1822916-.1184896-.3092447-.2851562-.3808593-.5-.0716146-.2148437-.1074219-.4824218-.1074219-.8027344v-2.8164062c0-.234375-.0527344-.4101562-.1582031-.5273438-.1054688-.1171874-.2480469-.1757812-.4277344-.1757812-.171875 0-.3105469.0585938-.4160156.1757812-.1054688.1171876-.1582031.2929688-.1582031.5273438v2.7539062c0 .4322917.046875.8040365.140625 1.1152344s.2408854.5664063.4414062.765625c.2005208.1992188.4596354.3463542.7773438.4414063.3177083.0950521.6966145.1425781 1.1367187.1425781zm6.0195313-.0976562c.3020833 0 .5664062-.014974.7929687-.0449219s.4270833-.0813802.6015625-.1542969c.2786458-.1223958.5-.311849.6640625-.5683594s.2460937-.5449218.2460937-.8652344c0-.6927083-.376302-1.1588541-1.1289062-1.3984374.5729167-.265625.859375-.6848959.859375-1.2578126 0-.1666666-.0273438-.3248697-.0820312-.4746093-.0546876-.1497396-.1341146-.2864584-.2382813-.4101563s-.2239583-.2259114-.359375-.3066406c-.1588542-.0963542-.3385417-.1614583-.5390625-.1953125s-.4375-.0507813-.7109375-.0507813h-1.8554687c-.2473959 0-.4264323.0553386-.5371094.1660157s-.1660156.2923177-.1660156.5449219v4.3046874c0 .2473959.0540364.4277344.1621093.5410157.1080729.1132812.2884115.1699219.5410157.1699219zm-.2304688-3.375h-1.0625v-1.4804688h.9414062c.421875 0 .7356771.047526.9414063.1425781s.3085937.2871094.3085937.5761719c0 .1354167-.032552.2578125-.0976562.3671875-.0833333.1536458-.203776.2578125-.3613281.3125s-.3808594.0820313-.6699219.0820313zm.1835938 2.5039062h-1.2460938v-1.671875h1.2070312c.4036459 0 .7070313.0651042.9101563.1953125s.3046875.3398437.3046875.6289063c0 .5651041-.3919271.8476562-1.1757812.8476562z" fill="#85b916"/><path d="m11.9955473 19.5357328-7.53840444-7.5401855 7.53840444-7.53840444 2.5139889 2.51265306-5.02708722 5.02575138 2.51354362 2.5135436 7.5397402-7.53840444-6.567718-6.567718c-.5361039-.53699443-1.4061595-.53699443-1.9427087 0l-10.62322818 10.62189244c-.53565863.5369944-.53565863 1.40705 0 1.9435992l10.62278298 10.6218924c.5365491.5365492 1.40705.5365492 1.9427087 0l10.6227829-10.6223377c.5361039-.5365491.5361039-1.4070501 0-1.9427087l-1.5424119-1.54107604z" fill="#86b918" transform="translate(13 7)"/></g></svg>