<svg height="50" viewBox="0 0 50 50" width="50" xmlns="http://www.w3.org/2000/svg"><g fill="none" fill-rule="evenodd"><rect fill="#f7e4e0" fill-rule="nonzero" height="50" rx="5" width="50"/><path d="m34.5884034 11.5651569c1.0987062-.1136593 2.1394675.2287802 2.9339671.8743111.7944996.645531 1.3427374 1.5941532 1.4563967 2.6928594l.0212328 18.3237486c0 1.1045695-.4477153 2.1045695-1.1715729 2.8284271s-1.7238576 1.1715729-2.8284271 1.1715729l-19.4115966-1.9867501c-1.0194503-.1054604-1.9165512-.5877069-2.5587894-1.2998109-.6422383-.712104-1.029614-1.6540656-1.029614-2.6789563v-13.9811174c0-1.0248907.3873757-1.9668523 1.029614-2.6789563.6422382-.712104 1.5393391-1.1943505 2.5587894-1.2998109z" stroke="#fd3708" stroke-width="2"/><path d="m21.746582 30v-4.5629883h4.4384766v-1.4355469h-4.4384766v-3.149414h5.2001953v-1.5307617h-6.8188476v10.6787109zm8.9282227 0v-1.4428711h-.5273438c-.3808593 0-.571289-.1733398-.571289-.5200195v-8.7158203h-1.5307617v8.8330078c0 .6689453.1904296 1.1450195.571289 1.4282226.3613281.2783203.8203125.4174805 1.3769531.4174805z" fill="#2b1812" fill-rule="nonzero"/></g></svg>