<svg height="50" viewBox="0 0 50 50" width="50" xmlns="http://www.w3.org/2000/svg"><g fill="none" fill-rule="evenodd"><rect fill="#fff" fill-opacity=".01" height="50" rx="5" width="50"/><path d="m23.5625 3.25h-9.75l-2.7741797-2.77417969c-.3046875-.3046875-.7180469-.47582031-1.14917968-.47582031h-7.45164062c-1.34621094 0-2.4375 1.09128906-2.4375 2.4375v14.625c0 1.3462109 1.09128906 2.4375 2.4375 2.4375h21.125c1.3462109 0 2.4375-1.0912891 2.4375-2.4375v-11.375c0-1.34621094-1.0912891-2.4375-2.4375-2.4375zm0 13.8125h-21.125v-14.625h7.11546875l2.77417965 2.77417969c.3046875.3046875.7180469.47582031 1.1491797.47582031h10.0861719z" fill="#505356" fill-rule="nonzero" transform="translate(12 15)"/></g></svg>