<svg height="50" viewBox="0 0 50 50" width="50" xmlns="http://www.w3.org/2000/svg"><g fill="none" fill-rule="evenodd"><g fill-rule="nonzero"><rect fill="#daffed" height="50" rx="5" width="50"/><path d="m19.9875 42.143c.3813333 0 .7095-.0375833.9845-.11275s.5023333-.1695833.682-.28325.3180833-.2291667.41525-.3465.1585833-.2163333.18425-.297l.2255.8965h1.034v-4.2295h-3.3165v1.5345h1.353v.308c-.0293333.121-.0999167.24475-.21175.37125s-.2621667.2328333-.451.319-.41525.12925-.67925.12925c-.1833333 0-.3675833-.03575-.55275-.10725s-.3538333-.1961667-.506-.374-.275-.4271667-.3685-.748-.14025-.7305833-.14025-1.22925c0-.6636667.0825-1.1760833.2475-1.53725s.3703333-.61325.616-.75625.4895-.2145.7315-.2145c.176 0 .3355.0293333.4785.088s.2649167.1384167.36575.23925.1778333.2154167.231.34375.07975.2621667.07975.4015v.066h2.156v-.066c0-.264-.0595833-.5555-.17875-.8745s-.3098333-.62425-.572-.91575-.6031667-.53075-1.023-.71775-.93225-.2805-1.53725-.2805c-.715 0-1.3630833.1613333-1.94425.484s-1.0440833.7975-1.38875 1.4245-.517 1.3988333-.517 2.3155.1604167 1.6839167.48125 2.30175.7544167 1.0835 1.30075 1.397 1.1531667.47025 1.8205.47025zm6.93-.143v-8.1125h-2.189v8.1125zm3.3935 0v-3.107l2.6675-.0005v-1.6555h-2.6675v-1.699l3.157-.0005v-1.65h-5.368v8.1125z" fill="#8bc8aa" opacity=".9"/></g><g transform="translate(12 9)"><path d="m14.5698427 15.9521277 3.6424607-3.6424607 7.8052729 7.8052729" stroke="#93d3b3" stroke-linecap="round" stroke-linejoin="round" stroke-width="2.601758"/><path d="m0 20.1149399 9.10615171-10.40703056 9.10615169 10.40703056" stroke="#44996f" stroke-linecap="round" stroke-linejoin="round" stroke-width="2.601758"/><path d="m24.7166975 3.90263645c0 2.1555562-1.7470802 3.90263645-3.9026364 3.90263645s-3.9026365-1.74708025-3.9026365-3.90263645 1.7470803-3.90263645 3.9026365-3.90263645 3.9026364 1.74708025 3.9026364 3.90263645z" fill="#8bc8aa"/></g></g></svg>