<svg height="50" viewBox="0 0 50 50" width="50" xmlns="http://www.w3.org/2000/svg"><g fill="none" fill-rule="evenodd"><rect fill="#f7f9fa" height="50" rx="5" width="50"/><path d="m14.4492188 3.82066277-3.2773438-3.27095517c-.3515625-.35087719-.828125-.5497076-1.32421875-.5497076h-7.97265625c-1.03515625.00389864-1.875.84210526-1.875 1.87524366v16.21832364c0 1.0331384.83984375 1.871345 1.875 1.871345h11.25c1.0351562 0 1.875-.8382066 1.875-1.871345v-12.94736847c0-.49512671-.1992188-.97465887-.5507812-1.32553606zm-1.4765626 1.17348928h-2.9726562v-2.9668616zm-11.0976562 13.09941525v-16.21832364h6.25v4.0545809c0 .51851852.41796875.93567252.9375.93567252h4.0625v11.22807022z" fill="#637282" fill-rule="nonzero" transform="translate(17 15)"/></g></svg>