<svg height="50" viewBox="0 0 50 50" width="50" xmlns="http://www.w3.org/2000/svg"><g fill="none" fill-rule="evenodd"><rect fill="#e0e0e0" fill-rule="nonzero" height="50" rx="5" width="50"/><path d="m18.7590295 27.5387592c.7291155-1.6965602 1.4831081-3.4508599 2.3966216-4.7266585.7014742-.9791154 1.4261671-1.5872236 2.2280098-1.8587223v8.1437346h-5.3049754c.2313268-.5141277.4563882-1.0374693.680344-1.5583538zm8.917199-4.7266585c.9135749 1.2757986 1.6675676 3.0300983 2.3968059 4.7266585.2238943.5208845.4490172 1.0442261.680344 1.5583538h-5.4041155v-8.1756757c.8413391.2542998 1.5967445.8716217 2.3269656 1.8906634zm12.1168305 6.9588452-2.6246929-1.6984029c-.1133907-.0737101-.257801-.0792383-.3763514-.014742-.1186118.0644963-.1924447.1885749-.1924447.3237101v.7156019h-5.0365479c-.2785012-.6068796-.5473587-1.2321867-.8128378-1.8495086-1.3671376-3.1812039-2.7764128-6.4588452-5.4009214-7.0894349v-3.7239557h.7156634c.1350123 0 .2592137-.073833.3237715-.1923833.0644963-.1186118.0590295-.2630221-.0143735-.3763514l-1.6984643-2.6246929c-.0679362-.104914-.1843981-.1683046-.3093981-.1683046s-.2415233.0633906-.309398.1683046l-1.6985258 2.6246929c-.0733415.1133293-.0788084.2577396-.0143121.3763514.0644964.1185503.1886978.1923833.3237101.1923833h.7157248v3.7488943c-2.5612408.6879607-3.952027 3.9238329-5.3019041 7.0644963-.2654177.6179361-.5342752 1.242629-.8127765 1.8495086h-6.9004299c-.2035627 0-.3685504.1652334-.3685504.3685504v1.2285012c0 .2039312.1649877.3685504.3685504.3685504h5.8999385c-.1877764.3230958-.381511.6296069-.5833538.911554-.9899877 1.3820639-2.0259213 2.0257986-3.2601965 2.0257986v.7371007c2.1313882 0 3.5412162-1.5835442 4.6894349-3.6744533h6.2692874v6.5657248c0 .2033231.1649877.3685504.3685504.3685504h1.2285012c.2035013 0 .3685504-.1652273.3685504-.3685504v-6.5657248h6.3684275c1.1482187 2.0909091 2.5581081 3.6744533 4.6896192 3.6744533v-.7371007c-1.2343366 0-2.2703317-.6437347-3.2603809-2.0257986-.2019041-.2819471-.3955773-.5884582-.5833538-.911554h4.0359951v.7162162c0 .134527.0738329.2592138.1924447.3237101.0550369.029484.115602.0448403.1761057.0448403.0697789 0 .1394963-.0202642.2002457-.0595762l2.6246929-1.6984091c.104914-.0675676.1683046-.1842752.1683046-.3095823 0-.1246929-.0633906-.2414005-.1683046-.3089681z" fill="#383838"/><g fill="#636363" fill-rule="nonzero"><path d="m28.8886719 17.4697266c.2802734 0 .503011-.0427246.6682129-.1281739.1652018-.0854492.2979329-.2079264.3981933-.3674316s.2027995-.3793945.3076172-.659668l1.2167969-3.1855469c.0296224-.0820312.0546875-.1629231.0751953-.2426757s.035319-.1412761.0444336-.1845703c0-.0706381-.0176595-.1378581-.0529785-.2016602s-.0854492-.114502-.1503906-.1520996c-.0649415-.0375977-.1327312-.0563965-.2033692-.0563965-.0979818 0-.1737467.0170899-.2272949.0512695-.0535482.0341797-.1042481.1002605-.1520996.1982422-.0478516.0979818-.1013998.2335612-.1606445.4067383l-.7485352 2.1362305-.7895508-2.296875c-.0524088-.1595052-.112793-.2819824-.1811523-.3674317-.0683594-.0854492-.1697591-.1281738-.3041993-.1281738-.0774739 0-.1520996.0205078-.2238769.0615234-.0717773.0410157-.1281738.0957032-.1691895.1640625-.0410156.0683594-.0615234.1424154-.0615234.222168 0 .0751953.035319.1959636.105957.3623047l1.1484375 2.8916016-.0854492.2084961c-.0638021.1526692-.1201985.2683105-.1691894.3469238s-.1042481.1338704-.1657715.1657715c-.0615235.031901-.1458334.0478515-.2529297.0478515-.0432943 0-.0945638-.0068359-.1538086-.0205078-.0478516-.0136719-.0968424-.0205078-.1469727-.0205078-.1276041 0-.2238769.0290527-.2888183.0871582s-.0974121.1407064-.0974121.2478027c0 .1572266.0683594.2654623.2050781.3247071s.3417969.0888672.6152344.0888672z"/><path d="m43.0317383 28.0854492c.1207682 0 .2221679-.035319.3041992-.105957s.1230469-.1549479.1230469-.2529297c0-.0957031-.0660808-.2381185-.1982422-.4272461l-.8442383-1.2099609.7485352-1.0083008c.0683593-.0888672.1190592-.1657715.1520996-.2307129.0330403-.0649414.0495605-.1327311.0495605-.2033691 0-.0979818-.0404459-.181722-.1213379-.2512207-.0808919-.0694987-.1828613-.1042481-.3059082-.1042481-.1070963 0-.1965332.0296224-.2683105.0888672-.0717774.0592448-.1566569.1572266-.2546387.2939453l-.5878906.8271484-.6049805-.8271484c-.0957031-.1321615-.1794433-.2290039-.2512207-.2905273-.0717773-.0615235-.1623535-.0922852-.2717285-.0922852-.1253255 0-.2267253.035319-.3041992.105957-.077474.0706381-.116211.1538086-.116211.2495118 0 .1230468.0649414.2677408.1948243.434082l.7485351 1.0083008-.8442383 1.2099609c-.1276041.1822917-.1914062.3224284-.1914062.4204102 0 .0957031.0415853.1805826.1247558.2546386.0831706.074056.1840007.111084.3024903.111084.1070963 0 .1953939-.0296224.2648926-.0888672s.1543782-.1583659.2546386-.2973632l.6938477-.994629.6767578.994629c.0957031.1344401.1805827.2324218.2546387.2939453.074056.0615234.1646321.0922851.2717285.0922851z"/></g></g></svg>