<svg height="50" viewBox="0 0 50 50" width="50" xmlns="http://www.w3.org/2000/svg"><g fill="none" fill-rule="evenodd"><rect fill="#ededff" fill-rule="nonzero" height="50" rx="5" width="50"/><path d="m17.1845 42.143c.5866667 0 1.0706667-.077 1.452-.231s.67925-.3648333.89375-.6325.36575-.572.45375-.913.132-.7003333.132-1.078v-5.401h-2.2165v5.082c0 .242-.0119167.4748333-.03575.6985s-.08525.407-.18425.55-.264.2145-.495.2145c-.2236667 0-.3895833-.0696667-.49775-.209s-.17875-.3116667-.21175-.517-.0495-.407-.0495-.605v-.22h-2.2055v.4125c0 .561.0944167 1.056.28325 1.485s.4995833.7635833.93225 1.00375 1.0156667.36025 1.749.36025zm6.3635-.143v-2.442h.8855c.616 0 1.1531667-.12925 1.6115-.38775s.814-.605 1.067-1.0395.3795-.9175833.3795-1.44925-.1265-1.0083333-.3795-1.43-.6086667-.7544167-1.067-.99825-.9955-.36575-1.6115-.36575h-3.1075v8.1125zm-.001-6.462.661-.0005c.1833333 0 .35475.0375833.51425.11275s.28875.1970833.38775.36575.1485.3905.1485.6655-.0495.5041667-.1485.6875-.22825.3199167-.38775.40975-.3309167.13475-.51425.13475l-.661.0005zm8.284 6.605c.3813333 0 .7095-.0375833.9845-.11275s.5023333-.1695833.682-.28325.3180833-.2291667.41525-.3465.1585833-.2163333.18425-.297l.2255.8965h1.034v-4.2295h-3.3165v1.5345h1.353v.308c-.0293333.121-.0999167.24475-.21175.37125s-.2621667.2328333-.451.319-.41525.12925-.67925.12925c-.1833333 0-.3675833-.03575-.55275-.10725s-.3538333-.1961667-.506-.374-.275-.4271667-.3685-.748-.14025-.7305833-.14025-1.22925c0-.6636667.0825-1.1760833.2475-1.53725s.3703333-.61325.616-.75625.4895-.2145.7315-.2145c.176 0 .3355.0293333.4785.088s.2649167.1384167.36575.23925.1778333.2154167.231.34375.07975.2621667.07975.4015v.066h2.156v-.066c0-.264-.0595833-.5555-.17875-.8745s-.3098333-.62425-.572-.91575-.6031667-.53075-1.023-.71775-.93225-.2805-1.53725-.2805c-.715 0-1.3630833.1613333-1.94425.484s-1.0440833.7975-1.38875 1.4245-.517 1.3988333-.517 2.3155.1604167 1.6839167.48125 2.30175.7544167 1.0835 1.30075 1.397 1.1531667.47025 1.8205.47025z" fill="#9091ff" fill-rule="nonzero" opacity=".9"/><path d="m26.5698427 24.9521277 3.6424607-3.6424607 7.8052729 7.8052729" stroke="#9091ff" stroke-linecap="round" stroke-linejoin="round" stroke-width="2.601758"/><path d="m12 29.1149399 9.1061517-10.4070306 9.1061517 10.4070306" stroke="#5d5eff" stroke-linecap="round" stroke-linejoin="round" stroke-width="2.601758"/><path d="m36.7166975 12.9026364c0 2.1555562-1.7470802 3.9026365-3.9026364 3.9026365s-3.9026365-1.7470803-3.9026365-3.9026365 1.7470803-3.9026364 3.9026365-3.9026364 3.9026364 1.7470802 3.9026364 3.9026364z" fill="#999aff"/></g></svg>