<svg height="50" viewBox="0 0 50 50" width="50" xmlns="http://www.w3.org/2000/svg"><g fill="none" fill-rule="evenodd"><rect fill="#e8e8ee" fill-rule="nonzero" height="50" rx="5" width="50"/><g transform="translate(10 15)"><path d="m5.74603774 16.9847925c.68150943.341132 3.65735849.8833962 8.81358486.8833962 5.1558491 0 8.1320755-.5422642 8.8139623-.8833962v-8.38415099l-8.5781132 3.26792449c-.1520755.0577359-.3196226.0577359-.4716981 0l-8.57773586-3.26792449zm8.81358486 2.206415c-2.5607547 0-4.97283015-.1396226-6.79169807-.3935849-2.40754717-.3362264-3.34566038-.7826415-3.34566038-1.5913207v-9.56566039c0-.21811321.10716981-.42150943.2864151-.54528302.17924528-.12301887.40754717-.1509434.61094339-.07320755l9.23999996 3.51999996 9.24-3.51999996c.2033963-.07773585.4320755-.04981132.6113208.07320755.1788679.12377359.2864151.32716981.2864151.54528302v9.56566039c0 .8086792-.9381132 1.2550943-3.3460377 1.5913207-1.8192453.2539623-4.2309434.3935849-6.7916982.3935849z" fill="#000"/><path d="m2.52113208 5.95611321 12.03849052 4.58603769 12.0384906-4.58603769-12.0384906-4.58603774zm12.03849052 5.95584909c-.0796226 0-.16-.014717-.235849-.0433963l-13.89735851-5.29433958c-.25622641-.0973585-.42641509-.34377359-.42641509-.61811321 0-.27471698.17018868-.52075472.42641509-.61849057l13.89735851-5.29433962c.1520755-.05773585.3196226-.05773585.4716981 0l13.8973585 5.29433962c.2562264.09773585.4260377.34377359.4260377.61849057 0 .27433962-.1698113.52075471-.4260377.61811321l-13.8973585 5.29433958c-.0762264.0286793-.1558491.0433963-.2358491.0433963z" fill="#000"/><path d="m28.4573585 11.2500755c-.365283 0-.6618868-.2962264-.6618868-.6615095v-3.970566h-12.5743396c-.365283 0-.6615095-.29622642-.6615095-.66188679 0-.36603774.2962265-.66188679.6615095-.66188679h13.2362264c.365283 0 .6615094.29584905.6615094.66188679v4.63245279c0 .3652831-.2962264.6615095-.6615094.6615095z" fill="#f37e29"/><path d="m28.4573585 11.2500755c-.3649057 0-.6618868.2969811-.6618868.6618868 0 .02-.0007547.0403773-.0030189.06l-.4822641 5.3026415c-.029434.3260377.0762264.6384905.2969811.8803773.2207547.2415095.5222642.3750944.8501887.3750944.3271698 0 .6290566-.1335849.8498113-.3750944.2211321-.2418868.3260377-.5543396.2966038-.8803773l-.4822642-5.3026415c-.0015094-.0196227-.0026415-.04-.0026415-.06 0-.3649057-.2966037-.6618868-.6615094-.6618868zm0 8.6030188c-.6939623 0-1.36-.2935849-1.8279245-.8056603-.4675472-.5120755-.7-1.2018868-.6369812-1.8932076l.4796227-5.2750943c.0177358-1.08.9015094-1.95245285 1.985283-1.95245285 1.0833962 0 1.9671698.87245285 1.9849057 1.95245285l.4796226 5.2750943c.0626415.6913208-.169434 1.3811321-.6373585 1.8932076-.4675472.5120754-1.1339623.8056603-1.8271698.8056603z" fill="#ff8151"/></g></g></svg>