<svg height="50" viewBox="0 0 50 50" width="50" xmlns="http://www.w3.org/2000/svg"><g fill="none" fill-rule="evenodd"><rect fill="#ffe5eb" fill-rule="nonzero" height="50" rx="5" width="50"/><path d="m28.9789355 17.0367419-8.2258065 2.1650323c-.4814838.1266774-.8176451.5620968-.8176451 1.0605806v8.4769678h-1.3709678c-1.3627419 0-2.4677419 1.105-2.4677419 2.4677419 0 1.362742 1.105 2.467742 2.4677419 2.467742h.5483871c1.2689678 0 2.3021291-.9613226 2.4403226-2.1935484h.0274194v-8.2258065l7.1290322-2.1935484v5.483871h-1.3709677c-1.362742 0-2.467742 1.105-2.467742 2.4677419 0 1.362742 1.105 2.467742 2.467742 2.467742h.5483871c1.3632903 0 2.4677419-1.105 2.4677419-2.467742v-10.9161935c0-.7189355-.68-1.243742-1.3759032-1.0605807z" fill="#e5214b"/><path d="m32.8225806 22.7070645h1.6451613c.4546129 0 .8225807-.3685161.8225807-.8225806s-.3679678-.8225807-.8225807-.8225807h-1.6451613c-.4540645 0-.8225806.3685162-.8225806.8225807s.3685161.8225806.8225806.8225806zm-15.3548387 1.6451613h-1.6451613c-.4540645 0-.8225806.3685161-.8225806.8225807 0 .4540645.3685161.8225806.8225806.8225806h1.6451613c.4546129 0 .8225807-.3685161.8225807-.8225806 0-.4540646-.3679678-.8225807-.8225807-.8225807zm17 0h-1.6451613c-.4540645 0-.8225806.3685161-.8225806.8225807 0 .4540645.3685161.8225806.8225806.8225806h1.6451613c.4546129 0 .8225807-.3685161.8225807-.8225806 0-.4540646-.3679678-.8225807-.8225807-.8225807zm-17-3.2903226h-1.6451613c-.4540645 0-.8225806.3685162-.8225806.8225807s.3685161.8225806.8225806.8225806h1.6451613c.4546129 0 .8225807-.3685161.8225807-.8225806s-.3679678-.8225807-.8225807-.8225807z" fill="#ff8ea6"/></g></svg>