<svg height="50" viewBox="0 0 50 50" width="50" xmlns="http://www.w3.org/2000/svg"><g fill="none" fill-rule="evenodd"><rect fill="#eaeaea" fill-rule="nonzero" height="50" rx="5" width="50"/><g fill="#000" transform="translate(17 14)"><path d="m1.07303529 3.2188h13.94701181v-2.14576471h-13.94701181zm14.48352941 1.07303529h-15.02004705c-.2964 0-.53651765-.24072941-.53651765-.53651764v-3.2188c0-.2964.24011765-.53651765.53651765-.53651765h15.02004705c.2960941 0 .5365177.24011765.5365177.53651765v3.2188c0 .29578823-.2404236.53651764-.5365177.53651764z"/><path d="m3.21849412 15.5434118c.36675294.1171529.7729647.1746588 1.23270588.1746588 1.63310588 0 3.61247059-.7561412 5.35844706-1.4235765 1.09872944-.4196706 2.14515294-.8194588 3.06494114-1.026847v-8.97581181h-9.65609408zm1.23270588 1.2473882h-.00030588c-.73931765 0-1.40828236-.1306118-1.98670588-.3881647-.19362353-.0859529-.31811765-.2783529-.31811765-.4900235v-12.15729415c0-.2964.24011765-.53651765.53621176-.53651765h10.72882355c.2960941 0 .5362117.24011765.5362117.53651765v9.95494115c0 .2639765-.1920941.4891059-.4533176.5300941-.9106118.143153-2.0720471.5866824-3.3010824 1.0565177-1.83315289.7001647-3.91070584 1.4939294-5.7417176 1.4939294z"/><path d="m3.21849412 16.6549882v3.4616706c0 2.5140471 2.16625882 4.5594824 4.82835294 4.5594824 2.66178824 0 4.82774114-2.0454353 4.82774114-4.5594824v-5.7450823c-.7931529.2037176-1.7163058.5564-2.6822823.9252941-1.83284708.7001647-3.91040002 1.4936235-5.7411059 1.4939294h-.00091765c-.43649411 0-.84851764-.0455765-1.23178823-.1358118zm4.82835294 9.0938824c-3.25397647 0-5.90077647-2.5265882-5.90077647-5.6322118v-4.204047c0-.1816942.09145882-.351153.24378823-.449953.1526353-.0991059.34442353-.1140941.51021177-.0403764.44689412.1991294.95404706.2957882 1.55021176.2957882h.00061177c1.63341176-.0003059 3.61247059-.7564471 5.35844706-1.4235765 1.28409412-.4903294 2.49600002-.9531294 3.51825882-1.1143294.1547765-.0238588.3126118.0204941.4319059.1223529.1192941.1018589.1878117.2508236.1878117.4077412v6.4064c0 3.1056236-2.6471058 5.6322118-5.90047054 5.6322118z"/><path d="m10.192 17.1658118c-.29548235 0-.53590588.2407294-.53590588.5365176 0 .2960941.24042353.5365177.53590588.5365177.2960941 0 .5365176-.2404236.5365176-.5365177 0-.2957882-.2404235-.5365176-.5365176-.5365176zm0 2.1460706c-.88705882 0-1.60863529-.7218824-1.60863529-1.609553 0-.8870588.72157647-1.609247 1.60863529-1.609247.8879765 0 1.6092471.7221882 1.6092471 1.609247 0 .8876706-.7212706 1.609553-1.6092471 1.609553z" opacity=".728597"/><path d="m8.04684706 21.4573412c-.29609412 0-.53651765.2407294-.53651765.5365176 0 .2957883.24042353.5365177.53651765.5365177.29548235 0 .53651765-.2407294.53651765-.5365177 0-.2957882-.2410353-.5365176-.53651765-.5365176zm0 2.1460706c-.88797647 0-1.60955294-.7218824-1.60955294-1.609553 0-.8870588.72157647-1.6095529 1.60955294-1.6095529.88705882 0 1.60924706.7224941 1.60924706 1.6095529 0 .8876706-.72218824 1.609553-1.60924706 1.609553z"/><path d="m5.90077647 12.3383765c-.29609412 0-.53651765.2404235-.53651765.5362117 0 .2957883.24042353.5365177.53651765.5365177.29578824 0 .53651765-.2407294.53651765-.5365177 0-.2957882-.24072941-.5362117-.53651765-.5362117zm0 2.1454588c-.88705882 0-1.60924706-.7218824-1.60924706-1.6092471s.72218824-1.609247 1.60924706-1.609247c.88736471 0 1.60955294.7218823 1.60955294 1.609247s-.72218823 1.6092471-1.60955294 1.6092471z" opacity=".728597"/><path d="m10.192 8.04654118c-.29548235 0-.53590588.24072941-.53590588.53651764 0 .29578824.24042353.53651765.53590588.53651765.2960941 0 .5365176-.24072941.5365176-.53651765 0-.29578823-.2404235-.53651764-.5365176-.53651764zm0 2.14607062c-.88705882 0-1.60863529-.72218827-1.60863529-1.60955298 0-.8873647.72157647-1.60955294 1.60863529-1.60955294.8879765 0 1.6092471.72218824 1.6092471 1.60955294 0 .88736471-.7212706 1.60955298-1.6092471 1.60955298z" opacity=".728597"/><path d="m4.82774118 18.7753647c-.29609412 0-.53621177-.2401176-.53621177-.5365176v-.5365177c0-.2960941.24011765-.5365176.53621177-.5365176.2964 0 .53651764.2404235.53651764.5365176v.5365177c0 .2964-.24011764.5365176-.53651764.5365176z"/><path d="m7.51032941 19.8484c-.2964 0-.53651765-.2404235-.53651765-.5365176v-.5365177c0-.2960941.24011765-.5365176.53651765-.5365176.29578824 0 .53651765.2404235.53651765.5365176v.5365177c0 .2960941-.24072941.5365176-.53651765.5365176z"/><path d="m11.2650353 21.9938588c-.2960941 0-.5365177-.2404235-.5365177-.5365176v-.5365177c0-.2960941.2404236-.5365176.5365177-.5365176.2964 0 .5362118.2404235.5362118.5365176v.5365177c0 .2960941-.2398118.5365176-.5362118.5365176z" opacity=".483251"/><path d="m5.36425882 21.9938588c-.29609411 0-.53651764-.2404235-.53651764-.5365176v-.5365177c0-.2960941.24042353-.5365176.53651764-.5365176.2964 0 .53651765.2404235.53651765.5365176v.5365177c0 .2960941-.24011765.5365176-.53651765.5365176z" opacity=".483251"/><path d="m9.11957647 13.4111059c-.2964 0-.53621176-.2404235-.53621176-.5365177v-.5362117c0-.2967059.23981176-.5365177.53621176-.5365177.29609412 0 .53651765.2398118.53651765.5365177v.5362117c0 .2960942-.24042353.5365177-.53651765.5365177z"/><path d="m11.2650353 12.3383765c-.2960941 0-.5365177-.2404236-.5365177-.5365177v-.5365176c0-.2964.2404236-.5365177.5365177-.5365177.2964 0 .5362118.2401177.5362118.5365177v.5365176c0 .2960941-.2398118.5365177-.5362118.5365177z"/><path d="m6.97381176 10.1926118c-.2964 0-.53651764-.24011768-.53651764-.53651768v-.53651765c0-.29609412.24011764-.53651765.53651764-.53651765s.53651765.24042353.53651765.53651765v.53651765c0 .2964-.24011765.53651768-.53651765.53651768z" opacity=".483251"/><path d="m4.82774118 8.58305882c-.29609412 0-.53621177-.24011764-.53621177-.53651764v-.53651765c0-.29609412.24011765-.53651765.53621177-.53651765.2964 0 .53651764.24042353.53651764.53651765v.53651765c0 .2964-.24011764.53651764-.53651764.53651764z" opacity=".483251"/><path d="m7.51032941 6.43729412c-.2964 0-.53651765-.24011765-.53651765-.53651765v-.53651765c0-.29609411.24011765-.53621176.53651765-.53621176.29578824 0 .53651765.24011765.53651765.53621176v.53651765c0 .2964-.24072941.53651765-.53651765.53651765z"/><path d="m11.2650353 6.43729412c-.2960941 0-.5365177-.24011765-.5365177-.53651765v-.53651765c0-.29609411.2404236-.53621176.5365177-.53621176.2964 0 .5362118.24011765.5362118.53621176v.53651765c0 .2964-.2398118.53651765-.5362118.53651765z"/></g><path d="m21.4178678 12.1455148c.9982298 0 1.6340449-.7693364 1.6340449-2.21263675 0-1.25255584-.502294-1.93287805-1.4178678-1.93287805-.9982298 0-1.6340449.76933633-1.6340449 2.2126367 0 1.2525559.502294 1.9328781 1.4178678 1.9328781zm.1398793-.7629782c-.3814891 0-.5913081-.4514288-.5913081-1.3797189 0-.85835043.1462375-1.23983952.5277266-1.23983952s.5913081.45142875.5913081 1.37971882c0 .8583505-.1462375 1.2398396-.5277266 1.2398396zm3.9420539.6612477v-3.1663594h1.0427369v-.77569448h-3.0010475l-.0635815.77569448h1.0808857v3.1663594zm2.5941258 0v-1.6276867h.8519923v1.6276867h.9600809v-3.94205388h-.9600809v1.60225418h-.8519923v-1.60225418h-.9537227v3.94205388z" fill="#3f3f3f" fill-rule="nonzero"/></g></svg>