<svg height="50" viewBox="0 0 50 50" width="50" xmlns="http://www.w3.org/2000/svg"><g fill="none"><rect fill="#ffeaec" height="50" rx="5" width="50"/><g transform="translate(15 12)"><path d="m18 24.8h-16c-1.1028 0-2-.8972-2-2v-20.8c0-1.1028.8972-2 2-2h8.1374c.5342 0 1.0366.2082 1.414.5858l7.8628 7.8628c.3778.3778.5858.8798.5858 1.414v12.9374c0 1.1028-.8972 2-2 2zm-16-24c-.6618 0-1.2.5382-1.2 1.2v20.8c0 .6618.5382 1.2 1.2 1.2h16c.6618 0 1.2-.5382 1.2-1.2v-12.9374c0-.3158-.1282-.625-.3514-.8484l-7.8628-7.8628c-.2266-.2266-.528-.3514-.8484-.3514z" fill="#fd4233" stroke="#fd4233"/><path d="m16.242 15.664c-.014-.102-.096-.23-.184-.316-.252-.248-.806-.378-1.65-.39-.572-.006-1.26.044-1.984.146-.324-.186-.658-.39-.92-.636-.706-.658-1.294-1.572-1.662-2.578.024-.094.044-.176.064-.26 0 0 .396-2.256.292-3.02-.014-.104-.024-.134-.052-.216l-.034-.088c-.108-.25-.32-.514-.652-.5l-.196-.006h-.004c-.372 0-.672.19-.752.472-.24.888.008 2.218.458 3.938l-.116.28c-.322.788-.726 1.58-1.082 2.278l-.046.09c-.376.734-.716 1.358-1.026 1.886l-.318.168c-.024.012-.57.302-.698.378-1.086.65-1.806 1.386-1.926 1.97-.038.188-.01.426.184.536l.308.156c.134.066.276.1.42.1.774 0 1.672-.964 2.91-3.124 1.428-.464 3.056-.852 4.482-1.064 1.086.61 2.422 1.036 3.266 1.036.15 0 .28-.014.384-.042.162-.044.298-.136.382-.26.164-.246.196-.586.152-.934zm-11.744 3.802c.14-.386.7-1.15 1.526-1.826.052-.042.18-.162.296-.274-.864 1.378-1.442 1.926-1.822 2.1zm4.892-11.266c.248 0 .39.626.402 1.214s-.126 1-.296 1.306c-.142-.452-.21-1.164-.21-1.63 0 0-.01-.89.104-.89zm-1.46 8.028c.174-.31.354-.638.538-.984.45-.85.734-1.514.944-2.06.42.764.944 1.414 1.558 1.934.078.064.16.13.244.196-1.25.246-2.332.548-3.284.914zm7.886-.07c-.076.046-.294.074-.434.074-.452 0-1.014-.206-1.8-.544.302-.022.58-.0340023.828-.0340023.454 0 .588-.0019977 1.034.1120023.444.114.45.344.372.392z" fill="#ff402f"/></g></g></svg>