<svg height="50" viewBox="0 0 50 50" width="50" xmlns="http://www.w3.org/2000/svg"><g fill="none" fill-rule="evenodd"><rect fill="#ffece8" fill-rule="nonzero" height="50" rx="5" width="50"/><path d="m34.5884034 11.5651569c1.0987062-.1136593 2.1394675.2287802 2.9339671.8743111.7944996.645531 1.3427374 1.5941532 1.4563967 2.6928594l.0212328 18.3237486c0 1.1045695-.4477153 2.1045695-1.1715729 2.8284271s-1.7238576 1.1715729-2.8284271 1.1715729l-19.4115966-1.9867501c-1.0194503-.1054604-1.9165512-.5877069-2.5587894-1.2998109-.6422383-.712104-1.029614-1.6540656-1.029614-2.6789563v-13.9811174c0-1.0248907.3873757-1.9668523 1.029614-2.6789563.6422382-.712104 1.5393391-1.1943505 2.5587894-1.2998109z" stroke="#d24625" stroke-width="2"/><path d="m22.2631836 30.1831055c.3125 0 .5712891-.1123047.7763672-.3369141s.3076172-.5541992.3076172-.9887695v-3.0395508h1.9921875c1.3330078 0 2.3364257-.2819824 3.0102539-.8459473.6738281-.5639648 1.0107422-1.3928222 1.0107422-2.4865722 0-.5126954-.0830078-.9741211-.2490235-1.3842774-.1660156-.4101562-.4089355-.7568359-.7287597-1.040039-.3198243-.2832032-.6994629-.4858399-1.1389161-.6079102-.4443359-.1269531-1.0791015-.1904297-1.9042968-.1904297h-2.7905274c-.4785156 0-.8276367.1025391-1.0473633.3076172-.2197265.2050781-.3295898.546875-.3295898 1.0253906v8.2763672c0 .4296875.1000977.7556152.300293.9777832s.4638672.333252.7910156.333252zm2.5488281-6.0058594h-1.4648437v-3.28125h1.4648437c.9716797 0 1.6137695.1586914 1.9262695.4760742.2783204.2978516.4174805.6835938.4174805 1.1572266 0 .3955078-.090332.715332-.2709961.9594726-.180664.2441407-.4431152.4199219-.7873535.5273438s-.7727051.1611328-1.2854004.1611328z" fill="#d24625" fill-rule="nonzero"/></g></svg>