<svg height="50" viewBox="0 0 50 50" width="50" xmlns="http://www.w3.org/2000/svg"><g fill="none" fill-rule="evenodd" transform="translate(0 -.000004)"><rect fill="#ececff" fill-rule="nonzero" height="50" rx="5" width="50" y=".000004"/><path d="m16.8077758 30.1532452.5012828-.3300589-.5525952-.6011788.8131044-.2632613-.2605092-.4872299-.7420564.2946955.0315768-.7229862h-.6275902l.0315768.7229862-.7420564-.2946955-.2605092.4872299.8131044.2632613-.5525952.6011788.5012828.3300589.5210183-.7229862zm2.466943 3.8467584c.1789356 0 .3315571-.0628684.4578646-.1886051.1263075-.1257368.1894612-.2789784.1894612-.459725 0-.178127-.0631537-.3300589-.1894612-.4557957-.1263075-.1257367-.278929-.1886051-.4578646-.1886051-.181567 0-.3355043.0628684-.4618118.1886051-.1263074.1257368-.1894612.2776687-.1894612.4557957 0 .1807466.0631538.3339882.1894612.459725.1263075.1257367.2802448.1886051.4618118.1886051zm2.6603513-.1178782v-1.8546169h.7657391c.4420761 0 .8209986-.0910282 1.1367673-.2730845s.5585159-.4243615.7282415-.7269155c.1697257-.302554.2545886-.6358874.2545886-1 0-.3667322-.0835472-.6961362-.2506415-.9882122-.1670942-.292076-.4091836-.5239031-.726268-.6954813-.3170844-.1715783-.6979804-.2573674-1.1426879-.2573674h-1.99329v5.7956778zm0-4.8526523h.6354845c.2105124 0 .3914216.0360184.5427274.108055.1513059.0720367.2684034.1820563.3512927.330059.0828893.1480026.1243339.3346431.1243339.5599214 0 .2226588-.0421025.4132285-.1263075.5717092-.0842049.1584807-.2026182.2789784-.3552397.3614931-.1526216.0825148-.3315572.1237721-.5368068.1237721h-.6354845zm5.628577 4.9469548c.4236564 0 .7966581-.0635232 1.1190054-.1905697.3223472-.1270465.5729886-.3123772.7519242-.5559922.1789356-.2436149.2684034-.5383104.2684034-.8840864 0-.3379175-.071048-.616241-.2131439-.8349705-.1420959-.2187296-.3427406-.4007859-.6019341-.546169s-.562463-.2783235-.9098086-.3988212c-.2552463-.086444-.4828629-.172888-.6828498-.259332-.1999868-.086444-.3572133-.1846759-.4716795-.2946955-.1144661-.1100197-.1716992-.2436149-.1716992-.4007859 0-.2174197.0796-.3785199.2388001-.4833006.1592-.1047806.3835274-.1571709.672982-.1571709.2999803 0 .5203605.0681074.6611407.2043222.1407803.1362148.2111704.3313687.2111704.5854617v.1807466h1.2236037v-.2357564c0-.3772102-.0901257-.692207-.270377-.9449902s-.4289191-.4426981-.7460035-.5697446-.682192-.1905697-1.0953227-.1905697c-.3947109 0-.748635.0635232-1.0617723.1905697s-.5604894.3104126-.7420564.5500982c-.181567.2396857-.2723505.529797-.2723505.870334 0 .3379175.0756529.6221349.2269587.8526523.1513059.2305173.3519506.4204322.6019341.5697446.2499836.1493124.5210184.2698101.8131044.3614931.2684034.081205.5072035.1683039.7164003.2612967.2091967.0929928.3749753.1984283.4973357.3163065.1223603.1178781.1835405.2540929.1835405.4086444 0 .2200392-.0815736.3778651-.2447207.4734774-.1631472.0956123-.3960266.1434184-.6986383.1434184-.2999802 0-.5262811-.0720366-.6789027-.21611-.1526215-.1440733-.2289323-.3510151-.2289323-.6208251v-.2082515h-1.2275508v.2318271c0 .3955468.0901257.7262606.270377.9921415.1802513.2658808.4302348.4656188.7499506.5992141s.6900862.2003929 1.1111111.2003929zm4.8312611-.0943025c.3894481 0 .74403-.0707269 1.0637458-.2121808.3197158-.1414538.5946978-.3411919.8249458-.5992141.230248-.2580223.40721-.5651605.5308861-.9214146.1236761-.356254.1855141-.7478716.1855141-1.1748526s-.061838-.8172888-.1855141-1.1709234-.3006381-.6581532-.5308861-.913556c-.230248-.2554027-.50523-.4531761-.8249458-.5933202s-.6742977-.2102161-1.0637458-.2102161h-1.8827708v5.7956778zm-.6512729-4.8526523h.4933886c.2841918 0 .5414117.0779306.7716597.2337918.230248.1558611.4124729.3785199.5466746.6679764.1342017.2894564.2013025.6371971.2013025 1.043222 0 .4034054-.0671008.7524558-.2013025 1.0471513s-.3164266.5212835-.5466746.6797642-.4874679.237721-.7716597.237721l-.4933886.0006549z" fill="#7374ff" fill-rule="nonzero"/><g fill="#0002fc"><path d="m18.941561 20.9530937h15.9053867v-6.6273547h-15.9053867zm16.5682355 1.3253198h-17.2310465c-.3661919 0-.6628866-.2962791-.6628866-.662471v-7.9530523c0-.3661919.2966947-.6628488.6628866-.6628488h17.2310465c.3657762 0 .6628488.2966569.6628488.6628488v7.9530523c0 .3661919-.2970726.662471-.6628488.662471z"/><path d="m36.1726453 20.9530937h2.6513576c.730532 0 1.3253576-.5944477 1.3253576-1.3256977v-3.9759593c0-.73125-.5948256-1.3256977-1.3253576-1.3256977h-2.6513576zm2.6513576 1.3253198h-3.3142064c-.3658139 0-.6628488-.2962791-.6628488-.662471v-7.9530523c0-.3661919.2970349-.6628488.6628488-.6628488h3.3142064c1.4613663 0 2.6506773 1.1892732 2.6506773 2.6513953v3.9759593c0 1.4617442-1.189311 2.6510175-2.6506773 2.6510175z"/><path d="m11.2440116 17.6392274 6.3718518 2.9408721v-5.8817442zm7.0347384 4.6391861c-.0948924 0-.1893692-.0200291-.2777616-.0608431l-8.61552328-3.9767151c-.23509593-.1084593-.38546512-.3431395-.38546512-.6016279 0-.2581105.15036919-.4935465.38546512-.60125l8.61552328-3.977093c.2048256-.0948547.4440407-.0778489.6348837.0438372.1904651.1220639.3056889.3321802.3056889.5581686v7.9530523c0 .2259884-.1152238.4361047-.3056889.5577907-.1084593.0695349-.2327907.1046803-.3571221.1046803z"/></g><path d="m33.5220058 16.9767565h-12.5926163c-.365436 0-.6628488-.2970349-.6628488-.662471 0-.3665697.2974128-.6628488.6628488-.6628488h12.5926163c.365814 0 .6624709.2962791.6624709.6628488 0 .3654361-.2966569.662471-.6624709.662471z" fill="#5c5dff"/><path d="m33.5220058 19.627396h-12.5926163c-.365436 0-.6628488-.296657-.6628488-.6628488 0-.365814.2974128-.6628489.6628488-.6628489h12.5926163c.365814 0 .6624709.2970349.6624709.6628489 0 .3661918-.2966569.6628488-.6624709.6628488z" fill="#5c5dff"/><path d="m38.1611919 19.627396c-.3666076 0-.6628867-.296657-.6628867-.6628488v-2.6502617c0-.3665697.2962791-.6628488.6628867-.6628488.3658139 0 .662811.2962791.662811.6628488v2.6502617c0 .3661918-.2969971.6628488-.662811.6628488z" fill="#5c5dff"/><path d="m14.301657 20.2902448c-.1727035 0-.3457849-.0672674-.4757849-.2018023-.2543314-.2630232-.247907-.6828779.0154942-.9375872.4784302-.4625581.7104651-.9326744.7104651-1.437936 0-.8725872-.7036628-1.5785175-.7104651-1.5860756-.2634012-.2539535-.2698256-.6738082-.0154942-.9364535.2543314-.2626454.6745639-.2702035.9372093-.0154942.0453488.0442151 1.1144477 1.0955523 1.1144477 2.5380233 0 .8703197-.3745436 1.6748837-1.1144477 2.3910174-.1288663.1243314-.2947674.1863081-.4614244.1863081z" fill="#0002fc"/></g></svg>