<svg height="50" viewBox="0 0 50 50" width="50" xmlns="http://www.w3.org/2000/svg"><g fill="none" fill-rule="evenodd"><rect fill="#e2fffc" fill-rule="nonzero" height="50" rx="5" width="50"/><g fill="#067064"><path d="m20.7060023 12.875.4209241 22.7489904-2.6151373.5009787c-.7300609.0037547-1.3936323-.3345605-1.8731089-.8859913-.4280965-.4923403-.7089764-1.1548081-.7565075-1.8909267l-.0071727-.2229486v-17.2499317c0-.8249941.2927628-1.5724757.7636501-2.1140798.4371081-.5027519 1.02722-.8283546 1.681229-.8791303l.1798833-.0069607zm-.6644148 1.2084813h-1.5418251l-.1566697.0092091c-.3605477.0426098-.6839297.2305111-.9268676.5099063-.2835026.3260473-.4580501.776459-.4580501 1.2725741v17.2499317l.0080538.1837471c.0372855.4230277.2019315.8035355.4499963 1.0888269.2776433.3193088.6603565.5191154 1.0835373.5191154h1.5418251z" stroke="#067064" stroke-width=".25"/><path d="m34.6054286 12.8708973.4740204 22.7709992-14.7810659.4872039-.4740203-22.7707213zm-.7161564 1.212584h-12.8747327v20.8333106h12.8747327z" stroke="#067064" stroke-width=".25"/><path d="m24.0018378 22.0001222h6.9960387v-4.9999593h-6.9960387zm7.4971005.9998778h-7.9981622c-.2765267 0-.5007761-.2238107-.5007761-.5000815v-5.999837c0-.2765559.2242494-.5000815.5007761-.5000815h7.9981622c.2768123 0 .5010617.2235256.5010617.5000815v5.999837c0 .2762708-.2242494.5000815-.5010617.5000815z"/><path d="m29.5624376 30h-6.1248752c-.241732 0-.4375624-.2234892-.4375624-.5 0-.2759407.1958304-.5.4375624-.5h6.1248752c.241732 0 .4375624.2240593.4375624.5 0 .2765108-.1958304.5-.4375624.5z"/><path d="m27.5453839 32h-4.0907678c-.2511533 0-.4546161-.2240593-.4546161-.5s.2034628-.5.4546161-.5h4.0907678c.2511533 0 .4546161.2240593.4546161.5s-.2034628.5-.4546161.5z"/><path d="m29.5819164 18.9952471h-4.1638328c-.2309709 0-.4180836-.2219295-.4180836-.4952471 0-.2736.1871127-.4952471.4180836-.4952471h4.1638328c.2309709 0 .4180836.2216471.4180836.4952471 0 .2733176-.1871127.4952471-.4180836.4952471z"/><path d="m29.5832739 21h-4.1665478c-.230221 0-.4167261-.223838-.4167261-.5001426 0-.2760194.1865051-.4998574.4167261-.4998574h4.1665478c.2299834 0 .4167261.223838.4167261.4998574 0 .2763046-.1867427.5001426-.4167261.5001426z"/></g></g></svg>