<svg height="50" viewBox="0 0 50 50" width="50" xmlns="http://www.w3.org/2000/svg"><g fill="none" fill-rule="evenodd"><rect fill="#eef" fill-rule="nonzero" height="50" rx="5" width="50"/><path d="m14.3636667 13.3636667h3.1793333v2.4616666h-3.1793333zm-.682 3.825h4.5433333c.3763333 0 .6816667-.305.6816667-.6816667v-1.2306667h4.1593333c.3763333 0 .6816667-.305.6816667-.6816666 0-.3766667-.3053334-.6820334-.6816667-.6820334h-4.1593333v-1.2306333c0-.3766667-.3053334-.682-.6816667-.682h-4.5433333c-.3763334 0-.6816667.3053333-.6816667.682v3.825c0 .3766667.3053333.6816667.6816667.6816667z" fill="#a7a7d0"/><path d="m14.3636667 27.2613333h3.1793333v2.4613h-3.1793333zm-.682 3.8249667h4.5433333c.3763333 0 .6816667-.3049667.6816667-.6816333v-1.231h4.1593333c.3763333 0 .6816667-.305.6816667-.6816667s-.3053334-.682-.6816667-.682h-4.1593333v-1.2307c0-.3763-.3053334-.6816333-.6816667-.6816333h-4.5433333c-.3763334 0-.6816667.3053333-.6816667.6816333v3.8253667c0 .3766666.3053333.6816333.6816667.6816333z" fill="#706fc8"/><path d="m35.246 15.8253333h-3.1793333v-2.4616666h3.1793333zm-17.703 6.9486667h-3.1793333v-2.4613333h3.1793333zm18.385-10.774h-4.5433333c-.3763334 0-.6816667.3053333-.6816667.682v1.2306333h-2.414c-1.0433333 0-1.999.527-2.5566667 1.4093667l-3.008 4.7656667c-.306.4846666-.8306666.7736666-1.4036666.7736666h-2.414v-1.2307c0-.3766333-.3053334-.6816333-.6816667-.6816333h-4.5433333c-.3763334 0-.6816667.305-.6816667.6816333v3.8253667c0 .3766667.3053333.6816667.6816667.6816667h4.5433333c.3763333 0 .6816667-.305.6816667-.6816667v-1.231h2.414c1.044 0 1.9996666-.527 2.5566666-1.4096667l3.0083334-4.7653333c.3056666-.4843333.8303333-.7736667 1.4033333-.7736667h2.414v1.2306667c0 .3766667.3053333.6816667.6816667.6816667h4.5433333c.3763333 0 .6816667-.305.6816667-.6816667v-3.825c0-.3766667-.3053334-.682-.6816667-.682z" fill="#0002f8"/><path d="m35.246 22.774h-3.1793333v-2.4613333h3.1793333zm.682-3.825h-4.5433333c-.3763334 0-.6816667.305-.6816667.6816333v1.2307h-4.1593333c-.3763334 0-.6816667.3053334-.6816667.6816667 0 .3766333.3053333.682.6816667.682h4.1593333v1.231c0 .3766667.3053333.6816667.6816667.6816667h4.5433333c.3763333 0 .6816667-.305.6816667-.6816667v-3.8253667c0-.3766333-.3053334-.6816333-.6816667-.6816333z" fill="#6e6ffb"/><path d="m35.246 29.7226333h-3.1793333v-2.4613h3.1793333zm-17.703 6.7400334h-3.1793333v-2.4616667h3.1793333zm18.385-10.565h-4.5433333c-.3763334 0-.6816667.3053333-.6816667.6816333v1.2307h-2.4346667c-1.0263333 0-1.974.514-2.5343333 1.3743333l-3.001 4.6113334c-.3076667.4723333-.8273333.7543333-1.391.7543333h-2.4353333v-1.2310333c0-.3763-.3053334-.6816334-.6816667-.6816334h-4.5433333c-.3763334 0-.6816667.3053334-.6816667.6816334v3.8253666c0 .3766667.3053333.6816667.6816667.6816667h4.5433333c.3763333 0 .6816667-.305.6816667-.6816667v-1.231h2.4353333c1.0266667 0 1.974-.5137 2.5336667-1.374l3.001-4.6106666c.3076666-.473.828-.755 1.3916666-.755h2.4346667v1.231c0 .3766666.3053333.6816333.6816667.6816333h4.5433333c.3763333 0 .6816667-.3049667.6816667-.6816333v-3.8253667c0-.3763-.3053334-.6816333-.6816667-.6816333z" fill="#0002f8"/><path d="m35.246 36.4626667h-3.1793333v-2.4616667h3.1793333zm.682-3.8253334h-4.5433333c-.3763334 0-.6816667.3053334-.6816667.6816334v1.2310333h-4.1593333c-.3763334 0-.6816667.305-.6816667.6816667 0 .3766666.3053333.6816666.6816667.6816666h4.1593333v1.231c0 .3766667.3053333.6816667.6816667.6816667h4.5433333c.3763333 0 .6816667-.305.6816667-.6816667v-3.8253666c0-.3763-.3053334-.6816334-.6816667-.6816334z" fill="#706fc8"/></g></svg>