<svg height="50" viewBox="0 0 50 50" width="50" xmlns="http://www.w3.org/2000/svg"><g fill="none" fill-rule="evenodd"><rect fill="#e2fffc" fill-rule="nonzero" height="50" rx="5" width="50"/><path d="m34.5884034 11.5651569c1.0987062-.1136593 2.1394675.2287802 2.9339671.8743111.7944996.645531 1.3427374 1.5941532 1.4563967 2.6928594l.0212328 18.3237486c0 1.1045695-.4477153 2.1045695-1.1715729 2.8284271s-1.7238576 1.1715729-2.8284271 1.1715729l-19.4115966-1.9867501c-1.0194503-.1054604-1.9165512-.5877069-2.5587894-1.2998109-.6422383-.712104-1.029614-1.6540656-1.029614-2.6789563v-13.9811174c0-1.0248907.3873757-1.9668523 1.029614-2.6789563.6422382-.712104 1.5393391-1.1943505 2.5587894-1.2998109z" stroke="#1d6b43" stroke-width="2"/><path d="m28.362793 29.2075195c.2932942 0 .5395508-.0857747.7387695-.2573242s.2988281-.3763021.2988281-.6142578c0-.2324219-.1604817-.5782878-.4814453-1.0375977l-2.050293-2.9384765 1.8178711-2.4487305c.1660157-.2158203.2891439-.4025879.3693848-.5603027.0802409-.1577149.1203613-.322347.1203613-.4938965 0-.2379557-.0982259-.4413249-.2946777-.6101074-.1964518-.1687826-.4440918-.2531739-.7429199-.2531739-.2600912 0-.4772949.0719401-.6516114.2158204-.1743164.1438802-.3804524.3818359-.6184082.7138671l-1.4277343 2.0087891-1.4692383-2.0087891c-.2324219-.3209635-.435791-.5561523-.6101074-.7055664-.1743164-.149414-.3942871-.2241211-.6599121-.2241211-.304362 0-.5506185.0857748-.7387696.2573243-.188151.1715494-.2822265.3735351-.2822265.605957 0 .2988281.1577148.6502279.4731445 1.0541992l1.8178711 2.4487305-2.050293 2.9384765c-.3098958.4427084-.4648437.7830404-.4648437 1.0209961 0 .2324219.1009928.438558.3029785.6184082.2019857.1798503.4468587.2697754.7346191.2697754.2600912 0 .474528-.0719401.6433106-.2158203.1687825-.1438802.3749186-.3846028.6184082-.722168l1.6850586-2.4155273 1.6435547 2.4155273c.2324218.3264974.4385579.5644532.6184082.7138672.1798502.1494141.3998209.2241211.6599121.2241211z" fill="#1e6d40" fill-rule="nonzero"/></g></svg>