<svg height="50" viewBox="0 0 50 50" width="50" xmlns="http://www.w3.org/2000/svg"><g fill="none" fill-rule="evenodd"><rect fill="#ffeaec" fill-rule="nonzero" height="50" rx="5" width="50"/><path d="m18.444 42v-6.462l1.903-.0005v-1.65h-6.017v1.65l1.897.0005.0005 6.462zm4.9995 0v-8.1125h-2.189v8.1125zm3.3935 0v-3.107l2.6675-.0005v-1.6555h-2.6675v-1.699l3.157-.0005v-1.65h-5.368v8.1125zm6.468 0-.001-3.107 2.6685-.0005v-1.6555h-2.6685v-1.699l3.158-.0005v-1.65h-5.368v8.1125z" fill="#e6a6a6" fill-rule="nonzero" opacity=".9"/><path d="m26.5698427 24.9521277 3.6424607-3.6424607 7.8052729 7.8052729" stroke="#e68068" stroke-linecap="round" stroke-linejoin="round" stroke-width="2.601758"/><path d="m12 29.1149399 9.1061517-10.4070306 9.1061517 10.4070306" stroke="#d24625" stroke-linecap="round" stroke-linejoin="round" stroke-width="2.601758"/><path d="m36.7166975 12.9026364c0 2.1555562-1.7470802 3.9026365-3.9026364 3.9026365s-3.9026365-1.7470803-3.9026365-3.9026365 1.7470803-3.9026364 3.9026365-3.9026364 3.9026364 1.7470802 3.9026364 3.9026364z" fill="#e6a6a6"/></g></svg>