<svg height="50" viewBox="0 0 50 50" width="50" xmlns="http://www.w3.org/2000/svg"><g fill="none" fill-rule="evenodd"><rect fill="#f5effa" fill-rule="nonzero" height="50" rx="5" width="50"/><path d="m29.791031 21.1503103c-.4554103.2941725-.5864448.9028276-.2916172 1.3581725 1.1537586 1.7873103 1.1701379 4.1066206.0425862 5.9103103-.2882759.4605862-.1487241 1.0666207.3118621 1.3542414.161762.1015517.342.1500345.5201413.1500345.3275863 0 .6473759-.1637931.8334449-.4618966 1.5311379-2.447069 1.5082069-5.5951724-.0576552-8.0186552-.2941069-.456-.9034828-.5876896-1.3587621-.2922069z" fill="#bb92dd"/><path d="m34.5835517 19.3531724c-.2895862-.4586207-.8962758-.5948965-1.3555517-.3066207-.4586862.2895862-.5955517.8969311-.3059655 1.3555517 1.9982758 3.165138 1.957 7.2285173-.1048931 10.3523794-.2993483.4527241-.1748655 1.0620344.2785138 1.3614482.1670689.110069.3544482.1624828.5404517.1624828.3191345 0 .6323069-.1546207.8209965-.4415862 2.4876897-3.7665862 2.5374828-8.6666207.1264483-12.4836552z" fill="#9554c9"/><path d="m25.5657586 16.4998966-5.7117276 4.4138965h-3.9697551c-.7239656 0-1.3103449.5863793-1.3103449 1.3103448v6.5517242c0 .7233103.5863793 1.3103448 1.3103449 1.3103448h3.9697551l5.7117276 4.4132414c.8615517.6656551 2.1116207.0517586 2.1116207-1.0364828v-15.9265862c0-1.0882414-1.250069-1.7021379-2.1116207-1.0364827z" fill="#5b2a86"/></g></svg>