<svg height="50" viewBox="0 0 50 50" width="50" xmlns="http://www.w3.org/2000/svg"><g fill="none"><rect fill="#ededed" height="50" rx="5" width="50"/><g fill="#626568" transform="translate(18 15)"><path d="m15 5.15234375v12.97265625c0 1.0351562-.8398438 1.875-1.875 1.875h-11.25c-1.03515625 0-1.875-.8398438-1.875-1.875v-16.25c0-1.03515625.83984375-1.875 1.875-1.875h7.97265625c.49609375 0 .97265625.19921875 1.32421875.55078125l3.2773438 3.27734375c.3515624.34765625.5507812.828125.5507812 1.32421875zm-5-3.125v2.97265625h2.9726562zm3.125 16.09765625v-11.25h-4.0625c-.51953125 0-.9375-.41796875-.9375-.9375v-4.0625h-6.25v16.25z"/><path d="m11.25 9.6875v1.09375c0 .2578125-.2109375.46875-.46875.46875h-6.5625c-.2578125 0-.46875-.2109375-.46875-.46875v-1.09375c0-.2578125.2109375-.46875.46875-.46875h6.5625c.2578125 0 .46875.2109375.46875.46875z" opacity=".638837"/><path d="m9.78125 12.5h-5.5625c-.2578125 0-.46875.2109375-.46875.46875v1.09375c0 .2578125.2109375.46875.46875.46875h5.5625c.2578125 0 .46875-.2109375.46875-.46875v-1.09375c0-.2578125-.2109375-.46875-.46875-.46875z" opacity=".26487"/></g></g></svg>