<svg height="50" viewBox="0 0 50 50" width="50" xmlns="http://www.w3.org/2000/svg"><g fill="none" fill-rule="evenodd"><rect fill="#e1fffc" fill-rule="nonzero" height="50" rx="5" width="50"/><path d="m33.2499768 31.1873664c-.7582553 0-1.3750117-.6169424-1.3750117-1.3750117 0-.7578833.6167564-1.3748256 1.3750117-1.3748256.7582552 0 1.3750116.6169423 1.3750116 1.3748256 0 .7580693-.6167564 1.3750117-1.3750116 1.3750117zm-13.0625175 3.437622c-2.6537073 0-4.8124477-2.1592982-4.8124477-4.8126337 0-2.6531495 2.1587404-4.8124477 4.8124477-4.8124477 2.6512902 0 4.8083571 2.1555794 4.8120759 4.805754 0 .0016734-.0009297.002975-.0009297.0048344 0 .0018593.0011156.0037187.0011156.0055781-.0020453 2.651662-2.159856 4.8089149-4.8122618 4.8089149zm-1.3750116-17.8749652c0-.7580692.6167564-1.3750116 1.3750116-1.3750116.7582553 0 1.3750116.6169424 1.3750116 1.3750116 0 .756024-.6135954 1.371107-1.3692475 1.3744538-.0024172-.0001859-.0046484-.0014875-.0070656-.0014875-.0022313 0-.0040907.0013016-.0063219.0013016-.7547224-.0042766-1.3673882-.6188017-1.3673882-1.3742679zm14.4375291-1.3750116c.7582552 0 1.3750116.6169424 1.3750116 1.3750116 0 .7580693-.6167564 1.3750117-1.3750116 1.3750117-.3785698 0-.7218114-.1539567-.9707824-.402184-.0009297-.0009297-.0011156-.0022312-.0020453-.0033468-.0005579-.0005579-.0014875-.0007438-.0020454-.0013016-.2471116-.2487851-.4001386-.590911-.4001386-.9681793 0-.7580692.6167564-1.3750116 1.3750117-1.3750116zm0 11.6875058c-1.2768364 0-2.3435628.8787431-2.651848 2.0603792h-4.2641165c-.1327598-1.190933-.6052283-2.2796001-1.3177427-3.1693135l6.8432627-6.8443783c.4096214.2422772.8809743.3908417 1.3904445.3908417 1.5163245 0 2.7500232-1.2333269 2.7500232-2.7500233 0-1.5166963-1.2336987-2.7500232-2.7500232-2.7500232-1.5163246 0-2.7500233 1.2333269-2.7500233 2.7500232 0 .5076108.1478207.9774762.3884245 1.3861679l-6.8449361 6.845494c-.8900853-.7119567-1.9787524-1.1842392-3.1698713-1.3162552v-4.262629c1.1834955-.3069837 2.063912-1.3744538 2.063912-2.6527777 0-1.5166963-1.2336988-2.7500232-2.7500233-2.7500232s-2.7500232 1.2333269-2.7500232 2.7500232c0 1.2773942.8791149 2.3441206 2.0611229 2.652034v4.2637446c-3.0882445.3439853-5.498559 2.9679426-5.498559 6.1465529 0 3.4121485 2.7758686 6.1876453 6.1874593 6.1876453 3.179726 0 5.8047989-2.411802 6.1472967-5.5020918h4.2622572c.3066117 1.1838673 1.3746397 2.0644698 2.6529636 2.0644698 1.5163245 0 2.7500232-1.2333269 2.7500232-2.7500233 0-1.5165104-1.2336987-2.7498373-2.7500232-2.7498373z" fill="#55c2b8" stroke="#55c2b8" stroke-width=".5"/></g></svg>