<?xml version="1.0" encoding="UTF-8"?>
<svg width="50px" height="50px" viewBox="0 0 50 50" version="1.1" xmlns="http://www.w3.org/2000/svg" xmlns:xlink="http://www.w3.org/1999/xlink">
    <title>Group 4</title>
    <g id="Page-1" stroke="none" stroke-width="1" fill="none" fill-rule="evenodd">
        <g id="Group-4">
            <g id="Group-2" fill="#ECECEC" fill-rule="nonzero">
                <g id="icon">
                    <rect id="Rectangle" x="0" y="0" width="50" height="50" rx="5"></rect>
                </g>
            </g>
            <path d="M24.9974801,22.8976415 L26.8798217,22.8976415 L26.8798217,24.0606483 L24.9974801,24.0606483 L24.9974801,22.8976415 Z M21.6258965,22.8976415 L24.1457647,22.8976415 L24.1457647,24.0606483 L21.6258965,24.0606483 L21.6258965,22.8976415 Z M18.9749952,22.8976415 L20.5196744,22.8976415 L20.5196744,24.0606483 L18.9749952,24.0606483 L18.9749952,22.8976415 Z M17.8939717,24.0606483 L15.1624346,24.0606483 L15.1624346,22.8976415 L17.8939717,22.8976415 L17.8939717,24.0606483 Z M24.4355495,25.6786337 L26.2599341,25.6786337 L26.2599341,26.8390845 L24.4355495,26.8390845 L24.4355495,25.6786337 Z M21.2050785,25.6786337 L23.0924598,25.6786337 L23.0924598,26.8390845 L21.2050785,26.8390845 L21.2050785,25.6786337 Z M19.8645086,25.6786337 L20.5196744,25.6786337 L20.5196744,26.8390845 L19.8645086,26.8390845 L19.8645086,25.6786337 Z M17.7478193,25.6786337 L18.8389223,25.6786337 L18.8389223,26.8390845 L17.7478193,26.8390845 L17.7478193,25.6786337 Z M16.7373522,26.8390845 L15.1624346,26.8390845 L15.1624346,25.6786337 L16.7373522,25.6786337 L16.7373522,26.8390845 Z M26.2599341,18.5012199 L24.9974801,18.5012199 L24.9974801,17.3407691 L26.2599341,17.3407691 L26.2599341,18.5012199 Z M24.1457647,18.5012199 L21.6258965,18.5012199 L21.6258965,17.3407691 L24.1457647,17.3407691 L24.1457647,18.5012199 Z M20.3432836,18.5012199 L18.9749952,18.5012199 L18.9749952,17.3407691 L20.3432836,17.3407691 L20.3432836,18.5012199 Z M17.8939717,18.5012199 L15.1624346,18.5012199 L15.1624346,17.3407691 L17.8939717,17.3407691 L17.8939717,18.5012199 Z M26.2599341,20.1192053 L28.7924016,20.1192053 L28.7924016,21.2796561 L26.2599341,21.2796561 L26.2599341,20.1192053 Z M25.2015895,21.2796561 L23.0924598,21.2796561 L23.0924598,20.1192053 L25.2015895,20.1192053 L25.2015895,21.2796561 Z M31.0275247,21.2796561 L29.7776701,21.2796561 L29.7776701,20.1192053 L31.0275247,20.1192053 L31.0275247,21.2796561 Z M22.0189959,21.2796561 L20.7691413,21.2796561 L20.7691413,20.1192053 L22.0189959,20.1192053 L22.0189959,21.2796561 Z M19.6578794,21.2796561 L15.1624346,21.2796561 L15.1624346,20.1192053 L19.6578794,20.1192053 L19.6578794,21.2796561 Z M36.8584997,15.1604508 L36.8584997,28.7893575 L13.1415003,28.7893575 L13.1415003,15.1604508 L36.8584997,15.1604508 Z M13.1415003,32.1147903 L13.1415003,29.9498083 L36.8584997,29.9498083 L36.8584997,32.1147903 L13.1415003,32.1147903 Z M28.2229114,34.8421053 L21.7770886,34.8421053 L21.7770886,33.272685 L28.2229114,33.272685 L28.2229114,34.8421053 Z M12,33.272685 L20.6330684,33.272685 L20.6330684,34.8421053 L18.9749952,34.8421053 L18.9749952,36 L31.022485,36 L31.022485,34.8421053 L29.3669316,34.8421053 L29.3669316,33.272685 L38,33.272685 L38,14 L12,14 L12,33.272685 Z" id="Fill-1" fill="#3F3F3F"></path>
        </g>
    </g>
</svg>