<svg height="50" viewBox="0 0 50 50" width="50" xmlns="http://www.w3.org/2000/svg"><g fill="none"><rect fill="#e6f0ff" height="50" rx="5" width="50"/><g transform="translate(13 14)"><path d="m6.37896821 11.4402139-.0144647.7612718.76127189-.0144647 5.5464094-5.54587366-.7468072-.7473429zm-1.37896821 2.126311.05035859-2.6915058 6.87501901-6.8750191 2.6411474 2.64114734-6.8755548 6.87501906z" fill="#7fa5de"/><path d="m2.25373012 1.4c-.47086753 0-.85373012.37688917-.85373012.84041022v13.26641778c0 .4635211.38286259.8404102.85373012.8404102h7.10002429l3.10073469 3.0527618 3.1003233-3.0527618h6.9914575c.4708674 0 .8537301-.3768891.8537301-.8404102v-13.26641778c0-.46352105-.3828627-.84041022-.8537301-.84041022zm10.19584618 19.9978814-3.63347461-3.6338983h-6.87711864c-1.06949152 0-1.93898305-.8694916-1.93898305-1.9389831v-13.88601695c0-1.06949152.86949153-1.93898305 1.93898305-1.93898305h20.90889835c1.0690678 0 1.938983.86949153 1.938983 1.93898305v13.88601695c0 1.0694915-.8699152 1.9389831-1.938983 1.9389831h-6.7648306z" fill="#1c407f"/><path d="m10.5394068 13.7h7.8457627v-1.7h-7.8457627z" fill="#7fa5de"/></g></g></svg>