<svg height="50" viewBox="0 0 50 50" width="50" xmlns="http://www.w3.org/2000/svg"><g fill="none"><rect fill="#ffe7ea" height="50" rx="5" width="50"/><g fill="#f23d53" transform="translate(13 12)"><path d="m24.3665882 20.1299496c0 1.233479-1.0033613 2.2366386-2.2366386 2.2366386h-18.4020841c-1.2334789 0-2.2368403-1.0031596-2.2368403-2.2366386v-16.4020841c0-1.2334789 1.0033614-2.2366386 2.2368403-2.2366386h18.4020841c1.2332773 0 2.2366386 1.0031597 2.2366386 2.2366386zm-2.2366386-20.1299496h-18.4020841c-2.0553277 0-3.7278655 1.6723361-3.7278655 3.7278655v16.4020841c0 2.0553277 1.6725378 3.7278655 3.7278655 3.7278655h18.4020841c2.0553277 0 3.7278655-1.6725378 3.7278655-3.7278655v-16.4020841c0-2.0555294-1.6725378-3.7278655-3.7278655-3.7278655z"/><path d="m5.0026891 4.2544538c.293647-.3111933.2833613-.7671933 0-1.0511597-.2761009-.2833613-.7754622-.2833613-1.0586219-.0076638-.3003025.3180504-.2750924.783126 0 1.0588235.2912269.2906218.7742521.2851765 1.0586219 0z"/><path d="m8.7303529 4.2544538c.2936471-.3111933.2833614-.7671933 0-1.0511597-.2758991-.2761008-.7752605-.2833613-1.0586218 0-.2833614.2839664-.2936471.7399664 0 1.0511597.2912269.2906218.7742521.2851765 1.0586218 0z" opacity=".495233"/><path d="m11.2909766 9.92495155 4.5199324 4.47420715-1.0606602 1.0606602-4.5172295-4.4715316c-.29288563-.2899227-.29528756-.7623823-.0053648-1.05526796.0008896-.00089868.0017814-.00179511.0026756-.00268925l.0026893-.00268929c.2918408-.29184087.7646364-.29304269 1.0579572-.00268925z"/><path d="m3.16421356 13h8.67157284c.4142136 0 .75.3357864.75.75s-.3357864.75-.75.75h-8.67157284c-.41421356 0-.75-.3357864-.75-.75s.33578644-.75.75-.75z" transform="matrix(.70710678 -.70710678 .70710678 .70710678 -7.526019 9.330583)"/><path d="m11.3180195 16.8713203 4.3033008-4.3033008c.2928933-.2928932.767767-.2928932 1.0606602 0s.2928932.7677669 0 1.0606602l-4.3033008 4.3033008c-.2928933.2928932-.767767.2928932-1.0606602 0s-.2928932-.7677669 0-1.0606602z"/><path d="m15.7303301 16.8713203 4.3033008-4.3033008c.2928933-.2928932.767767-.2928932 1.0606602 0s.2928932.7677669 0 1.0606602l-4.3033008 4.3033008c-.2928933.2928932-.767767.2928932-1.0606602 0s-.2928932-.7677669 0-1.0606602z" transform="matrix(-1 0 0 1 36.824622 0)"/></g></g></svg>