<svg height="50" viewBox="0 0 50 50" width="50" xmlns="http://www.w3.org/2000/svg"><g fill="none" fill-rule="evenodd"><rect fill="#e6f1ff" fill-rule="nonzero" height="50" rx="5" width="50"/><g fill="#789cce" transform="translate(14 12)"><path d="m19.3898824 24.2352773h-6.466353v-22.61956301h6.466353zm.8077479-24.2352773h-8.0818488c-.4461512 0-.8079664.36137815-.8079664.80796639v24.23527731c0 .4463697.3618152.8077479.8079664.8077479h8.0818488c.4461512 0 .8079663-.3613782.8079663-.8077479v-24.23527731c0-.44658824-.3618151-.80796639-.8079663-.80796639z"/><path d="m15.5868908 21.2413445c-.3093782.2943026-.3154958.8407395 0 1.1391933.2986722.3157143.8468571.3089412 1.1391932 0 .3272942-.3095966.3170252-.8376807 0-1.1391933-.2988907-.2982353-.840084-.3067563-1.1391932 0z"/><path d="m14.5392437 4.84714286h3.2349244c.4461512 0 .8079664-.36115967.8079664-.8077479 0-.44658824-.3618152-.80796639-.8079664-.80796639h-3.2349244c-.4461513 0-.8077479.36137815-.8077479.80796639 0 .44658823.3615966.8077479.8077479.8077479z"/><path d="m14.5392437 8.07835294h3.2349244c.4461512 0 .8079664-.36115966.8079664-.8077479 0-.44658823-.3618152-.80796638-.8079664-.80796638h-3.2349244c-.4461513 0-.8077479.36137815-.8077479.80796638 0 .44658824.3615966.8077479.8077479.8077479z"/><path d="m8.08206723 24.2352773h-6.46635294v-14.54121007h6.46635294zm.8077479-16.15692436h-8.08184874c-.44615126 0-.80796639.36137815-.80796639.80796639v16.15692437c0 .4463697.36181513.8077479.80796639.8077479h8.08184874c.44615126 0 .80796638-.3613782.80796638-.8077479v-16.15692437c0-.44658824-.36181512-.80796639-.80796638-.80796639z" opacity=".7992"/><path d="m4.27710924 21.2413445c-.30937815.2943026-.31549579.8407395 0 1.1391933.29233614.3089412.84052101.3157143 1.13919328 0 .33057143-.3126554.31068908-.8350588.00830252-1.1391933-.29910924-.3067563-.85647059-.2982353-1.1474958 0z" opacity=".7992"/><path d="m3.23295798 12.9254958h3.23142857c.44615127 0 .8077479-.3613782.8077479-.8077479 0-.4465882-.36159663-.8079664-.8077479-.8079664h-3.23142857c-.44615126 0-.8077479.3613782-.8077479.8079664 0 .4463697.36159664.8077479.8077479.8077479z" opacity=".7992"/><path d="m3.23295798 16.1569244h3.23142857c.44615127 0 .8077479-.3613782.8077479-.8079664 0-.4463698-.36159663-.8077479-.8077479-.8077479h-3.23142857c-.44615126 0-.8077479.3613781-.8077479.8077479 0 .4465882.36159664.8079664.8077479.8079664z" opacity=".7992"/></g></g></svg>