<svg height="50" viewBox="0 0 50 50" width="50" xmlns="http://www.w3.org/2000/svg"><g fill="none" fill-rule="evenodd"><rect fill="#ffedeb" fill-rule="nonzero" height="50" rx="5" width="50"/><g fill="#fe6f62" transform="translate(15 13)"><path d="m17.1479496 20.7201008c0 .3938992-.3204538.7145463-.7145462.7145463h-14.28995802c-.39409244 0-.71435294-.3206471-.71435294-.7145463v-18.57665542c0-.39389916.3202605-.71454622.71435294-.71454622h14.28995802c.3940924 0 .7145462.32064706.7145462.71454622zm-.7145462-20.7201008h-14.28995802c-1.18189076 0-2.14344538.96136135-2.14344538 2.14344538v18.57665542c0 1.1818908.96155462 2.1434454 2.14344538 2.1434454h14.28995802c1.1818907 0 2.1434453-.9615546 2.1434453-2.1434454v-18.57665542c0-1.18208403-.9615546-2.14344538-2.1434453-2.14344538z"/><path d="m7.14507563 5.00143697h4.28689077c.3948655 0 .7145462-.32006722.7145462-.71454621 0-.39467227-.3196807-.71454622-.7145462-.71454622h-4.28689077c-.39505882 0-.71454622.31987395-.71454622.71454622 0 .39447899.3194874.71454621.71454622.71454621z" opacity=".650367"/><path d="m10.0030672 10.7172269c0 .3938992-.32045375.7145462-.71454619.7145462-.39428572 0-.71454622-.320647-.71454622-.7145462s.3202605-.7145462.71454622-.7145462c.39409244 0 .71454619.320647.71454619.7145462zm-2.85799157 0c0 1.182084.96136134 2.1434454 2.14344538 2.1434454 1.18189079 0 2.14344539-.9613614 2.14344539-2.1434454 0-1.18189077-.9615546-2.14344539-2.14344539-2.14344539-1.18208404 0-2.14344538.96155462-2.14344538 2.14344539z"/><path d="m6.01614286 17.8628824c.55122689-1.2804622 1.81893277-2.1434454 3.2745042-2.1434454 1.45615124 0 2.72385714.8629832 3.27450424 2.1434454zm3.2745042-3.5725379c-2.45481513 0-4.52713445 1.7537984-4.92760504 4.1701513-.03421009.2071933.02377311.4190252.15984033.5788655.13606723.1600337.33494958.2524202.54484874.2524202h8.44544541c.0050252.0007731.0106302.0003866.0141092 0 .3948656 0 .7145462-.3198739.7145462-.7143529 0-.0935462-.0175882-.1828404-.0502521-.2645967-.4584537-2.3398151-2.4959832-4.0224874-4.90093274-4.0224874z" opacity=".602516"/></g></g></svg>