<svg height="50" viewBox="0 0 50 50" width="50" xmlns="http://www.w3.org/2000/svg"><g fill="none" fill-rule="evenodd"><rect fill="#efefef" fill-rule="nonzero" height="50" rx="5" width="50"/><g transform="translate(16 14)"><path d="m16.5856599 15.7088435h-11.00823813c-1.01356463 0-1.83780953.8244014-1.83780953 1.8378096v4.116687h-1.90180272c-.50662585 0-.91890476-.4121224-.91890476-.9189047v-18.90678234c0-.50678231.41227891-.91890476.91890476-.91890476h13.82910208c.5064694 0 .9187483.41212245.9187483.91890476zm-11.92714289 5.6944558v-3.8566462c0-.5067824.41227891-.9189048.91890476-.9189048h9.38400003zm11.00839459-21.4032993h-13.82910208c-1.01356462 0-1.83780952.82440136-1.83780952 1.83765306v18.90678234c0 1.0132517.8242449 1.837653 1.83780952 1.837653h2.36133334c.06680952 0 .13268027-.014551.19338775-.0425578l12.84604759-5.9544966c.1627211-.075415.2659864-.2569116.2659864-.4166599v-14.33072104c0-1.0132517-.8242449-1.83765306-1.837653-1.83765306z" fill="#434444" stroke="#434444" stroke-width=".5"/><g fill="#6c6c6c" stroke="#6c6c6c" stroke-width=".25"><path d="m3.72396599 3.6122517h2.59195918v2.59195918h-2.59195918zm-.45937415 3.51086395h3.51070748c.25393878 0 .45937415-.2057483.45937415-.45953062v-3.51070748c0-.25378231-.20543537-.45937415-.45937415-.45937415h-3.51070748c-.25393878 0-.45953062.20559184-.45953062.45937415v3.51070748c0 .25378232.20559184.45953062.45953062.45953062z"/><path d="m3.26459184 10.3110408h10.97600676c.2539388 0 .4593742-.2057483.4593742-.45937413 0-.25378232-.2054354-.45953062-.4593742-.45953062h-10.97600676c-.25393878 0-.45953062.2057483-.45953062.45953062 0 .25362583.20559184.45937413.45953062.45937413z"/><path d="m9.61759864 3.8577415h4.62299996c.2539388 0 .4593742-.2057483.4593742-.45937415 0-.25378232-.2054354-.45953062-.4593742-.45953062h-4.62299996c-.25393878 0-.45953061.2057483-.45953061.45953062 0 .25362585.20559183.45937415.45953061.45937415z"/><path d="m9.61759864 7.08431293h4.62299996c.2539388 0 .4593742-.2057483.4593742-.45953062 0-.25362585-.2054354-.45937415-.4593742-.45937415h-4.62299996c-.25393878 0-.45953061.2057483-.45953061.45937415 0 .25378232.20559183.45953062.45953061.45953062z"/><path d="m14.2405986 13.5376122c.2539388 0 .4593742-.2057483.4593742-.4595306 0-.2536258-.2054354-.4593741-.4593742-.4593741h-10.97600676c-.25393878 0-.45953062.2057483-.45953062.4593741 0 .2537823.20559184.4595306.45953062.4595306z"/></g></g></g></svg>