<svg height="50" viewBox="0 0 50 50" width="50" xmlns="http://www.w3.org/2000/svg"><g fill="none" fill-rule="evenodd"><rect fill="#dffffc" fill-rule="nonzero" height="50" rx="5" width="50"/><g fill="#21b7a9" transform="translate(13 13)"><path d="m23.1168403 14.9191261c-.4118319 0-.7458151.3335798-.7458151.7458151v4.469042h-4.911126l.9642353-.9640336c.2912268-.2914286.2912268-.7631597 0-1.0545883-.2914286-.2912268-.7631597-.2912268-1.0543866 0l-2.2372437 2.2370421c-.2912269.2914285-.2912269.7633613 0 1.0545882l2.2372437 2.237042c.2912269.2914286.762958.2914286 1.0543866 0 .2912268-.2912269.2912268-.7631597 0-1.0543865l-.9642353-.9642353h5.6569411c.411832 0 .7456135-.3335799.7456135-.7456135v-5.2148571c0-.4122353-.3337815-.7458151-.7456135-.7458151z" opacity=".502697"/><path d="m.74561345 8.95220168c.41183193 0 .74561344-.33357983.74561344-.74581513v-4.47791596h4.91415126l-.96786554.97008403c-.29082353.29122689-.29001681.76315967.00121008 1.05438656.29203361.29062185.76436975.29062185 1.05478992-.00141177l2.23704201-2.24228571c.29062185-.29122689.29021849-.76315967-.00060504-1.05378152l-2.23704202-2.23704201c-.29142857-.29122689-.76336134-.29122689-1.05458823 0s-.29122689.76315966 0 1.05438655l.96403361.9642353h-5.65673949c-.41183194 0-.74561345.33357983-.74561345.74581512v5.22352941c0 .4122353.33378151.74581513.74561345.74581513z"/><path d="m6.71233613 22.3748571c-2.87838655 0-5.21989916-2.3421176-5.21989916-5.2198991 0-2.8779832 2.34151261-5.2201009 5.21989916-5.2201009 2.87838656 0 5.21989917 2.3421177 5.21989917 5.2201009 0 2.8777815-2.34151261 5.2198991-5.21989917 5.2198991zm0-11.9314285c-3.70043697 0-6.71132773 3.0104874-6.71132773 6.7115294 0 3.7006386 3.01089076 6.7113277 6.71132773 6.7113277 3.70063867 0 6.71132777-3.0106891 6.71132777-6.7113277 0-3.701042-3.0106891-6.7115294-6.71132777-6.7115294z" opacity=".665713"/><path d="m17.1489076 1.49505882c2.8783865 0 5.2201008 2.34191597 5.2201008 5.21989916 0 2.8779832-2.3417143 5.21989912-5.2201008 5.21989912-2.8781849 0-5.2198992-2.34191592-5.2198992-5.21989912 0-2.87798319 2.3417143-5.21989916 5.2198992-5.21989916zm0 11.93122688c3.7006386 0 6.7115294-3.0104874 6.7115294-6.71132772 0-3.70084033-3.0108908-6.71132773-6.7115294-6.71132773-3.700437 0-6.7113278 3.0104874-6.7113278 6.71132773 0 3.70084032 3.0108908 6.71132772 6.7113278 6.71132772z"/></g></g></svg>