<?xml version="1.0" encoding="UTF-8"?>
<svg width="50px" height="50px" viewBox="0 0 50 50" version="1.1" xmlns="http://www.w3.org/2000/svg" xmlns:xlink="http://www.w3.org/1999/xlink">
    <title>icon</title>
    <defs>
        <linearGradient x1="49.9999992%" y1="2.57136038e-06%" x2="49.9999992%" y2="100.000006%" id="linearGradient-1">
            <stop stop-color="#D9C9FC" offset="0%"></stop>
            <stop stop-color="#B198F8" offset="100%"></stop>
        </linearGradient>
    </defs>
    <g id="Page-1" stroke="none" stroke-width="1" fill="none" fill-rule="evenodd">
        <g id="icon">
            <rect id="Rectangle" fill="#F4EFFF" fill-rule="nonzero" x="0" y="0" width="50" height="50" rx="5"></rect>
            <g transform="translate(10.000000, 13.000000)">
                <path d="M24.8387755,12.2295918 C24.6795918,12.2785714 24.5265306,12.3489796 24.3887755,12.4408163 C24.5693878,12.3459184 24.722449,12.2755102 24.8387755,12.2295918 Z" id="Path"></path>
                <circle id="Oval" cx="24.9642857" cy="8.09387755" r="1"></circle>
                <path d="M30.0336735,11.6326531 C30.3857143,8.81020408 29.5040816,5.85306122 27.6642857,3.68265306 C25.8244898,1.5122449 23.0571429,0.156122449 20.2132653,0.0306122449 C18.9306122,-0.0244897959 17.6020408,0.174489796 16.5061224,0.83877551 C15.4102041,1.50306122 14.5806122,2.69387755 14.577551,3.97653061 C14.5744898,5.04795918 15.1255102,6.05204082 15.8326531,6.85714286 C16.227551,7.30408163 16.6714286,7.70204082 17.1581633,8.04489796 C18.1438776,8.90510204 19.5183673,9.44387755 20.4153061,9.44387755 C21.055102,9.44387755 21.6336735,9.1377551 22.0653061,8.68163265 C22.2826531,8.45204082 22.4663265,8.19183673 22.6163265,7.91326531 C22.7938776,7.58571429 22.855102,7.2 23.0295918,6.86632653 C23.0663265,6.79591837 23.1612245,6.68877551 23.2316327,6.79285714 C23.372449,6.99489796 23.2438776,7.40204082 23.2040816,7.62244898 C23.0265306,8.5622449 22.5673469,9.43469388 21.7377551,9.96122449 C20.755102,10.5979592 19.4418367,10.3806122 18.3673469,9.9122449 C16.6163265,9.14387755 15.177551,7.8 14.2867347,6.10714286 C13.9040816,5.37244898 13.5642857,4.5122449 12.805102,4.17857143 C12.3734694,3.98877551 11.8836735,4.01326531 11.4183673,4.05306122 C7.76326531,4.37755102 3.00306122,5.68163265 1.74183673,9.6122449 C1.39591837,10.6867347 1.35612245,11.822449 1.32857143,12.9397959 C1.30102041,14.0571429 1.28265306,15.1867347 0.964285714,16.2673469 C0.881632653,16.5459184 0.780612245,16.8153061 0.658163265,17.0785714 C0.532653061,17.3510204 0.367346939,17.5867347 0.205102041,17.8346939 C0.113265306,17.9755102 0.0244897959,18.1408163 0.0244897959,18.3153061 C0.0244897959,18.3459184 0.0306122449,18.3765306 0.0397959184,18.4040816 C1.7877551,16.3377551 2.73061224,13.8183673 2.73061224,13.8183673 L2.72755102,13.9867347 C2.74285714,13.9316327 2.76122449,13.8734694 2.77653061,13.8183673 C2.95102041,14.1642857 3.11632653,14.5132653 3.2877551,14.8622449 C4.3255102,17.1214286 4.49387755,19.7418367 4.71734694,22.1877551 C4.75102041,22.5520408 4.8,22.9285714 4.94387755,23.2683673 C5.08469388,23.6020408 5.28061224,23.8683673 5.66020408,23.9173469 C5.99387755,23.9602041 6.37653061,23.9510204 6.71020408,23.9479592 C7.19081633,23.9479592 7.68061224,23.9418367 8.16734694,23.9295918 C8.93877551,19.8734694 10.9438776,19.0408163 11.3204082,18.9214286 C12.1316327,18.627551 13.0714286,18.694898 13.8214286,19.2336735 C14.7153061,19.8734694 14.85,20.9418367 15.0704082,21.9336735 C15.1714286,22.3408163 15.2387755,22.7571429 15.3459184,23.1612245 C15.45,23.5561224 15.6765306,23.8163265 16.0714286,23.9387755 C16.2704082,24 16.6989796,23.9816327 16.9040816,23.9755102 C17.1244898,23.972449 17.3418367,23.9693878 17.5622449,23.9663265 C17.7581633,23.9663265 17.9571429,23.9632653 18.1530612,23.9632653 C18.8969388,16.0653061 22.7908163,13.2673469 24.3887755,12.4408163 C24.5295918,12.3489796 24.6795918,12.2785714 24.8387755,12.2295918 C24.9918367,12.1683673 25.077551,12.1408163 25.077551,12.1408163 L25.0714286,12.1867347 C25.3683673,12.1653061 25.6806122,12.2632653 25.8520408,12.505102 C26.0142857,12.7346939 26.0173469,13.0346939 26.0081633,13.3163265 C25.9469388,14.972449 25.5734694,16.6102041 25.6132653,18.2663265 C25.6530612,19.922449 26.2010204,21.6887755 27.5540816,22.6408163 C28.0163265,22.9653061 28.7877551,23.1061224 29.044898,22.6040816 C29.2163265,22.2673469 29.0326531,21.872449 28.8857143,21.5234694 C28.2367347,19.9683673 28.4112245,18.1867347 28.8122449,16.5459184 C29.2132653,14.9020408 29.8255102,13.3102041 30.0336735,11.6326531 Z M25.744898,8.18571429 C25.6989796,8.61734694 25.3102041,8.92959184 24.8785714,8.88061224 C24.4469388,8.83163265 24.1346939,8.44591837 24.1836735,8.01428571 C24.2295918,7.58265306 24.6183673,7.27040816 25.05,7.31938776 C25.4816327,7.36530612 25.7908163,7.75408163 25.744898,8.18571429 C25.744898,8.18265306 25.744898,8.18571429 25.744898,8.18571429 Z" id="Shape" fill="url(#linearGradient-1)" fill-rule="nonzero"></path>
                <path d="M24.8387755,12.2408163 C24.8602041,12.2339198 24.8816327,12.2270232 24.9030612,12.2201267 C24.9581633,12.2063336 25.0132653,12.1959887 25.0714286,12.1925405 L25.077551,12.1408163 C25.077551,12.1408163 24.9887755,12.1684025 24.8387755,12.2408163 Z" id="Path" fill="#B198F8" fill-rule="nonzero"></path>
                <path d="M18.15,23.9632653 C18.2265306,23.9632653 18.3,23.9632653 18.3765306,23.9632653 C18.8020408,23.972449 19.2183673,23.8959184 19.4785714,23.5285714 C19.6989796,23.2163265 19.677551,22.7540816 19.6867347,22.3928571 C19.7540816,19.0010204 21.3734694,14.8806122 23.9969388,12.7316327 C24.122449,12.627551 24.2510204,12.5295918 24.3887755,12.4408163 C22.7877551,13.2642857 18.8938776,16.0653061 18.15,23.9632653 Z" id="Path" fill="#B198F8" fill-rule="nonzero"></path>
                <path d="M18.15,23.9632653 C18.2265306,23.9632653 18.3,23.9632653 18.3765306,23.9632653 C18.8020408,23.972449 19.2183673,23.8959184 19.4785714,23.5285714 C19.6989796,23.2163265 19.677551,22.7540816 19.6867347,22.3928571 C19.7540816,19.0010204 21.3734694,14.8806122 23.9969388,12.7316327 C24.122449,12.627551 24.2510204,12.5295918 24.3887755,12.4408163 C22.7877551,13.2642857 18.8938776,16.0653061 18.15,23.9632653 Z" id="Path" fill="#9B87D9" fill-rule="nonzero"></path>
                <path d="M8.16734694,23.9295918 C8.2255102,23.9295918 8.28367347,23.9295918 8.34183673,23.9265306 C8.78265306,23.9142857 9.09795918,23.6785714 9.24183673,23.2744898 C9.38571429,22.8612245 9.41326531,22.4112245 9.44387755,21.9765306 C9.4744898,21.5632653 9.48673469,21.1346939 9.59693878,20.7367347 C9.84795918,19.8459184 10.5214286,19.2061224 11.3142857,18.9183673 C10.9408163,19.0408163 8.93571429,19.8765306 8.16734694,23.9295918 Z" id="Path" fill="#B198F8" fill-rule="nonzero"></path>
                <path d="M8.16734694,23.9295918 C8.2255102,23.9295918 8.28367347,23.9295918 8.34183673,23.9265306 C8.78265306,23.9142857 9.09795918,23.6785714 9.24183673,23.2744898 C9.38571429,22.8612245 9.41326531,22.4112245 9.44387755,21.9765306 C9.4744898,21.5632653 9.48673469,21.1346939 9.59693878,20.7367347 C9.84795918,19.8459184 10.5214286,19.2061224 11.3142857,18.9183673 C10.9408163,19.0408163 8.93571429,19.8765306 8.16734694,23.9295918 Z" id="Path" fill="#9B87D9" fill-rule="nonzero"></path>
                <path d="M0.0428571429,18.4071429 C0.0520408163,18.4346939 0.0704081633,18.4591837 0.0918367347,18.477551 C0.247959184,18.5908163 0.483673469,18.3795918 0.596938776,18.2846939 C0.798979592,18.1102041 0.964285714,17.8928571 1.12653061,17.6816327 C1.37755102,17.3510204 1.57959184,16.9867347 1.72959184,16.5979592 C2.0755102,15.7346939 2.46734694,14.8897959 2.73061224,13.9959184 L2.73367347,13.8275482 C2.73367347,13.8244898 1.79081633,16.3408163 0.0428571429,18.4071429 Z" id="Path" fill="#B198F8" fill-rule="nonzero"></path>
                <path d="M0.0428571429,18.4071429 C0.0520408163,18.4346939 0.0704081633,18.4591837 0.0918367347,18.477551 C0.247959184,18.5908163 0.483673469,18.3795918 0.596938776,18.2846939 C0.798979592,18.1102041 0.964285714,17.8928571 1.12653061,17.6816327 C1.37755102,17.3510204 1.57959184,16.9867347 1.72959184,16.5979592 C2.0755102,15.7346939 2.46734694,14.8897959 2.73061224,13.9959184 L2.73367347,13.8275482 C2.73367347,13.8244898 1.79081633,16.3408163 0.0428571429,18.4071429 Z" id="Path" fill="#9B87D9" fill-rule="nonzero"></path>
            </g>
        </g>
    </g>
</svg>