<svg height="50" viewBox="0 0 50 50" width="50" xmlns="http://www.w3.org/2000/svg"><g fill="none" fill-rule="evenodd"><rect fill="#ffe4ca" fill-rule="nonzero" height="50" rx="5" width="50"/><g fill="#ef7e34" stroke="#ef7e34" stroke-width=".5" transform="translate(12 10)"><path d="m22.2610714 21.5157321h-18.59892854c-2.01964286 0-3.66214286-1.6430357-3.66214286-3.6621428 0-2.0196429 1.6425-3.6626786 3.66214286-3.6626786h18.59892854c.24 0 .435.1944643.435.435 0 .24-.195.435-.435.435h-18.59892854c-1.54017857 0-2.79214286 1.2530357-2.79214286 2.7926786 0 1.5396428 1.25196429 2.7916071 2.79214286 2.7916071h18.59892854c.24 0 .435.195.435.435 0 .2405357-.195.4355357-.435.4355357z"/><path d="m21.4966071 21.5157321c-.1644642 0-.3225-.0942857-.3958928-.2544642-.9878572-2.1658929-.9878572-4.65 0-6.8158929.1001786-.2185714.3583928-.315.5764286-.2153571.2191071.0996428.315.3578571.2153571.5764285-.8833929 1.9360715-.8833929 4.1571429 0 6.0932143.0996429.2185714.00375.4767857-.2153571.5764286-.0583929.0267857-.1194643.0396428-.1805358.0396428z"/><path d="m8.20178571 19.0605536h.77196429v-1.395h-.77196429zm1.20696429.87h-1.64196429c-.24053571 0-.43607142-.1955357-.43607142-.4355357v-2.265c0-.24.19553571-.435.43607142-.435h1.64196429c.24 0 .435.195.435.435v2.265c0 .24-.195.4355357-.435.4355357z"/><path d="m13.2305357 17.6655536h-8.80446427c-.24 0-.435-.195-.435-.4355357 0-.24.195-.435.435-.435h8.80446427c.24 0 .4344643.195.4344643.435 0 .2405357-.1944643.4355357-.4344643.4355357z"/><path d="m24.5828571 27.9700179h-7.7276785c-.24 0-.435-.195-.435-.435s.195-.4355358.435-.4355358h7.7276785c.24 0 .435.1955358.435.4355358s-.195.435-.435.435z"/><path d="m13.6692857 27.9700179h-7.68589284c-2.01910715 0-3.66160715-1.6430358-3.66160715-3.6626786 0-2.0191072 1.6425-3.6621429 3.66160715-3.6621429h18.59946424c.24 0 .435.195.435.435 0 .2405357-.195.4355357-.435.4355357h-18.59946424c-1.53964286 0-2.79160715 1.2519643-2.79160715 2.7916072 0 1.5396428 1.25196429 2.7921428 2.79160715 2.7921428h7.68589284c.2405357 0 .4355357.1955358.4355357.4355358s-.195.435-.4355357.435z"/><path d="m23.8183929 27.9700179c-.1644643 0-.3225-.0942858-.3958929-.2544643-.9878571-2.1653572-.9878571-4.65 0-6.8153572.1001786-.2185714.3578571-.3155357.5764286-.2153571.2185714.0991071.315.3578571.2153571.5758928-.8833928 1.9366072-.8833928 4.1576786 0 6.09375.0996429.2185715.0032143.4767858-.2153571.5758929-.0583929.0273214-.12.0396429-.1805357.0396429z"/><path d="m19.7705357 24.1198393h-8.8044643c-.2405357 0-.435-.1944643-.435-.435 0-.24.1944643-.435.435-.435h8.8044643c.24 0 .4344643.195.4344643.435 0 .2405357-.1944643.435-.4344643.435z"/><path d="m14.22 24.1198393v4.29l.7992857-.7992857c.1628572-.1628572.4516072-.1628572.615 0l.7858929.7858928v-4.2766071zm-.435 5.775c-.05625 0-.1125-.0101786-.1666071-.0326786-.1623215-.0675-.2689286-.2260714-.2689286-.4017857v-5.7755357c0-.24.195-.435.4355357-.435h3.0701786c.2405357 0 .4355357.195.4355357.435v5.7616071c0 .17625-.1060714.3348215-.2689286.4023215-.1628571.0680357-.3498214.0305357-.4741071-.0948215l-1.2208929-1.2208928-1.2342857 1.2348214c-.0830357.0830357-.1944643.1269643-.3075.1269643z"/><path d="m9.21428571 5.91144643c-.87107142 0-1.9725.15857143-2.71982142.83517857-.61017858.55178571-.91928572 1.39607143-.91928572 2.50821429.00053572 1.78339281.59357143 3.26196431 1.67035714 4.16250001.73392858.6133928 1.62214286.8817857 2.44017858.7339286.82714281-.1478572 1.66553571-.1478572 2.49321431 0 .8175.1483928 1.70625-.1205358 2.4391071-.7339286 1.0767857-.9005357 1.6708929-2.3791072 1.6708929-4.16250001 0-1.09178572-.3053572-1.92428572-.9075-2.47339286-.9889286-.90375-2.6094643-.90482143-3.4858929-.82446429-.6417857.05892857-1.2883928.05625-1.9205357-.00696428-.21589286-.02142857-.47571429-.03857143-.76071429-.03857143zm.02517858 9.14999997c-.88875 0-1.79196429-.34125-2.55160715-.9766071-1.27875-1.0692857-1.98214285-2.7846429-1.98267857-4.83000001 0-1.36875.40553572-2.42892858 1.20535714-3.15321429 1.17803572-1.06660714 2.90732143-1.14267857 4.15071429-1.01732143.5780357.05732143 1.1683929.05946429 1.755.00589286 1.2460714-.11410714 2.9780357-.02410714 4.1523214 1.04785714.7901786.72160714 1.1903572 1.77 1.1903572 3.11678572 0 2.04535711-.7044643 3.76071431-1.9821429 4.83000001-.9321428.7794643-2.0807143 1.1153571-3.1516071.9230357-.7253572-.1296429-1.4608929-.1296429-2.18571431 0-.19821429.0353571-.39857143.0535714-.6.0535714z"/><path d="m15.1446429 9.90680357c-.24 0-.4344643-.19553571-.4344643-.43553571 0-.75910715-.2094643-1.335-.6214286-1.71107143-.68625-.62625-1.8267857-.62517857-2.445-.56946429-.2383929.02035715-.4510714-.15428571-.4730357-.39321428-.0214286-.23946429.1542857-.45107143.39375-.47303572.93-.08517857 2.2248214-.01607143 3.1108928.79285715.6.54803571.9048215 1.34035714.9048215 2.35392857 0 .24053571-.1955357.43553571-.4355357.43553571z"/><path d="m10.9317857 5.996625c-.2025 0-.3841071-.1425-.4258928-.34821429-.0042858-.02035714-.4317858-2.04482142-1.81767861-3.47410714-.16714286-.17196428-.16285715-.44785714.00964285-.615.17196429-.16714286.44785715-.16285714.615.00964286 1.56749996 1.61678571 2.02714286 3.81375 2.04589286 3.90642857.0476786.23571429-.105.46446429-.3401786.51214286-.0294643.00589285-.0578571.00910714-.0867857.00910714z"/><path d="m10.7255357 3.11394643c1.2369643.11357143 2.2130357-.10982143 2.9073214-.66696429.6101786-.48910714.8775-1.14642857.9932143-1.57553571-2.8741071-.05678572-3.6814285 1.48446428-3.9005357 2.2425zm.60375.89892857c-.3733928 0-.7676786-.03107143-1.1823214-.09267857-.22553573-.03375-.38678573-.23571429-.36964287-.46232143.00214286-.03857143.33803567-3.80571429 5.39946427-3.43178571.2378572.01767857.4173214.22339285.4023214.46178571-.0042857.06428571-.1141071 1.59642857-1.3907142 2.62875-.7371429.59625-1.6960715.89625-2.8591072.89625z"/></g></g></svg>