<svg height="50" viewBox="0 0 50 50" width="50" xmlns="http://www.w3.org/2000/svg"><g fill="none" fill-rule="evenodd"><rect fill="#e8ffc9" fill-rule="nonzero" height="50" rx="5" width="50"/><g transform="translate(12 10)"><path d="m16.9544711 14.213883-3.4688546 4.2022279-1.3864229-2.3857619c-.1589351-.27342-.5167299-.3711405-.8002701-.2166631-.2825231.1547241-.3824615.5024215-.2230178.7768285l1.8133862 3.1196527c.2036913.3504118.7097408.391869.9696315.0762516l4.0117769-4.8606074c.2031827-.2452883.1624953-.6038435-.091038-.8007651-.2540419-.1971684-.6230257-.1564515-.8251912.0888368z" fill="#e66f3f" stroke="#e66f3f" stroke-width=".5"/><path d="m26.9321404 22.3709488h-7.520763v-.5705707c0-2.0990985 1.686867-3.8067092 3.7604659-3.8067092 2.073599 0 3.7602971 1.7076107 3.7602971 3.8067092zm-19.14972987 1.0809912h1.34064821c.29523971 0 .53392978-.2417962.53392978-.5404956v-1.1110663c0-2.0121202-1.20762998-3.7429707-2.92758271-4.4915991.68163403-.5608304 1.1183322-1.4152339 1.1183322-2.3716531 0-1.2988642-.80621201-2.4083926-1.93737339-2.8501192.81228899-1.4948643 2.02211344-2.74461733 3.47366644-3.59970433-.13757596.45334649-.21235652.93420476-.21235652 1.43242452v1.11106631c0 .2986994.23869008.5404956.53376098.5404956h8.58912898c.2952397 0 .5339298-.2417962.5339298-.5404956v-1.11106631c0-.49821976-.0749494-.97907803-.2125254-1.43242452 1.4522283.85491612 2.6639096 2.10381473 3.4763674 3.59867913-1.1325119.441043-1.9399055 1.5512549-1.9399055 2.8511444 0 .9564192.436867 1.8108227 1.1183322 2.371824-1.7194463.7486283-2.9270763 2.4794789-2.9270763 4.4914282v1.1110663c0 .2986994.2386901.5404956.5339298.5404956h1.3403106c-3.5379811 3.2875737-8.8909521 3.2925293-12.43551657 0zm-6.71455098-1.6515619c0-2.0990985 1.68686699-3.8067092 3.76046591-3.8067092s3.76080351 1.7076107 3.76080351 3.8067092v.5705707h-7.52126942zm1.8087441-6.8632522c0-1.0893645.87542201-1.9755518 1.95172181-1.9755518 1.07613099 0 1.951553.8861873 1.951553 1.9755518 0 1.0893644-.87542201 1.9755517-1.951553 1.9755517-1.0762998 0-1.95172181-.8861873-1.95172181-1.9755517zm11.12373395-8.82403991c2.0735989 0 3.7602971 1.70761079 3.7602971 3.8066409v.57057061h-7.5212694v-.57057061c0-2.09903011 1.6873734-3.8066409 3.7609723-3.8066409zm-1.9522282-3.05654299c0-1.08936444.8760972-1.97555172 1.9522282-1.97555172s1.951553.88618728 1.951553 1.97555172c0 1.08936443-.875422 1.9757226-1.951553 1.9757226s-1.9522282-.88635817-1.9522282-1.9757226zm13.075287 11.8805829c0 1.0893644-.8754221 1.9755517-1.9515531 1.9755517-1.0761309 0-1.951553-.8861873-1.951553-1.9755517 0-1.0893645.8754221-1.9755518 1.951553-1.9755518 1.076131 0 1.9515531.8861873 1.9515531 1.9755518zm-.0506415 2.371824c.681634-.5610013 1.118501-1.4154048 1.118501-2.371824 0-1.6790737-1.3448683-3.0456067-3.0013504-3.0556886-1.1350439-2.27144876-3.083896-4.07936651-5.4231938-5.01186247-.493079-.62268925-1.1318366-1.12183176-1.8654625-1.44120778.681634-.56100133 1.118501-1.4154048 1.118501-2.37182405 0-1.68522542-1.354659-3.056543-3.0194126-3.056543-1.6654288 0-3.019919 1.37131758-3.019919 3.056543 0 .95641925.4366982 1.81082272 1.118501 2.37182405-.7337947.3195469-1.3727211.81886029-1.8658001 1.44172042-2.33879134.93283772-4.28747467 2.73990107-5.42285616 5.01134983-1.65648211.0100819-3.00135044 1.3766149-3.00135044 3.0556886 0 .9564192.43669817 1.8108227 1.1183322 2.371824-1.71944632.7486283-2.9272451 2.4794789-2.9272451 4.4914282v1.1110663c0 .2986994.23885888.5404956.53392978.5404956h5.72873058c4.10651584 4.7301486 11.36782584 4.7313447 15.47451044 0h5.7288994c.2952397 0 .5339298-.2417962.5339298-.5404956v-1.1110663c0-2.0119493-1.20763-3.7427999-2.9272451-4.4914282z" fill="#15834f" stroke="#15834f" stroke-width=".4"/></g></g></svg>