<svg height="50" viewBox="0 0 50 50" width="50" xmlns="http://www.w3.org/2000/svg"><g fill="none" fill-rule="evenodd"><rect fill="#ddfbb6" fill-rule="nonzero" height="50" rx="5" width="50"/><path d="m30.0082273 35.8846342c.21933-1.5323327.9157164-2.2162783 1.6167988-2.681514.0027623-.0019089.0055247-.0035452.0080108-.0054541.0870137-.0575409.1740275-.112082.2602126-.1641688 1.2104582-.7303055 2.7736676-.7556671 3.9810873-.0591771.793897.4578727 1.647737 1.1619985 1.9833615 2.910314zm-5.1117138-7.1236152c-.0132593-.0736305-.0198889-.1532605-.0198889-.2429807 0-.8805663.725391-1.5972365 1.6176275-1.5972365.0809366 0 .1610445.0062722.244191.0196348.7811903.1167179 1.3706741.7949367 1.3706741 1.5776017 0 .3845149-.1406032.7543037-.3991584 1.0447351-.3052388.3490632-.7483185.5495018-1.2157067.5495018-.7872675 0-1.4734332-.5759542-1.5977386-1.3512562zm-11.673381 3.7955163c.3383869-1.7224085 1.1239969-2.4150806 1.8662382-2.861227 1.2162592-.7308509 2.8369252-.7292147 4.0534606.0040906.1475091.088902.3013716.1911666.455234.3108844.0030386.002727.0063534.0051814.0096682.0076357.5836829.4573273 1.1684707 1.1846331 1.4289595 2.5386163zm2.2836281-6.7423728c0-.8702035.7168277-1.5778745 1.5980148-1.5778745.8828445 0 1.6010534.707671 1.6010534 1.5778745 0 .2489802-.0571804.4884157-.1693315.7098526-.2743006.5366846-.8226255.8704762-1.4317219.8704762-.6093726 0-1.1563163-.3329735-1.4278545-.8691126-.1129798-.2228005-.1701603-.462236-.1701603-.7112162zm16.8212815 3.3275535c0-.8699308.7168278-1.5776018 1.5980149-1.5776018.8825682 0 1.6007771.707671 1.6007771 1.5776018 0 .2489802-.0571804.4886884-.1690553.7098526-.2743006.5366846-.8226254.8704762-1.4317218.8704762-.6093727 0-1.1563164-.3329735-1.4278546-.8693854-.1129798-.2225277-.1701603-.4619632-.1701603-.7109434zm-7.1591617-9.5452407c1.1980277-.7322145 2.73168-.778029 3.9247355-.1131728.8275976.4619632 1.7170718 1.1739975 2.0584972 2.952856h-7.8110744c.3417017-1.7207722 1.0797995-2.382356 1.8278417-2.8396832zm.4533003-3.903235c0-.8699308.717104-1.5776018 1.5982911-1.5776018.8825682 0 1.6007772.707671 1.6007772 1.5776018 0 .2489802-.0571805.4884157-.1696078.7098526-.2737481.53723-.8223492.8704762-1.4311694.8704762-.6093727 0-1.1565926-.3329735-1.4281308-.8693853-.1127036-.2222551-.1701603-.4614179-.1701603-.7109435zm13.361172 20.0656766c-.314907-1.7395889-1.1217871-2.9302215-2.5388686-3.7477928-.3861754-.2225277-.8005267-.38806-1.2292421-.4971423.4856197-.2566159.8925127-.6528571 1.152449-1.1619984.1919828-.3790608.2892172-.7862102.2892172-1.2102674 0-1.4851546-1.2250986-2.6932403-2.7308512-2.6932403-1.5043715 0-2.728089 1.2080857-2.728089 2.6932403 0 .4240572.0975107.8314793.2894935 1.2102674.2602126.5137773.6718015.9130182 1.1634984 1.1693615-.4488806.1153545-.8831207.2907041-1.2878038.5274126l-2.4778208-2.2070063c.2289982-.4008772.3535798-.8554774.3535798-1.3237129 0-1.1407274-.7389265-2.1491926-1.7847492-2.5380708l.3577233-2.4284432h3.4062439c.3198792 0 .6212507-.1390798.8270452-.3812424.2030321-.2391628.287836-.5519561.2328654-.8579317-.4207047-2.3264514-1.7013264-3.2831025-2.6283684-3.8001523-.3579995-.1996205-.7400314-.3479723-1.1342176-.4494188.4828574-.2568887.8875405-.652039 1.1460957-1.1589987.192259-.3790608.2897697-.7864829.2897697-1.2105401 0-1.4851546-1.2250987-2.6932403-2.7308513-2.6932403-1.5043715 0-2.728089 1.2080857-2.728089 2.6932403 0 .4243299.0975107.8314793.2892172 1.2102674.2599364.5126865.6701442.911382 1.1604599 1.1677253-.4773327.1243537-.940025.3152476-1.3679117.5767723-.8775961.5364118-1.9386116 1.4363403-2.3576589 3.6550729-.0582854.3073392.0251373.6220414.2284457.8639312.2057944.2443442.5079947.3845149.8295313.3845149h3.395747l-.3334147 2.2615474c-1.3991262.0788119-2.5187034 1.1933596-2.5838947 2.578704l-3.6479488.6062245c-.1204381-.086175-.2419812-.1715319-.3734687-.2508892-.4195997-.252798-.8767673-.4357835-1.350509-.553865.4914207-.2563433.9032859-.6553115 1.1654321-1.1690888.1919828-.3796062.2892172-.7867556.2892172-1.2099947 0-1.4854273-1.2250987-2.693513-2.7308513-2.693513-1.5046476 0-2.7280889 1.2080857-2.7280889 2.693513 0 .4237845.0975107.8306612.2894934 1.2102674.2607651.5148681.6729065.9146545 1.1662608 1.1709977-.4668358.1172634-.9170975.2983399-1.3303439.5470474-1.4811678.8898383-2.2515849 2.2181872-2.4982621 4.3073847-.0187839.1581692.0320432.3166111.1392221.4352381.1071788.1191723.260765.187076.4220858.187076h8.5364655c.3196029 0 .6212507-.1390798.8267689-.3815151.2041371-.240799.288941-.5549559.2331417-.862295-.1798285-.9929211-.5242925-1.8009477-1.0444415-2.4668947l2.8148265-.4679628c.3980534 1.0308271 1.3988499 1.7344075 2.5623484 1.7344075.6016381 0 1.1789675-.1952572 1.6482894-.5454112l2.2808658 2.0316566c-.7179327.6272228-1.3402883 1.544059-1.5449779 3.0932994-.0395014.2994307.0544182.6018612.2574503.8301158.2046896.2304362.5002602.3624257.8101949.3624257h7.9773674c.3198792 0 .6212508-.1390798.8270452-.3815151.2035846-.2399809.2883885-.5535923.2328655-.859568z" fill="#016837" stroke="#016837" stroke-width=".4"/></g></svg>