<svg height="50" viewBox="0 0 50 50" width="50" xmlns="http://www.w3.org/2000/svg"><g fill="none" fill-rule="evenodd"><rect fill="#dfffd4" fill-rule="nonzero" height="50" rx="5" width="50"/><g fill="#1a8048" transform="translate(13 12)"><path d="m16.1159853 14.1511691-1.4751177-1.4751176 9.5314853-9.53119856 1.0795736 1.07976471c.2175588.21660294.221.57314706 0 .79357353-11.6367206 11.63758092-7.9860147 7.98305142-9.1359412 9.13297792zm3.5333235 6.9980147v1.1810883c0 1.3086029-1.0646617 2.3730735-2.3726912 2.3730735h-11.17254407c.57754412-.6245735.92988235-1.4598235.92988235-2.3738382v-1.1820442zm-13.73794115-.5630147v1.7433383c0 1.2449411-.95932353 2.2765294-2.18954412 2.3629411-1.45982353-.1024706-2.59904412-1.3231323-2.59904412-2.7932794v-19.62263969h15.15130879v2.63517647c-2.6808676 2.68383088-1.600147 1.60263236-5.0944706 5.09686032-.0003823.0001912-.0003823.0005735-.0005735.0009559-.0680588.0680588-.1296176.1932794-.1452941.2533088l-1.61773529 6.1591323c-.10897059.4119853.26783823.7947206.68517649.6855589l6.1591323-1.6177353c.0042059-.0011471.0078383-.0038236.0120441-.0049706 0 0 .0011471-.0001912.0017206-.0001912v4.5400588h-9.80142644c-.31027941 0-.56129411.2513971-.56129411.5614853zm9.11663235-5.9333529-4.2821618 1.1245 1.1246912-4.2821618zm6.4770588-13.3820662c.2110588-.21201471.5815588-.21201471.7937647 0l1.0797647 1.07995588-9.5314853 9.53158092-1.4755-1.4755c3.1075736-3.11101474 1.2602353-1.2629118 9.1334559-9.1360368zm4.5406324 4.54158824c.6586029-.65917648.6580294-1.72364706 0-2.38167648l-2.953103-2.95386764c-.6364264-.63566177-1.7460147-.63547059-2.3814853 0l-3.3144264 3.31461764v-2.07617647c0-.31008823-.2510147-.56148529-.5612941-.56148529h-16.27389711c-.31047058 0-.56148529.25139706-.56148529.56148529v20.18393381c0 1.948853 1.42942647 3.5843677 3.31691176 3.8762941.17530883.0787647 13.76757354.0506618 13.95970584.0506618 1.9274412 0 3.4954706-1.5680294 3.4954706-3.4958529v-1.7425736c0-.309897-.2512058-.5612941-.5614853-.5612941h-2.8139264v-5.5647647z"/><path d="m3.92580882 5.47414706h8.77327938c.3102794 0 .5614853-.25139706.5614853-.5614853 0-.30989705-.2512059-.56129411-.5614853-.56129411h-8.77327938c-.31027941 0-.56148529.25139706-.56148529.56129411 0 .31008824.25120588.5614853.56148529.5614853z"/><path d="m3.92580882 9.28056618h4.38654412c.31047059 0 .5614853-.25139706.5614853-.56129412 0-.31008824-.25101471-.5614853-.5614853-.5614853h-4.38654412c-.31027941 0-.56148529.25139706-.56148529.5614853 0 .30989706.25120588.56129412.56148529.56129412z" opacity=".765253"/><path d="m8.31235294 12.8079632c.31047059 0 .5614853-.251397.5614853-.5612941 0-.3100882-.25101471-.5614853-.5614853-.5614853h-4.38654412c-.31027941 0-.56148529.2513971-.56148529.5614853 0 .3098971.25120588.5612941.56148529.5612941z" opacity=".596773"/></g></g></svg>