<svg height="50" viewBox="0 0 50 50" width="50" xmlns="http://www.w3.org/2000/svg"><g fill="none" fill-rule="evenodd"><rect fill="#efefef" fill-rule="nonzero" height="50" rx="5" width="50"/><g stroke-linecap="round" stroke-linejoin="round" stroke-width="1.359091" transform="translate(14 14)"><path d="m13.7021277 2.47181489h-9.29787238l-4.40425532 4.40425532v14.68085109c0 .5402553.43846809.9787234.9787234.9787234h12.7234043c.5402553 0 .9787234-.4384681.9787234-.9787234v-18.106383c0-.54025532-.4384681-.97872341-.9787234-.97872341z" stroke="#434444"/><path d="m16.6382979 21.0675596 3.4255319-.4893617c.6728723-.0915107 1.0560425-.3660426.9787234-.9787234l-2.4468085-18.59574471c-.0817234-.77465958-.7134894-1.10106383-1.4680851-.97872341l-9.78723407.97872341" stroke="#6c6c6c"/><path d="m4.40425532 2.47181489v3.42553192c0 .54025532-.43846809.9787234-.97872341.9787234h-3.42553191" stroke="#434444"/><g stroke="#6c6c6c"><path d="m2.44680851 18.1313894 3.42553192-3.9148937 3.42553191 3.9148937"/><path d="m7.92765957 16.5654319 1.37021277-1.3702128 2.93617026 2.9361703"/><path d="m11.7446809 11.2803255c0 .8108724-.6572128 1.4680851-1.4680852 1.4680851-.8108723 0-1.46808506-.6572127-1.46808506-1.4680851 0-.8108723.65721276-1.46808507 1.46808506-1.46808507.8108724 0 1.4680852.65721277 1.4680852 1.46808507z"/></g></g></g></svg>