<svg height="50" viewBox="0 0 50 50" width="50" xmlns="http://www.w3.org/2000/svg"><g fill="none"><rect fill="#f2eeff" height="50" rx="5" width="50"/><g fill="#2a089b" transform="translate(13 13)"><path d="m23.3033614 10.0981513c0 .4285714-.3483194.7768908-.7768907.7768908h-3.8838237v-2.33046226c0-1.28508404-1.0453781-2.3302311-2.330252-2.3302311h-5.4376051v-3.88409664c0-.43529411.3413866-.77668068.7768908-.77668068h10.87479c.4285713 0 .7768907.34831934.7768907.77668068zm-6.2142857 12.1069327-2.5569329-2.5569327c-.0718487-.0720589-.1579831-.1294118-.2535714-.1689076-.0949579-.0390755-.1955881-.0596638-.2966387-.0596638h-11.6516806c-.42857143 0-.77668068-.3483194-.77668068-.7768908v-10.09810926c0-.42857144.34810925-.77668068.77668068-.77668068h13.9821429c.4352941 0 .7766807.34138656.7766807.77668068zm5.437395-22.205084h-10.87479c-1.2850841 0-2.33046221 1.04537815-2.33046221 2.3302521v3.88409664h-6.99096639c-1.28487395 0-2.3302521 1.04514706-2.3302521 2.3302311v10.09810926c0 1.2850841 1.04537815 2.330252 2.3302521 2.330252h11.330042l3.6563025 3.6565126c.4871849.4869749 1.3260504.1451681 1.3260504-.5493697v-11.6516806h3.8838237c1.285084 0 2.330462-1.0451681 2.330462-2.3302521v-7.7678992c0-1.28487395-1.045378-2.3302521-2.330462-2.3302521z"/><path d="m4.8882353 12.6546639c-.30735295.3056722-.29096639.805042 0 1.0945377.29621848.2978993.80063025.302311 1.10294118 0 .29138654-.2913865.3077731-.7867646 0-1.0945377-.28739497-.2951681-.81554623-.2876051-1.10294118 0z"/><path d="m8.77205883 12.6546639c-.30735294.3056722-.2909664.805042 0 1.0945377.29642857.2978993.80084033.302311 1.10294117 0 .2913866-.2913865.3079832-.7867646 0-1.0945377-.28739497-.2951681-.81533614-.2876051-1.10294117 0z" opacity=".453939"/><path d="m12.6560924 12.6546639c-.3042016.2869747-.2966386.8147059 0 1.0945377.2802521.2972691.8067227.3039917 1.0953783 0 .3018907-.2863444.3176469-.7932773 0-1.0945377-.2800421-.2951681-.8163867-.2876051-1.0953783 0z" opacity=".211449"/></g></g></svg>