<svg height="50" viewBox="0 0 50 50" width="50" xmlns="http://www.w3.org/2000/svg"><g fill="none" fill-rule="evenodd"><rect fill="#d0f6e5" fill-rule="nonzero" height="50" rx="5" width="50"/><g fill="#0e804c" transform="translate(10 16)"><path d="m8.69569892 6h-3.69569892v1.73819355h3.69569892z"/><path d="m8.69569892 12h-3.69569892v1.7381935h3.69569892z"/><path d="m26 4h-4v1h4z"/><path d="m11 9h-6v1.7381935h6z"/><path d="m25 6h-3v1h3z"/><path d="m28.7617883 6.40623693c-.0028595.04899044-.0114095.09591501-.0171286.1443152-.0114668.09739062-.0228764.19481075-.0429218.28981087-.0028595.0115098-.0057191.02272448-.0085786.0345294-.4174936 2.19099383-2.2961862 3.781117-4.4637501 3.781117-.6691335 0-1.3125312-.1466761-1.9101475-.4358968-.0829554-.0389562-.1687418-.0590246-.2573591-.0590246-.0343145 0-.0657695.0026561-.1000841.0082635l-2.4449397.4134674.6748527-2.02247852c.0543599-.16084209.0428931-.3373257-.031455-.48931409-.3231286-.65369765-.4860941-1.36553454-.4860941-2.11514719 0-1.60251839.7777963-3.07872409 2.0845798-3.94874696.7349317-.49167507 1.5870476-.75167851 2.470647-.75167851 2.5106807 0 4.5524246 2.10865448 4.5524246 4.70042547 0 .15169327-.0057477.30191092-.0200455.45035783zm-4.5323791-6.40623693c-.320269 0-.634819.03010256-.9464808.08292959-.7778249.13251027-1.5213066.42497725-2.1846925.87031799v.00059025l-.0028596.00029512v.00029513c-1.6499861 1.10169449-2.6365006 2.97100415-2.6365006 5.00145102 0 .84316667.1715727 1.68043088.5032799 2.43801185l-.9293522 2.77356685c-.0686576.2089471-.028624.4403236.1114937.6094291.1143818.1428396.2859545.2231131.4632463.2231131.0343432 0 .0657982-.0026561.1001127-.0082634l3.2712911-.5530607c.7120267.3137158 1.4669467.4727872 2.250462.4727872 2.722287 0 5.0871595-1.98234183 5.6447422-4.72374022.0057191-.02242936.0143263-.04574408.0171859-.06961954.0714886-.37542608.1086627-.7667593.1086627-1.16222424 0-3.28412976-2.587917-5.9558791-5.7705908-5.9558791z"/><path d="m1.74064516 10.138c0-3.58834409 2.91741936-6.50780645 6.5049871-6.50780645 3.59161294 0 6.50899144 2.91946236 6.50899144 6.50780645 0 1.0378495-.2329033 2.0233978-.6905377 2.9292688-.1103226.2100215-.1266666.4543656-.0490322.6770538l.9683871 2.8001505-3.4976344-.5724516c-.1715721-.0273763-.3513979-.0036774-.5066667.0702796-.8580645.4004301-1.77741937.6030967-2.73350754.6030967-3.58756774 0-6.5049871-2.9190537-6.5049871-6.5073978zm9.72064514 7.5914194 4.6784946.7657204c.0449463.0077634.0939785.0114408.1389656.0114408.0040861-.0004086.0081312 0 .0122172 0 .4780646 0 .8662366-.3889892.8662366-.8690967 0-.1487312-.0367742-.2884731-.1021505-.4110538l-1.2789248-3.7125591c.4698925-1.0488818.7191398-2.2080861.7191398-3.375871 0-4.54692473-3.7018946-8.246-8.24963654-8.246-4.54365592 0-8.24563226 3.69907527-8.24563226 8.246 0 4.5469247 3.70197634 8.2455914 8.24563226 8.2455914 1.11952903 0 2.20236554-.219828 3.21565804-.654172z"/></g></g></svg>