<svg height="50" viewBox="0 0 50 50" width="50" xmlns="http://www.w3.org/2000/svg"><g fill="none" fill-rule="evenodd"><rect fill="#e5f2ff" fill-rule="nonzero" height="50" rx="6" width="50"/><path d="m0 7.447242v-7.447242h2.259853 2.259853v3.1843385 3.1843375h2.5680145 2.568015v-3.1843375-3.1843385h1.850928 1.850927l-.0578255.2311215c-.2128655.850795-1.772606 7.837052-1.7539305 7.856052.0127635.0129835.9059545.1464345 1.98487.296557l1.961663.2729515.332631-.3788455c.390987-.4453105.746348-.6465635 1.2971925-.734647 1.3322615-.2130375 2.5978815 1.119534 2.3024675 2.424267-.2423575 1.0704035-.9413085 1.63997-2.0125095 1.63997-.6841155 0-1.2530405-.257797-1.628958-.738132l-.2605665-.332943-1.726478.237435c-2.5228575.346956-2.299483.2714125-2.139907.7237.540885 1.533029 1.5051635 2.573411 2.9276025 3.158655l.567445.233468-2.747776.002435-2.7477755.0024415v-2.722095-2.722096h-2.568015-2.5680145v2.722096 2.722095h-2.259853-2.259853zm20.7606055 7.2054185c.733813-.3018625 1.041471-.5237095 1.717347-1.2383475 1.554523-1.64368 1.908428-4.373078.810053-6.2473135-.3774055-.6439935-1.3093585-1.4791945-2.031774-1.8208435-1.2688145-.6000545-3.101609-.671603-4.4576495-.174018-.3934035.144355-.734567.2431755-.7581425.219601-.0382415-.0382425.107419-.6950685.4041015-1.8221985l.101393-.385202h3.3858195 3.3858205v-1.592169-1.5921695h3.240029c3.534482 0 4.345354.088414 5.3143775.579455 1.038012.5260005 1.780969 1.577985 2.016233 2.85487.2334935 1.2672715.100438 2.4593445-.391945 3.511543-.384414.8214735-.8935345 1.372866-1.6253225 1.760269-1.104587.584761-1.532788.6645575-3.853905.718191l-2.131453.049251v2.7104535 2.710453l-2.850496-.002435-2.850496-.002435.5760095-.236949zm7.891748-8.597908c.5999835-.335827.858678-.815559.788187-1.461636-.0294985-.270354-.15171-.62929-.271582-.797635-.369836-.5193865-.7423485-.643877-2.076403-.693914l-1.2069675-.0452715v1.669117 1.669115l1.1591315-.0443675c.988277-.0378285 1.225241-.0813715 1.607634-.295408z" fill="#2475be" transform="translate(8 18)"/></g></svg>