<svg height="50" viewBox="0 0 50 50" width="50" xmlns="http://www.w3.org/2000/svg"><g fill="none" fill-rule="evenodd"><rect fill="#eff0ff" fill-rule="nonzero" height="50" rx="5" width="50"/><g fill="#9097fd" stroke="#9097fd" stroke-width=".5" transform="translate(9 11)"><path d="m6.636 1.05264865c-1.25848649 0-2.28237838 1.02389189-2.28237838 2.28237838 0 1.25924324 1.02389189 2.28389189 2.28237838 2.28389189 1.25924324 0 2.28389189-1.02464865 2.28389189-2.28389189 0-1.25848649-1.02464865-2.28237838-2.28389189-2.28237838zm0 5.61891892c-1.83891892 0-3.33578378-1.49686487-3.33578378-3.33654054 0-1.83891892 1.49686486-3.33502703 3.33578378-3.33502703 1.83967568 0 3.33654054 1.49610811 3.33654054 3.33502703 0 1.83967567-1.49686486 3.33654054-3.33654054 3.33654054z" opacity=".6"/><path d="m12.7468108 10.7383784c-.2905946 0-.5267027-.2353514-.5267027-.525946v-.34583781c0-.37535135-.2353513-.71967567-.5857297-.85513513l-2.16129732-.83621622-2.48745946 2.21124326c-.19902703.1778378-.49945946.1778378-.69924324 0l-2.48745946-2.21124326-2.15978378.83621622c-.35113514.13545946-.58648649.47978378-.58648649.85513513v.34583781c0 .2905946-.23535135.525946-.5267027.525946-.2905946 0-.52594595-.2353514-.52594595-.525946v-.34583781c0-.80745945.50627027-1.54529729 1.25924324-1.83664864l2.45945946-.95275676c.18389189-.07113514.392-.0332973.53956757.09762162l2.37772973 2.11437838 2.37848649-2.11437838c.14756756-.13091892.35643243-.16875676.53956756-.09762162l2.46021625.95275676c.7522162.29135135 1.2584865 1.02918919 1.2584865 1.83664864v.34583781c0 .2905946-.2361082.525946-.525946.525946z" opacity=".6"/><path d="m26.3585946 1.05264865c-1.2592432 0-2.2838919 1.02389189-2.2838919 2.28237838 0 1.25924324 1.0246487 2.28389189 2.2838919 2.28389189s2.2838919-1.02464865 2.2838919-2.28389189c0-1.25848649-1.0246487-2.28237838-2.2838919-2.28237838zm0 5.61891892c-1.8396757 0-3.3357838-1.49686487-3.3357838-3.33654054 0-1.83891892 1.4961081-3.33502703 3.3357838-3.33502703s3.3357838 1.49610811 3.3357838 3.33502703c0 1.83967567-1.4961081 3.33654054-3.3357838 3.33654054z" opacity=".6"/><path d="m32.4686486 10.7383784c-.2905945 0-.5259459-.2353514-.5259459-.525946v-.34583781c0-.37535135-.2361081-.71967567-.5864865-.85513513l-2.1605405-.83621622-2.4874595 2.21124326c-.1997838.1778378-.4994594.1778378-.6992432 0l-2.4874595-2.21124326-2.1605405.83621622c-.3503784.13545946-.5864865.47978378-.5864865.85513513v.34583781c0 .2905946-.2353514.525946-.525946.525946s-.5267027-.2353514-.5267027-.525946v-.34583781c0-.80745945.5062703-1.54529729 1.2592433-1.83664864l2.4594594-.95275676c.1838919-.07113514.392-.0332973.5395676.09762162l2.3784865 2.11437838 2.3784865-2.11437838c.1475675-.13091892.3549189-.16875676.5388108-.09762162l2.4602162.95275676c.752973.29135135 1.2584865 1.02918919 1.2584865 1.83664864v.34583781c0 .2905946-.2353514.525946-.525946.525946z" opacity=".6"/><path d="m16.4980541 18.3014054c-1.2592433 0-2.2838919 1.0246487-2.2838919 2.2838919 0 1.2584865 1.0246486 2.2823784 2.2838919 2.2823784 1.2584864 0 2.2823783-1.0238919 2.2823783-2.2823784 0-1.2592432-1.0238919-2.2838919-2.2823783-2.2838919zm0 5.6196757c-1.8396757 0-3.3365406-1.4961081-3.3365406-3.3357838s1.4968649-3.3357838 3.3365406-3.3357838c1.8389189 0 3.3357837 1.4961081 3.3357837 3.3357838s-1.4968648 3.3357838-3.3357837 3.3357838z"/><path d="m22.6081081 27.9878919c-.2913513 0-.5267027-.2353514-.5267027-.525946v-.3458378c0-.3753513-.2353513-.7189189-.5864865-.8551351l-2.1597838-.836973-2.4874594 2.212c-.1997838.1778378-.500973.1778378-.7 0l-2.4874595-2.212-2.1605405.836973c-.3503784.1362162-.5857298.4797838-.5857298.8551351v.3458378c0 .2905946-.2361081.525946-.5267027.525946s-.52670266-.2353514-.52670266-.525946v-.3458378c0-.8074595.50627026-1.5452973 1.25924326-1.8366486l2.4594594-.9527568c.1838919-.0711351.3927568-.0340541.5403244.0976216l2.3784865 2.1143784 2.3769729-2.1143784c.1483244-.1316757.3564325-.1687567.5403244-.0976216l2.4594594.9527568c.752973.2913513 1.2592433 1.0291891 1.2592433 1.8366486v.3458378c0 .2905946-.2353514.525946-.525946.525946z"/><path d="m30.3648649 14.7461622h-27.73513517c-.28983784 0-.52594595-.2361081-.52594595-.5267027v-1.8358919c0-.2905946.23610811-.525946.52594595-.525946.29059459 0 .5267027.2353514.5267027.525946v1.3099459h26.68248647v-1.3099459c0-.2905946.2353514-.525946.525946-.525946.2913513 0 .5259459.2353514.5259459.525946v1.8358919c0 .2905946-.2345946.5267027-.5259459.5267027z"/><path d="m16.4980541 16.5321081c-.2913514 0-.5274595-.2353513-.5274595-.5259459v-1.7867027c0-.2905946.2361081-.525946.5274595-.525946.2898378 0 .5259459.2353514.5259459.525946v1.7867027c0 .2905946-.2361081.5259459-.5259459.5259459z"/></g></g></svg>