<svg enable-background="new 0 0 512 512" height="512" viewBox="0 0 512 512" width="512" xmlns="http://www.w3.org/2000/svg"><g fill="#5f80c5"><path d="m458.667 192h-106.667c-5.888 0-10.667 4.779-10.667 10.667s4.779 10.667 10.667 10.667h106.667c17.643 0 32 14.357 32 32v213.333c0 17.643-14.357 32-32 32h-213.334c-17.643 0-32-14.357-32-32v-85.333c0-5.888-4.779-10.667-10.667-10.667s-10.666 4.778-10.666 10.666v85.333c0 29.398 23.936 53.334 53.333 53.334h213.333c29.398 0 53.334-23.936 53.334-53.333v-213.334c0-29.397-23.936-53.333-53.333-53.333z"/><path d="m160 298.667h-10.667c-5.888 0-10.667 4.779-10.667 10.667s4.779 10.666 10.667 10.666h10.667c5.888 0 10.667-4.779 10.667-10.667s-4.779-10.666-10.667-10.666z"/><path d="m62.741 0h-9.408c-5.098 0-10.133.725-14.976 2.133-5.653 1.664-8.896 7.595-7.253 13.248 1.365 4.651 5.632 7.659 10.24 7.659 1.003 0 2.005-.128 3.008-.427 2.901-.853 5.909-1.28 8.981-1.28h9.408c5.909 0 10.667-4.779 10.667-10.667s-4.779-10.666-10.667-10.666z"/><path d="m21.333 257.216v-21.568c0-5.888-4.779-10.667-10.667-10.667s-10.666 4.779-10.666 10.667v21.568c0 5.888 4.779 10.667 10.667 10.667s10.666-4.779 10.666-10.667z"/><path d="m10.667 203.179c5.888 0 10.667-4.779 10.667-10.667v-21.568c0-5.888-4.779-10.667-10.667-10.667s-10.667 4.779-10.667 10.667v21.568c0 5.888 4.779 10.667 10.667 10.667z"/><path d="m10.667 73.792c5.888 0 10.667-4.779 10.667-10.667v-9.792c0-2.965.405-5.888 1.195-8.704 1.6-5.675-1.685-11.563-7.36-13.163-5.632-1.685-11.563 1.664-13.163 7.36-1.323 4.715-2.006 9.601-2.006 14.507v9.792c0 5.888 4.779 10.667 10.667 10.667z"/><path d="m10.667 138.496c5.888 0 10.667-4.779 10.667-10.667v-21.568c0-5.888-4.779-10.667-10.667-10.667s-10.667 4.779-10.667 10.667v21.568c0 5.888 4.779 10.667 10.667 10.667z"/><path d="m44.587 297.451c-5.163-1.472-9.941-4.267-13.781-8.085-4.16-4.16-10.923-4.117-15.083.043-4.16 4.181-4.139 10.944.043 15.083 6.4 6.379 14.357 11.029 22.997 13.483.981.277 1.963.405 2.923.405 4.629 0 8.917-3.051 10.24-7.744 1.621-5.676-1.665-11.585-7.339-13.185z"/><path d="m307.605 51.968c.981 0 1.984-.128 2.987-.448 5.653-1.664 8.917-7.573 7.253-13.227-2.517-8.619-7.253-16.533-13.675-22.891-4.181-4.139-10.944-4.117-15.083.085-4.139 4.181-4.096 10.944.085 15.083 3.84 3.84 6.699 8.576 8.192 13.717 1.367 4.652 5.612 7.681 10.241 7.681z"/><path d="m256.832 0h-21.568c-5.888 0-10.667 4.779-10.667 10.667s4.779 10.667 10.667 10.667h21.568c5.888 0 10.667-4.779 10.667-10.667s-4.779-10.667-10.667-10.667z"/><path d="m106.219 298.667h-21.568c-5.888 0-10.667 4.779-10.667 10.667s4.779 10.666 10.667 10.666h21.568c5.888 0 10.667-4.779 10.667-10.667s-4.779-10.666-10.667-10.666z"/><path d="m309.333 73.6c-5.888 0-10.667 4.779-10.667 10.667v21.568c0 5.888 4.779 10.667 10.667 10.667s10.667-4.779 10.667-10.667v-21.568c0-5.91-4.779-10.667-10.667-10.667z"/><path d="m192.149 0h-21.568c-5.909 0-10.667 4.779-10.667 10.667s4.779 10.667 10.667 10.667h21.547c5.909 0 10.688-4.779 10.688-10.667s-4.779-10.667-10.667-10.667z"/><path d="m127.445 0h-21.568c-5.888 0-10.667 4.779-10.667 10.667s4.779 10.667 10.667 10.667h21.568c5.888 0 10.667-4.779 10.667-10.667s-4.779-10.667-10.667-10.667z"/><path d="m309.333 138.667c-5.888 0-10.667 4.779-10.667 10.667v10.666c0 5.888 4.779 10.667 10.667 10.667s10.667-4.779 10.667-10.667v-10.667c0-5.888-4.779-10.666-10.667-10.666z"/><path d="m349.952 185.515-33.067-33.067c-12.971-12.971-34.112-12.971-47.083 0-3.883 3.883-6.613 8.512-8.171 13.419-11.627-4.053-25.536-1.045-34.496 7.915-4.885 4.885-7.915 10.923-9.131 17.237-10.176-1.429-20.8 2.027-28.203 9.429-7.083 7.083-10.304 16.576-9.664 25.856-7.189.981-13.824 4.245-19.029 9.451-6.293 6.293-9.749 14.656-9.749 23.552s3.456 17.28 9.749 23.552l9.557 9.557v38.251c.002 29.397 23.938 53.333 53.335 53.333h43.733c64.107 0 116.267-52.16 116.267-116.267 0-31.04-12.096-60.245-34.048-82.218zm-82.219 177.152h-43.733c-17.643 0-32-14.357-32-32v-16.917l24.469 24.469c4.16 4.16 10.923 4.16 15.083 0 2.069-2.091 3.115-4.821 3.115-7.552s-1.045-5.461-3.115-7.552l-55.36-55.36c-2.261-2.24-3.499-5.269-3.499-8.448s1.237-6.187 3.499-8.448c4.523-4.523 12.395-4.523 16.917 0l23.36 23.36c4.16 4.16 10.923 4.16 15.083 0 2.069-2.091 3.115-4.821 3.115-7.552s-1.045-5.461-3.115-7.531l-26.667-26.667c-4.672-4.672-4.672-12.245 0-16.917 4.523-4.523 12.395-4.523 16.917 0l16 16c4.16 4.16 10.923 4.16 15.083 0 2.069-2.091 3.115-4.821 3.115-7.552s-1.045-5.461-3.115-7.531l-10.667-10.667c-4.672-4.672-4.672-12.245 0-16.917 4.523-4.523 12.395-4.523 16.917 0l10.667 10.667c4.16 4.16 10.923 4.16 15.083 0 2.069-2.091 3.115-4.821 3.115-7.552s-1.045-5.461-3.136-7.552c-2.261-2.24-3.499-5.248-3.499-8.448s1.259-6.208 3.52-8.448c4.672-4.672 12.245-4.672 16.917 0l33.067 33.067c17.92 17.92 27.797 41.771 27.797 67.115.001 52.351-42.581 94.933-94.933 94.933z"/></g></svg>