<svg height="50" viewBox="0 0 50 50" width="50" xmlns="http://www.w3.org/2000/svg"><g fill="none" fill-rule="evenodd"><rect fill="#f1ffcc" fill-rule="nonzero" height="50" rx="6" width="50"/><g transform="translate(12 12)"><g stroke-width="1.588235"><path d="m7.880538 11.146267h13.658823" stroke="#c9eb6c"/><path d="m7.880538 15.910973h13.658823" stroke="#c9eb6c"/><path d="m7.880538 20.675679h13.658823" stroke="#c9eb6c"/><path d="m22.6377847 26.8697965h-15.90363529c-1.16671765 0-2.11267059-.945953-2.11267059-2.112353v-22.45761526c0-1.1664.94595294-2.11238471 2.11267059-2.11238471h15.90363529c1.1667494 0 2.1127024.94598471 2.1127024 2.11238471v22.45761526c0 1.1664-.945953 2.112353-2.1127024 2.112353z" stroke="#8dbb11"/><path d="m17.2746318 2.57678471v3.0989647c0 .92784706.7521882 1.6800353 1.6800353 1.6800353h3.4970082" stroke="#8dbb11"/></g><path d="m15.5024788 23.5843729h-14.37699174c-.53876118 0-.97552588-.4367647-.97552588-.9754941v-6.2131764c0-.5387295.4367647-.9754942.97552588-.9754942h14.37699174c.5387612 0 .9755259.4367647.9755259.9754942v6.2131764c0 .5387294-.4367647.9754941-.9755259.9754941z" fill="#f1ffcc"/><path d="m15.5024788 23.5843729h-14.37699174c-.53876118 0-.97552588-.4367647-.97552588-.9754941v-6.2131764c0-.5387295.4367647-.9754942.97552588-.9754942h14.37699174c.5387612 0 .9755259.4367647.9755259.9754942v6.2131764c0 .5387294-.4367647.9754941-.9755259.9754941z" stroke="#8dbb11" stroke-width="1.270588"/><path d="m3.898 21.7c.044 0 .082-.016.114-.048s.048-.07.048-.114v-1.146h.42c.564 0 1.006-.117 1.326-.351s.48-.591.48-1.071c0-.484-.161-.85-.483-1.098s-.763-.372-1.323-.372h-1.818c-.044 0-.082.016-.114.048s-.048.07-.048.114v3.876c0 .044.016.082.048.114s.07.048.114.048zm.552-2.418h-.42v-.666h.42c.096 0 .166.034.21.102s.066.148.066.24c0 .108-.028.189-.084.243s-.12.081-.192.081zm4.2 2.418c.592 0 1.063-.138 1.413-.414s.537-.69.561-1.242c.008-.216.012-.362.012-.438 0-.08-.004-.232-.012-.456-.012-.348-.106-.646-.282-.894s-.412-.436-.708-.564-.634-.192-1.014-.192h-1.728c-.044 0-.082.016-.114.048s-.048.07-.048.114v3.876c0 .044.016.082.048.114s.07.048.114.048zm-.03-1.17h-.39v-1.86h.36c.144 0 .263.04.357.12s.145.2.153.36c.008.108.012.256.012.444 0 .184-.004.334-.012.45-.008.16-.055.281-.141.363s-.199.123-.339.123zm3.858 1.17c.044 0 .082-.016.114-.048s.048-.07.048-.114v-1.128h1.596c.044 0 .082-.016.114-.048s.048-.07.048-.114v-.906c0-.044-.016-.082-.048-.114s-.07-.048-.114-.048h-1.596v-.444h1.716c.044 0 .082-.016.114-.048s.048-.07.048-.114v-.912c0-.044-.016-.082-.048-.114s-.07-.048-.114-.048h-3.024c-.044 0-.082.016-.114.048s-.048.07-.048.114v3.876c0 .044.016.082.048.114s.07.048.114.048z" fill="#8dbb11" fill-rule="nonzero"/></g></g></svg>