<svg height="50" viewBox="0 0 50 50" width="50" xmlns="http://www.w3.org/2000/svg"><g fill="none" fill-rule="evenodd"><rect fill="#ffe7e8" fill-rule="nonzero" height="50" rx="5" width="50"/><g fill="#e40b0d" transform="translate(13 13)"><path d="m8.99040698 5.07877907h-2.34156977v-2.34186047h2.34156977zm.38023255-3.10261628h-3.10232558c-.20988372 0-.38023255.17005814-.38023255.38052326v3.10261628c0 .21017441.17034883.38023255.38023255.38023255h3.10232558c.21017442 0 .38052326-.17005814.38052326-.38023255v-3.10261628c0-.21046512-.17034884-.38052326-.38052326-.38052326z" opacity=".79734"/><path d="m8.99040698 10.0296512h-2.34156977v-2.34127911h2.34156977zm.38023255-3.10203492h-3.10232558c-.20988372 0-.38023255.17005814-.38023255.38052325v3.10203487c0 .2104651.17034883.3802326.38023255.3802326h3.10232558c.21017442 0 .38052326-.1697675.38052326-.3802326v-3.10203487c0-.21046511-.17034884-.38052325-.38052326-.38052325z" opacity=".59554"/><path d="m8.99040698 14.9811047h-2.34156977v-2.3418605h2.34156977zm.38023255-3.1023256h-3.10232558c-.20988372 0-.38023255.1700581-.38023255.3802325v3.1026163c0 .2101744.17034883.3802326.38023255.3802326h3.10232558c.21017442 0 .38052326-.1700582.38052326-.3802326v-3.1026163c0-.2101744-.17034884-.3802325-.38052326-.3802325z" opacity=".2992"/><path d="m10.7206395 3.31976744h4.2883721c.2101744 0 .3805233-.17005814.3805233-.38023256 0-.21017441-.1703489-.38052325-.3805233-.38052325h-4.2883721c-.2098837 0-.3802325.17034884-.3802325.38052325 0 .21017442.1703488.38023256.3802325.38023256z" opacity=".79734"/><path d="m10.7206395 5.25668605h2.2412791c.2101744 0 .3805233-.17005814.3805233-.38023256 0-.21046512-.1703489-.38052326-.3805233-.38052326h-2.2412791c-.2098837 0-.3802325.17005814-.3802325.38052326 0 .21017442.1703488.38023256.3802325.38023256z" opacity=".79734"/><path d="m17.255814 7.51046512h-6.5351745c-.2098837 0-.3802325.17005814-.3802325.38023255 0 .21046512.1703488.38052326.3802325.38052326h6.5351745c.2098837 0 .3802325-.17005814.3802325-.38052326 0-.21017441-.1703488-.38023255-.3802325-.38023255z" opacity=".59554"/><path d="m10.7206395 10.2078488h4.4880814c.2098838 0 .3802326-.1703488.3802326-.38052322s-.1703488-.38052325-.3802326-.38052325h-4.4880814c-.2098837 0-.3802325.17034883-.3802325.38052325s.1703488.38052322.3802325.38052322z" opacity=".59554"/><path d="m17.255814 12.4616279h-6.5351745c-.2098837 0-.3802325.1700581-.3802325.3802326 0 .2101744.1703488.3805232.3802325.3805232h6.5351745c.2098837 0 .3802325-.1703488.3802325-.3805232 0-.2101745-.1703488-.3802326-.3802325-.3802326z" opacity=".2992"/><path d="m15.2087209 14.3982558h-4.4880814c-.2098837 0-.3802325.1703489-.3802325.3805233s.1703488.3802325.3802325.3802325h4.4880814c.2098838 0 .3802326-.1700581.3802326-.3802325s-.1703488-.3805233-.3802326-.3805233z" opacity=".2992"/><path d="m23.9540698 19.5313953c0 .3555233-.2892442.6450582-.6447675.6450582h-21.90348835c-.35552325 0-.64505814-.2895349-.64505814-.6450582v-1.8130813h23.19331399zm-8.9476745 4.4331396h-5.29796507v-3.0270349h5.29796507zm-13.60058135-19.66366281h2.36569768v12.65668601h-3.01075582v-12.01162787c0-.35581395.28953489-.64505814.64505814-.64505814zm3.12674419-3.54011628h11.19360466v4.0758721c0 .21017442.1703488.38023256.3805232.38023256h4.0758721v11.74069763h-15.64999996zm11.95436046.5377907 3.1575581 3.15755814h-3.1575581zm6.8223837 3.00232558c.3555233 0 .6447675.28924419.6447675.64505814v12.01162787h-3.0107558v-12.12093019c0-.09738372-.0383721-.19593024-.1119187-.26947675l-.266279-.26627907zm0-.76075581h-3.5049418l-3.4287791-3.42848837c-.0680233-.06860465-.165407-.11162791-.2688954-.11162791h-11.95465112c-.21017441 0-.38052325.17005814-.38052325.38023256v3.15988372h-2.36569768c-.77529069 0-1.40581395.63052325-1.40581395 1.40581395v14.58546507c0 .7755814.63052326 1.4061047 1.40581395 1.4061047h7.54186047v3.0270349h-2.32354651c-.21017442 0-.38052326.1703488-.38052326.3802325 0 .2104652.17034884.3805233.38052326.3805233h11.46686049c.2098837 0 .3802325-.1700581.3802325-.3805233 0-.2098837-.1703488-.3802325-.3802325-.3802325h-2.3238372v-3.0270349h7.5421511c.775 0 1.4055233-.6305233 1.4055233-1.4061047v-14.58546507c0-.7752907-.6305233-1.40581395-1.4055233-1.40581395z" stroke="#e40b0d" stroke-width=".5"/></g></g></svg>