<svg height="50" viewBox="0 0 50 50" width="50" xmlns="http://www.w3.org/2000/svg"><g fill="none"><rect fill="#f1f1ff" height="50" rx="5" width="50"/><g transform="translate(14 17)"><path d="m17.05 12.375h.9625c.275 0 .55-.275.55-.55v-9.9c0-.275-.275-.55-.55-.55h-.9625c-.275 0-.55.275-.55.55v9.9c0 .275.275.55.55.55zm-8.25 0h.9625c.275 0 .55-.275.55-.55v-8.525c0-.275-.275-.55-.55-.55h-.9625c-.275 0-.55.275-.55.55v8.525c0 .275.275.55.55.55zm4.125 0h.9625c.275 0 .55-.275.55-.55v-5.775c0-.275-.275-.55-.55-.55h-.9625c-.275 0-.55.275-.55.55v5.775c0 .275.275.55.55.55z" fill="#7f7ff0"/><path d="m21.3125 14.4375h-19.25v-13.75c0-.37984375-.30765625-.6875-.6875-.6875h-.6875c-.37984375 0-.6875.30765625-.6875.6875v14.4375c0 .7592578.61574219 1.375 1.375 1.375h19.9375c.3798437 0 .6875-.3076562.6875-.6875v-.6875c0-.3798437-.3076563-.6875-.6875-.6875z" fill="#b9b9fa"/><path d="m4.675 12.375h.9625c.275 0 .55-.275.55-.55v-3.025c0-.275-.275-.55-.55-.55h-.9625c-.275 0-.55.275-.55.55v3.025c0 .275.275.55.55.55z" fill="#7f7ff0"/></g></g></svg>