<svg height="50" viewBox="0 0 50 50" width="50" xmlns="http://www.w3.org/2000/svg"><g fill="none" fill-rule="evenodd"><rect fill="#f0f0ff" fill-rule="nonzero" height="50" rx="5" width="50"/><g stroke-linecap="round" stroke-linejoin="round" transform="translate(14 13)"><path d="m14.893617 2.68675532h-10.10638296l-4.78723404 4.78723404v15.95744684c0 .587234.47659575 1.0638298 1.06382979 1.0638298h13.82978721c.5872341 0 1.0638298-.4765958 1.0638298-1.0638298v-19.68085109c0-.58723405-.4765957-1.06382979-1.0638298-1.06382979z" stroke="#3f45e6" stroke-width="1.3"/><path d="m18.0851064 22.8995213 3.7234042-.5319149c.731383-.0994681 1.1478724-.3978724 1.0638298-1.0638298l-2.6595744-20.21276596c-.0888298-.84202128-.775532-1.19680851-1.5957447-1.06382979l-10.6382979 1.06382979" stroke="#7c81f8" stroke-width="1.3"/><path d="m4.78723404 2.68675532v3.72340425c0 .58723405-.47659574 1.06382979-1.06382978 1.06382979h-3.72340426" stroke="#3f45e6" stroke-width="1.3"/><g stroke="#7c81f8" stroke-width="1.06383"><path d="m13.8297872 13.8569681h-2.1276595v4.787234"/><path d="m11.702128 16.516543h1.595744"/><path d="m2.65957447 16.5165426h1.06382979c.53191489 0 1.06382978 0 1.06382978-1.3170213 0-1.3425532-.53191489-1.3425532-1.06382978-1.3425532h-1.06382979v4.787234"/><path d="m6.91489362 18.6442021h1.06382978c.5319149 0 1.59574469-.5319149 1.59574469-2.6595744 0-1.3425532-1.06382979-2.1276596-1.59574469-2.1276596h-1.06382978z"/></g></g></g></svg>