<svg height="50" viewBox="0 0 50 50" width="50" xmlns="http://www.w3.org/2000/svg"><g fill="none" fill-rule="evenodd"><rect fill="#f4f4ff" fill-rule="nonzero" height="50" rx="5" width="50"/><g fill="#9090f8"><path d="m33.1341849 35.3712269h-16.4055126c-1.2336807 0-2.2372437-1.003563-2.2372437-2.2372437v-12.6768403h20.8797983v12.6768403c0 1.2336807-1.003563 2.2372437-2.237042 2.2372437zm0-20.8797983c1.233479 0 2.237042 1.013647 2.237042 2.2596302v2.2146555h-20.8797983v-2.2146555c0-1.2459832 1.003563-2.2596302 2.2372437-2.2596302zm0-1.4914286h-16.4055126c-2.0557311 0-3.7286723 1.6727395-3.7286723 3.7284706v.0225882 16.3829244c0 2.0559328 1.6729412 3.7286723 3.7286723 3.7286723h16.4055126c2.0557311 0 3.7284706-1.6727395 3.7284706-3.7286723v-16.4055126c0-2.0557311-1.6727395-3.7284706-3.7284706-3.7284706z"/><path d="m16.201479 16.1990588c-.2894118.2894118-.2867899.7736471 0 1.0588236.7238319.6905546 1.7392941-.3672606 1.051563-1.0588236-.2761008-.2758991-.7756638-.2758991-1.051563 0z" opacity=".597377"/><path d="m20.242958 17.2578824c.2884033-.3039328.2894117-.7605379-.0070588-1.0588236-.2761009-.2758991-.7684034-.2758991-1.0517647 0-.2894118.2894118-.2865883.7736471 0 1.0588236.3051428.2910252.7583193.2853781 1.0588235 0z" opacity=".597377"/><path d="m23.2185546 17.2578824c.293042-.2930421.3011093-.7561009 0-1.0588236-.2758991-.2758991-.7682017-.2758991-1.051563 0-.2894118.2894118-.2865882.7736471 0 1.0588236.3107899.2964705.7714286.2803361 1.051563 0z" opacity=".597377"/><path d="m20.4571429 26.4226555c0-1.6449076 1.3377479-2.9828572 2.9828571-2.9828572s2.9828571 1.3379496 2.9828571 2.9828572c0 1.6451092-1.3377479 2.9828571-2.9828571 2.9828571s-2.9828571-1.3377479-2.9828571-2.9828571zm6.6225882 2.592605c.5231597-.7323025.8345546-1.6259496.8345546-2.592605 0-2.4671597-2.007126-4.4742858-4.4742857-4.4742858-2.4673613 0-4.4742857 2.0071261-4.4742857 4.4742858 0 2.4673613 2.0069244 4.4742857 4.4742857 4.4742857.9628235 0 1.8532437-.3085715 2.5839328-.8278992l3.6016134 3.5945546c.2938488.2922353.7659832.2884034 1.0543866-.0016134.2906218-.2912269.2906218-.7631597-.0014118-1.0543866z" opacity=".597377"/></g></g></svg>