<svg height="50" viewBox="0 0 50 50" width="50" xmlns="http://www.w3.org/2000/svg"><g fill="none" fill-rule="evenodd"><rect fill="#e4f5f5" fill-rule="nonzero" height="50" rx="6" width="50"/><g fill="#3d6767" transform="translate(12 12)"><path d="m11.353875 6.8225625.5110625-.3989375.6825 1.0245625-1.13425 3.011125c-.9043125-.1235-1.4714375-.3323125-1.6534375-.4834375.1941875-2.065375.641875-2.413125 1.594125-3.1533125zm1.646125-5.1975625c.895375 0 1.625.7288125 1.625 1.625s-.729625 1.625-1.625 1.625c-.897 0-1.625-.7288125-1.625-1.625s.728-1.625 1.625-1.625zm3.2426875 8.3484375c-.1795625.1519375-.7475.362375-1.6566875.485875l-1.1350625-3.011125.6825-1.0245625.511875.3989375c.9628125.7483125 1.408875 1.09525 1.597375 3.150875zm-7.1955 1.4714375c.849875.49075 2.4009375.736125 3.9528125.736125 1.5510625 0 3.10375-.2461875 3.9528125-.736125.8019375-.4639375.9221875-1.070875.9197858-1.45925-.2372858-2.770625-.9652858-3.462875-2.2303483-4.446l-.2055625-.1600625c.4996875-.572.8133125-1.3105625.8133125-2.1295625 0-1.7948125-1.4551875-3.25-3.25-3.25-1.795625 0-3.25 1.4551875-3.25 3.25 0 .819.3128125 1.558375.8125 2.1295625l-.2055625.1600625c-1.265875.983125-1.99225 1.675375-2.23275 4.5150625 0 .320125.1194375.92625.923 1.3901875z"/><path d="m6.461 24.2718125-1.13425-3.011125.6816875-1.0245625.5110625.398125c.9628125.7483125 1.4096875 1.09525 1.5981875 3.1516875-.1795625.1519375-.7475.362375-1.6566875.485875zm-3.232125-3.63675.511875-.3989375.6825 1.0245625-1.13425 3.011125c-.905125-.1235-1.47225-.3323125-1.6534375-.4834375.195-2.065375.641875-2.413125 1.5933125-3.1533125zm1.646125-5.1975625c.895375 0 1.625.7288125 1.625 1.625s-.729625 1.625-1.625 1.625c-.8961875 0-1.625-.7288125-1.625-1.625s.7288125-1.625 1.625-1.625zm2.64225 3.9138125-.2055625-.15925c.4996875-.572.8133125-1.3105625.8133125-2.1295625 0-1.7948125-1.4551875-3.25-3.25-3.25s-3.25 1.4551875-3.25 3.25c0 .819.3128125 1.558375.8125 2.1295625l-.20475.1600625c-1.265875.983125-1.9930625 1.675375-2.23275 4.5150625 0 .320125.1194375.92625.923 1.3901875.849875.49075 2.4009375.736125 3.952.736125 1.551875 0 3.10375-.2461875 3.9528125-.736125.8019375-.4639375.9221875-1.070875.91978579-1.45925-.23809829-2.7714375-.96528579-3.462875-2.23034829-4.4468125z"/><path d="m22.711 24.2718125-1.13425-3.011125.6816875-1.0245625.5110625.398125c.9628125.7483125 1.4096875 1.09525 1.5981875 3.1516875-.1795625.1519375-.7475.362375-1.6566875.485875zm-3.232125-3.63675.511875-.3989375.6825 1.0245625-1.13425 3.011125c-.905125-.1235-1.47225-.3323125-1.6534375-.4834375.195-2.065375.641875-2.413125 1.5933125-3.1533125zm1.646125-5.1975625c.895375 0 1.625.7288125 1.625 1.625s-.729625 1.625-1.625 1.625c-.8961875 0-1.625-.7288125-1.625-1.625s.7288125-1.625 1.625-1.625zm2.64225 3.9138125-.2055625-.15925c.4996875-.572.8133125-1.3105625.8133125-2.1295625 0-1.7948125-1.4551875-3.25-3.25-3.25s-3.25 1.4551875-3.25 3.25c0 .819.3128125 1.558375.8125 2.1295625l-.20475.1600625c-1.265875.983125-1.9930625 1.675375-2.23275 4.5150625 0 .320125.1194375.92625.923 1.3901875.849875.49075 2.4009375.736125 3.952.736125 1.551875 0 3.10375-.2461875 3.9528125-.736125.8019375-.4639375.9221875-1.070875.9197858-1.45925-.2372858-2.7714375-.9652858-3.462875-2.2303483-4.4468125z"/><path d="m17.0625 17.0625c0-.4493125-.364-.8125-.8125-.8125h-2.4375v-2.4375c0-.4493125-.364-.8125-.8125-.8125-.4493125 0-.8125.3631875-.8125.8125v2.4375h-2.4375c-.4493125 0-.8125.3631875-.8125.8125 0 .4485.3631875.8125.8125.8125h6.5c.4485 0 .8125-.364.8125-.8125z"/></g></g></svg>