<svg height="50" viewBox="0 0 50 50" width="50" xmlns="http://www.w3.org/2000/svg"><g fill="none" fill-rule="evenodd"><rect fill="#ecefff" fill-rule="nonzero" height="50" rx="5" width="50"/><g transform="translate(14 12)"><path d="m20.4089272 6.11062509-3.3598737 3.3525794-4.0215486-4.02592415 3.3583863-3.36542097c.2772008-.27897837.7626274-.27897837 1.0398281.00055833l2.985253 2.99785439c.1383215.13902392.2149189.32401692.2141806.5201765 0 .19690402-.0771605.38096647-.2162257.5201765zm-19.03352074 15.00639401-.00055775-4.0017299.02788739-.0279164 3.99682184 4.0006132-.03513812.0351747zm4.9977935-1.0005255-3.99905283-4.0028466 9.68194677-9.70264092 4.0195036 4.02369082zm15.62680004-14.5239978c.0007399-.56391227-.2175255-1.09469702-.6155716-1.49390224l-2.9854389-2.99785439c-.7973936-.80027153-2.1897185-.80101597-2.9858107-.0020472-3.463243 3.47094514-9.88905715 9.91071153-15.21183179 15.24517273-.12883978.128974-.20134701.3044754-.20134701.4864906l.00055775 4.973576c0 .3796823.30750504.6873215.6862159.688066l4.96023847.0080027h.00130141c.18182584 0 .35640094-.0718383.48542664-.2008123 8.17863013-8.161653 10.09821263-10.0772797 15.24585443-15.21427855.3987898-.39771634.619658-.92794276.6204054-1.49241335z" fill="#2d59d2"/><path d="m1 25.5h13" stroke="#2d59d2" stroke-linecap="square" stroke-width="1.5"/></g></g></svg>