<svg height="50" viewBox="0 0 50 50" width="50" xmlns="http://www.w3.org/2000/svg"><g fill="none" fill-rule="evenodd"><rect fill="#d9ffeb" fill-rule="nonzero" height="50" rx="5" width="50"/><g fill="#1eef81" transform="matrix(.70710678 .70710678 -.70710678 .70710678 28.535534 11.564971)"><path d="m1.47270588 22.0842172-.00039819-15.15710408 5.15875113-5.15019004 5.14799998 5.14939366.0003982 15.15790046zm11.77905882.588724-.0003982-16.05143894c0-.19551131-.077647-.38246154-.2156199-.52043439l-5.8838552-5.88564706c-.28749321-.28749321-.75297737-.28669683-1.04047059-.00079638l-5.89540271 5.88564706c-.13837104.13817195-.2160181.32571946-.2160181.52123077l.00039819 16.19876924c0 .4069502.32970136.7362534.7360543.7362534h11.79379181c.4065521 0 .7362534-.3293032.7362534-.7362534 0-.050172-.0049773-.0999457-.014733-.1473303z"/><path d="m5.47143675 5.72321931c-.62548407.6624325-.62944283 1.6450847 0 2.30927665.61448752.61404766 1.66751768.64439815 2.31015638 0 .6100889-.6100889.64483802-1.64772387 0-2.29212203-.60173151-.619326-1.707985-.619326-2.31015638-.01715462z"/></g></g></svg>