<svg height="50" viewBox="0 0 50 50" width="50" xmlns="http://www.w3.org/2000/svg"><g fill="none" fill-rule="evenodd"><rect fill="#eff0ff" fill-rule="nonzero" height="50" rx="5" width="50"/><g fill="#9097fd"><path d="m24.9847836 17.6234821c.8952752 0 1.6234822.7284265 1.6234822 1.6234822 0 .8948361-.728207 1.6232626-1.6234822 1.6232626s-1.6234821-.7284265-1.6234821-1.6232626c0-.8950557.7282069-1.6234822 1.6234821-1.6234822zm0 4.8702269c1.7903309 0 3.2467448-1.4561943 3.2467448-3.2467447 0-1.79077-1.4564139-3.2469643-3.2467448-3.2469643-1.7901113 0-3.2467447 1.4561943-3.2467447 3.2469643 0 1.7905504 1.4566334 3.2467447 3.2467447 3.2467447z"/><path d="m36.3509149 31.4253855h-4.8702269v-.8116313c0-1.2496092-.3835325-2.4654097-1.0408288-3.4829674.6050463-.8651986 1.5896734-1.3872595 2.664311-1.3872595 1.8050399 0 3.2467447 1.454438 3.2467447 3.2467448zm-6.4934895 1.6234821h-9.7404538v-2.4351134c0-2.6070116 2.1005379-4.8702269 4.8702269-4.8702269 2.7521261 0 4.8702269 2.2452132 4.8702269 4.8702269zm-16.2339433-1.6234821v-2.4351134c0-1.7905505 1.4564139-3.2467448 3.2467448-3.2467448 1.033584 0 2.0364328.4856177 2.6634328 1.3909916-.661687 1.0324864-1.0399507 2.2399443-1.0399507 3.4792353v.8116313zm19.4806881-7.3051208c-1.4581702 0-2.7988876.6478561-3.7137017 1.7306166-1.2032868-1.1139349-2.7543214-1.7306166-4.40327-1.7306166-1.6671701 0-3.2197416.6285368-4.4039285 1.7347878-.9804559-1.1639895-2.3240274-1.7347878-3.7130431-1.7347878-2.6856061 0-4.8702269 2.1846208-4.8702269 4.8700074v3.2469642c0 .4485158.3635546.8116313.8118508.8116313h5.6818582v.8116313c0 .4487353.3633351.8116314.8116313.8116314h11.3637164c.4482962 0 .8116313-.3628961.8116313-.8116314v-.8116313h5.6818582c.4482962 0 .8118509-.3631155.8118509-.8116313v-3.2469642c0-2.690436-2.1716681-4.8700074-4.8702269-4.8700074z"/><path d="m33.1017553 17.6234821c.8952752 0 1.6232626.7284265 1.6232626 1.6234822 0 .8948361-.7279874 1.6232626-1.6232626 1.6232626-.8952753 0-1.6234822-.7284265-1.6234822-1.6232626 0-.8950557.7282069-1.6234822 1.6234822-1.6234822zm0 4.8702269c1.7903308 0 3.2467447-1.4561943 3.2467447-3.2467447 0-1.79077-1.4564139-3.2469643-3.2467447-3.2469643-1.7903309 0-3.2469643 1.4561943-3.2469643 3.2469643 0 1.7905504 1.4566334 3.2467447 3.2469643 3.2467447z" opacity=".6"/><path d="m16.867812 17.6234821c.8954947 0 1.6234821.7284265 1.6234821 1.6234822 0 .8948361-.7279874 1.6232626-1.6234821 1.6232626-.8952752 0-1.6234822-.7284265-1.6234822-1.6232626 0-.8950557.728207-1.6234822 1.6234822-1.6234822zm0 4.8702269c1.7903309 0 3.2467447-1.4561943 3.2467447-3.2467447 0-1.79077-1.4564138-3.2469643-3.2467447-3.2469643-1.7901114 0-3.2467448 1.4561943-3.2467448 3.2469643 0 1.7905504 1.4566334 3.2467447 3.2467448 3.2467447z" opacity=".63072"/></g></g></svg>