<svg height="50" viewBox="0 0 50 50" width="50" xmlns="http://www.w3.org/2000/svg"><g fill="none" fill-rule="evenodd"><rect fill="#ffedeb" fill-rule="nonzero" height="50" rx="5" width="50"/><g stroke-width=".5" transform="translate(13 13)"><path d="m5.91421233 23.7833904h-2.65770548c-.04058219 0-.06866438-.0118151-.08099315-.0118151-.00428082 0-.00667808.0010274-.00736302.005137v-2.2607876h2.83424658v2.2428082c-.0130137.0097603-.04246575.0246575-.08818493.0246575zm-2.74606165-16.10393835h2.83424658v12.77962325h-2.83424658zm1.41729453-6.03613013 1.06078767 1.96969178h-2.12174658zm-1.41729453 3.02654109h2.83424658v1.95273973h-2.83424658zm1.88253425-4.39212328c-.09212329-.17089041-.27106164-.27773973-.46523972-.27773973-.19434932 0-.37311644.10684932-.46523973.27773973l-1.94589041 3.61284246c-.04160959.07739726-.06318493.16369863-.06318493.25085617v16.31763694h-1.05428082v-7.3558219c0-.2921233-.23664384-.5284246-.52842466-.5284246s-.52842466.2363013-.52842466.5284246v7.8842466c0 .2921233.23664384.5284247.52842466.5284247h1.58270548v2.2654109c0 .5837329.51369863 1.0589041 1.14537671 1.0589041h2.65770548c.63150685 0 1.14520548-.4751712 1.14520548-1.0589041v-19.63989724c0-.08715754-.02174658-.17345891-.06318493-.25017124z" fill="#fe6f62" stroke="#fe6f62"/><path d="m23.1333904 23.5398973c0 .1393835-.0830479.2434931-.157363.2434931h-2.9061644c-.0743151 0-.157363-.1041096-.157363-.2434931v-1.3695206h3.2208904zm-1.6106164-21.87654114 1.2638698 2.40068494h-2.5273972zm-1.610274 3.45753425h3.2208904v15.99246579h-3.2208904zm4.2169521-.77465753-2.1390411-4.06386987c-.1827055-.34674657-.7523973-.34674657-.9351028 0l-2.1388698 4.06386987c-.0398973.07602739-.0609589.16061644-.0609589.24623287v18.94743155c0 .7172945.544863 1.3003424 1.2143835 1.3003424h2.9061644c.6695205 0 1.2142123-.5830479 1.2142123-1.3003424v-18.94743155c0-.08561643-.0208904-.17020548-.0607876-.24623287z" fill="#fe6f62" stroke="#fe6f62"/><path d="m16.0255137 23.7833904h-6.16215754v-1.4835616h1.51832194c.2917808 0 .5282534-.2363014.5282534-.5284247s-.2364726-.5284246-.5282534-.5284246h-1.51832194v-2.6835617h1.51832194c.2917808 0 .5282534-.2363014.5282534-.5284246 0-.2921233-.2364726-.5284247-.5282534-.5284247h-1.51832194v-2.6835617h1.51832194c.2917808 0 .5282534-.2363013.5282534-.5284246 0-.2919521-.2364726-.5284247-.5282534-.5284247h-1.51832194v-2.6833904h1.51832194c.2917808 0 .5282534-.2363013.5282534-.5284246s-.2364726-.5284247-.5282534-.5284247h-1.51832194v-2.68356164h1.51832194c.2917808 0 .5282534-.23630137.5282534-.52842465 0-.29212329-.2364726-.52842466-.5282534-.52842466h-1.51832194v-2.68390411h1.51832194c.2917808 0 .5282534-.2364726.5282534-.52859589 0-.29195206-.2364726-.52842466-.5282534-.52842466h-1.51832194v-1.48356164h6.16215754zm.5285959-23.7833904h-7.21917809c-.29178083 0-.52842466.2364726-.52842466.52859589v23.78321921c0 .2921233.23664383.5284246.52842466.5284246h7.21917809c.2917808 0 .5282534-.2363013.5282534-.5284246v-23.78321921c0-.29212329-.2364726-.52859589-.5282534-.52859589z" fill="#fea098" stroke="#fea098"/></g></g></svg>