<svg height="50" viewBox="0 0 50 50" width="50" xmlns="http://www.w3.org/2000/svg"><g fill="none" fill-rule="evenodd"><rect fill="#c9cacd" fill-rule="nonzero" height="50" rx="6" width="50"/><g fill="#3f3f3f" transform="translate(12 14)"><path d="m22.6824231 20.3360385h-20.33603848c-.43153847 0-.7820577-.3507308-.7820577-.7822693v-11.75371151h21.90036538v11.75371151c0 .4315385-.3507308.7822693-.7822692.7822693zm-21.11809618-17.98944235c0-.43175.35051923-.78226923.7820577-.78226923h20.33603848c.4315384 0 .7822692.35051923.7822692.78226923v3.88913462h-21.90036538zm21.11809618-2.34659615h-20.33603848c-1.29398077 0-2.34638462 1.05261538-2.34638462 2.34659615v17.20717305c0 1.2939808 1.05240385 2.3465962 2.34638462 2.3465962h20.33603848c1.2939807 0 2.3465961-1.0526154 2.3465961-2.3465962v-17.20717305c0-1.29398077-1.0526154-2.34659615-2.3465961-2.34659615z"/><path d="m3.36007692 3.35796154c-.30482692.28917308-.32026923.79178846 0 1.11036538.30398077.30567308.81125.29975 1.10296154-.00761538.30609616-.29044231.29890385-.81780769 0-1.10275-.28959615-.28959616-.82119231-.28959616-1.10296154 0z"/><path d="m6.48873077 3.35796154c-.30186539.286-.3025.81738461 0 1.10275.30017308.31815384.81294231.30567308 1.10296154 0 .28832692-.27351923.31730769-.78375 0-1.10275-.28959616-.29721154-.82119231-.28959616-1.10296154 0z"/><path d="m21.1180962 3.12865385h-6.2570962c-.4323846 0-.7822692.34988461-.7822692.78205769 0 .43238461.3498846.78226923.7822692.78226923h6.2570962c.4323846 0 .7822692-.34988462.7822692-.78226923 0-.43217308-.3498846-.78205769-.7822692-.78205769z"/><path d="m21.1807115 9.38575h-17.33261535c-.43238461 0-.78226923.34988462-.78226923.7822692 0 .4321731.34988462.7820577.78226923.7820577h17.33261535c.4323847 0 .7822693-.3498846.7822693-.7820577 0-.43238458-.3498846-.7822692-.7822693-.7822692z"/><path d="m21.1807115 13.2966731h-9.4483653c-.4323847 0-.7822693.3498846-.7822693.7820577 0 .4323846.3498846.7822692.7822693.7822692h9.4483653c.4323847 0 .7822693-.3498846.7822693-.7822692 0-.4321731-.3498846-.7820577-.7822693-.7820577z"/><path d="m3.84809615 14.861h4.75559616c.43238461 0 .78205769-.3498846.78205769-.7822692 0-.4321731-.34967308-.7820577-.78205769-.7820577h-4.75559616c-.43238461 0-.78226923.3498846-.78226923.7820577 0 .4323846.34988462.7822692.78226923.7822692z"/><path d="m13.2966731 17.2073846h-9.44857695c-.43238461 0-.78226923.3498846-.78226923.7822692 0 .4321731.34988462.7820577.78226923.7820577h9.44857695c.4323846 0 .7820577-.3498846.7820577-.7820577 0-.4323846-.3496731-.7822692-.7820577-.7822692z"/></g></g></svg>