<svg height="50" viewBox="0 0 50 50" width="50" xmlns="http://www.w3.org/2000/svg"><g fill="none"><rect fill="#fff8e3" height="50" rx="5" width="50"/><path d="m19.0020168 19.7154034h5.7167563c.3946723 0 .7145462-.3194874.7145462-.7145463 0-.3950588-.3198739-.7145462-.7145462-.7145462h-5.7167563c-.3946723 0-.7147395.3194874-.7147395.7145462 0 .3950589.3200672.7145463.7147395.7145463z" fill="#fbc81f" opacity=".87"/><path d="m19.0020168 24.7176134h5.7167563c.3946723 0 .7145462-.3194873.7145462-.7145462 0-.3948655-.3198739-.7145462-.7145462-.7145462h-5.7167563c-.3946723 0-.7147395.3196807-.7147395.7145462 0 .3950589.3200672.7145462.7147395.7145462z" fill="#fbc81f" opacity=".87"/><path d="m30.4355294 35.4381261c-2.7582605 0-5.0022101-2.2443362-5.0022101-5.0022101 0-2.757874 2.2439496-5.0022101 5.0022101-5.0022101s5.0022101 2.2443361 5.0022101 5.0022101c0 2.7578739-2.2439496 5.0022101-5.0022101 5.0022101zm-15.0062437-2.8583782v-17.1504622h12.8626051v8.9502857c-1.8216387.6468992-3.2646471 2.089521-3.9119328 3.9111597h-5.3779412c-.3946723 0-.7147395.3196807-.7147395.7145462 0 .3950588.3200672.7145462.7147395.7145462h5.0445378c-.0262857.2354118-.0423277.4737227-.0423277.7160925 0 .7526218.136647 1.472.3751513 2.1438319zm15.0062437-8.5753277c-.2415966 0-.4793277.016042-.7143529.0421344v-9.3318151c0-.3950588-.319874-.7147395-.7145462-.7147395h-14.2920841c-.394479 0-.7145462.3196807-.7145462.7147395v18.5795546c0 .3950588.3200672.7145462.7145462.7145462h10.3770588c1.1552185 1.7222942 3.1191093 2.8585715 5.3439244 2.8585715 3.5462521 0 6.4314958-2.8850505 6.4314958-6.4314958 0-3.5464454-2.8852437-6.4314958-6.4314958-6.4314958z" fill="#f1bd0f"/><path d="m31.8648151 29.7213697h-.7145462v-2.1438319c0-.3950588-.3200672-.7145462-.7147395-.7145462s-.7147395.3194874-.7147395.7145462v2.8583782c0 .3948655.3200672.7145462.7147395.7145462h1.4292857c.3946723 0 .7145462-.3196807.7145462-.7145462 0-.3950589-.3198739-.7145463-.7145462-.7145463z" fill="#fbc81f" opacity=".86649"/></g></svg>