<svg height="50" viewBox="0 0 50 50" width="50" xmlns="http://www.w3.org/2000/svg"><g fill="none" fill-rule="evenodd"><rect fill="#d7f7db" fill-rule="nonzero" height="50" rx="5" width="50"/><g fill="#2e523b" stroke="#2e523b" stroke-width=".5" transform="translate(13 14)"><path d="m6.52431683 7.54693069h10.95089107v-.71287128h-10.95089107z"/><path d="m17.4752079 5.61v-.71287129h-10.95089107v.71287129z"/><path d="m6.52431683 3.67306931h10.95089107v-.71287129h-10.95089107z"/><path d="m6.52431683 9.53875248h10.95089107v-.71287129h-10.95089107z"/><path d="m21.3169901 6.18784158v6.05827722h-1.6758416v-6.30998019h1.4245545c.1384158 0 .2512871.11287129.2512871.25170297zm-16.24515446 3.63118812v-8.89497029c0-.11643565.09445545-.21118812.21089109-.21118812h13.43406537c.1164356 0 .2114851.09475247.2114851.21118812v11.32205939h-9.10217819l-.49366337-.7704356h8.14277226v-.7128713h-8.59900988l-.14019802-.2191485c-.29049505-.4537426-.78594059-.7246337-1.32475248-.7246337zm-2.38930693-3.63118812c0-.13883168.11287129-.25170297.25188119-.25170297h1.42455446v3.88289109h-1.67643565zm18.55366929 15.20572282h-18.37129305c-.11999406 0-.22395445-.0854971-.24652871-.2032931l-1.88911485-9.6331426c-.04989505-.2531881.0160396-.5126138.18-.711802.16396633-.1991881.40574257-.3134257.66356435-.3134257h5.83842178c.22158416 0 .42950496.0838218.5869307.2309109.05168317.0484158.0980198.1037822.13722772.1652673l.12237624.1911683.22811881.3564357.79188119 1.2361782.05287129.0828713c.06534653.1023564.17881188.1642574.3.1642574h12.79603963c.2661386 0 .5132673.120297.6772277.3300594s.2215842.4782772.1574257.7367525l-1.7809901 7.1766534c-.0279208.1125149-.1283168.191109-.2441584.191109zm2.4291089-8.543703c-.3-.383703-.7514851-.6037426-1.2386138-.6037426h-.3968317v-6.05827722c0-.53186138-.4324753-.96457425-.9641584-.96457425h-1.4245545v-4.29920792c0-.50952476-.4146535-.92405941-.9243564-.92405941h-13.43406537c-.50910891 0-.92376237.41453465-.92376237.92405941v4.29920792h-1.42455446c-.53167723 0-.96475247.43271287-.96475247.96457425v3.63118812h-.39683169c-.47168317 0-.91425148.2089901-1.21425742.5733267-.3.3643367-.41940594.8388713-.32910891 1.3019406l1.88910891 9.6331485c.08851485.4513604.48653465.7789901.94633663.7789901h18.37129305c.4443565 0 .829307-.3011346.9362376-.7323029l1.7803961-7.176707c.1176237-.4727524.0124752-.9639207-.2875248-1.3475643z"/></g></g></svg>