<svg height="50" viewBox="0 0 50 50" width="50" xmlns="http://www.w3.org/2000/svg"><g fill="none"><rect fill="#edf4ff" height="50" rx="5" width="50"/><g stroke-width=".6" transform="translate(14 15)"><g fill="#0755db" stroke="#0755db"><path d="m20.6824161 1.8085906h-19.62013959c-.10496375 0-.20053423.04322148-.27006711.11275168-.06952752.0695302-.11275168.16536913-.11275168.27006712v16.738792c0 .104698.04322416.2005369.11275168.2700671.06953288.0695301.16510336.1127516.27006711.1127516h19.62013959c.1049664 0 .2005369-.0432215.2700671-.1127516.0697987-.0695302.1127517-.1653691.1127517-.2700671v-16.738792c0-.10469799-.042953-.20053692-.1127517-.27006712-.0695302-.0695302-.1651007-.11275168-.2700671-.11275168zm-19.62013959-.67946308h19.62013959c.2926174 0 .5583893.11946308.750604.31167785.1924833.19248322.3119464.45825503.3119464.75060403v16.738792c0 .292349-.1194631.5581208-.3119464.750604-.1922147.1922147-.4579866.3116778-.750604.3116778h-19.62013959c-.29261476 0-.5581208-.1194631-.75060134-.3116778-.19248322-.1924832-.31167517-.458255-.31167517-.750604v-16.738792c0-.292349.11919195-.55812081.31167517-.75060403.19248054-.19221477.45798658-.31167785.75060134-.31167785z"/><path d="m.33959463 5.81986577c-.187651 0-.33959463.15194631-.33959463.33959732 0 .187651.15194363.33986576.33959463.33986576 2.58953289 0 21.01074087.02335571 21.06550597.02335571.1868457 0 .3385236-.15167785.3385236-.33852349 0-.18684563-.1516779-.33825503-.3385236-.33825503-.0609395-.00026846-16.63812074-.02604027-21.06550597-.02604027z"/><path d="m16.4230873.33986577c0-.18765101-.1522148-.33986577-.3398658-.33986577s-.3395973.15221476-.3395973.33986577v2.77315437c0 .18765101.1519463.33959731.3395973.33959731s.3398658-.1519463.3398658-.33959731z"/><path d="m16.0832215 2.77369127c.31651 0 .5728859.25637585.5728859.57288591 0 .31624161-.2563759.57288591-.5728859.57288591-.3162416 0-.572886-.2566443-.572886-.57288591 0-.31651006.2566444-.57288591.572886-.57288591z"/><path d="m6.00134228.33986577c0-.18765101-.15221476-.33986577-.33986577-.33986577s-.33986577.15221476-.33986577.33986577v2.77315437c0 .18765101.15221476.33959731.33986577.33959731s.33986577-.1519463.33986577-.33959731z"/><path d="m5.66147651 2.77369127c.31651006 0 .57288591.25637585.57288591.57288591 0 .31624161-.25637585.57288591-.57288591.57288591s-.57288591-.2566443-.57288591-.57288591c0-.31651006.25637585-.57288591.57288591-.57288591z"/><path d="m9.23275164 9.20241609c-.18738251 0-.33959728.15194636-.33959728.33959736s.15221477.33986573.33959728.33986573h3.27919466c.187651 0 .3398658-.15221473.3398658-.33986573s-.1522148-.33959736-.3398658-.33959736z"/><path d="m14.7071141 9.20241609c-.187651 0-.3398657.15221482-.3398657.33986582 0 .18738254.1522147.33959727.3398657.33959727h3.2789262c.187651 0 .3398657-.15221473.3398657-.33959727 0-.187651-.1522147-.33986582-.3398657-.33986582z"/></g><path d="m3.75865772 12.572349c-.18765101 0-.33959732.1522147-.33959732.3398657s.15194631.3395974.33959732.3395974h3.27919463c.187651 0 .33959731-.1519464.33959731-.3395974s-.15194631-.3398657-.33959731-.3398657z" fill="#84acf0" stroke="#84acf0"/><path d="m9.23275164 12.5726175c-.18738251 0-.33959728.1519462-.33959728.3395972s.15221477.3398658.33959728.3398658h3.27919466c.187651 0 .3398658-.1522148.3398658-.3398658s-.1522148-.3395972-.3398658-.3395972z" fill="#84acf0" stroke="#84acf0"/><path d="m14.7071141 12.5726175c-.187651 0-.3398657.1519462-.3398657.3395972s.1522147.3398658.3398657.3398658h3.2789262c.187651 0 .3398657-.1522148.3398657-.3398658s-.1522147-.3395972-.3398657-.3395972z" fill="#0755db" stroke="#0755db"/><path d="m3.75865772 15.9425504c-.18765101 0-.33959732.1522147-.33959732.3398657s.15194631.3395974.33959732.3395974h3.27919463c.187651 0 .33959731-.1519464.33959731-.3395974s-.15194631-.3398657-.33959731-.3398657z" fill="#84acf0" stroke="#84acf0"/><g fill="#0755db" stroke="#0755db"><path d="m9.23275164 15.9425504c-.18738251 0-.33959728.1522147-.33959728.3398657s.15221477.3398658.33959728.3398658h3.27919466c.187651 0 .3398658-.1522148.3398658-.3398658s-.1522148-.3398657-.3398658-.3398657z"/><path d="m14.7071141 15.9428188c-.187651 0-.3398657.1519463-.3398657.3395973s.1522147.3398658.3398657.3398658h3.2789262c.187651 0 .3398657-.1522148.3398657-.3398658s-.1522147-.3395973-.3398657-.3395973z"/></g></g></g></svg>