<svg height="50" viewBox="0 0 50 50" width="50" xmlns="http://www.w3.org/2000/svg"><g fill="none" fill-rule="evenodd"><rect fill="#fff7cb" fill-rule="nonzero" height="50" rx="5" width="50"/><g transform="translate(14 14)"><path d="m6.83552941 8.20267227c1.13087395 0 2.05062185.91993277 2.05062185 2.05080673 0 1.1306891-.9197479 2.0506218-2.05062185 2.0506218s-2.05062185-.9199327-2.05062185-2.0506218c0-1.13087396.9197479-2.05080673 2.05062185-2.05080673zm0 5.46857143c1.88442017 0 3.41776469-1.5333445 3.41776469-3.4177647 0-1.88442018-1.53334452-3.41776471-3.41776469-3.41776471s-3.4177647 1.53334453-3.4177647 3.41776471c0 1.8844202 1.53334453 3.4177647 3.4177647 3.4177647z" fill="#585760" stroke="#79787a" stroke-width=".5"/><path d="m1.40966387 20.5067731c.33721008-2.6934286 2.64221848-4.7849076 5.42586554-4.7849076s5.08865549 2.091479 5.42568069 4.7849076zm5.42586554-6.1520504c-3.76884033 0-6.83552941 3.0668739-6.83552941 6.8357143 0 .3778823.30559664.683479.68347899.683479h12.30410081c.3778824 0 .683479-.3055967.683479-.683479 0-3.7688404-3.0666891-6.8357143-6.83552939-6.8357143z" fill="#585760" stroke="#79787a" stroke-width=".5"/><path d="m20.5067731 6.15205042c0 .37714286-.306521.68366387-.6836639.68366387h-3.4177647c-.1425378 0-.3593949.09521008-.4272437.14956302l-2.307042 1.84559664v-1.31168067c0-.37788236-.3055966-.68347899-.683479-.68347899h-.6836638c-.3771429 0-.683479-.30652101-.683479-.68366387v-4.10142857c0-.37695798.3063361-.68347899.683479-.68347899h7.5191932c.3832437 0 .6836639.30042017.6836639.68347899zm-.6836639-6.15205042h-7.5191932c-1.1306891 0-2.0506219.91993277-2.0506219 2.05062185v4.10142857c0 1.13087395.9199328 2.05062185 2.0506219 2.05062185v2.05080673c0 .2628907.1508571.5019328.3873109.6161849.2429244.1162857.5237479.077647.7235966-.0820841l3.2308572-2.58490753h3.1774285c1.130874 0 2.0508068-.9197479 2.0508068-2.05062185v-4.10142857c0-1.13068908-.9199328-2.05062185-2.0508068-2.05062185z" fill="#d74d3f" stroke="#d74d3f" stroke-width=".25"/></g></g></svg>