<svg height="50" viewBox="0 0 50 50" width="50" xmlns="http://www.w3.org/2000/svg"><g fill="none"><rect fill="#e1f1ff" height="50" rx="5" width="50"/><path d="m23.8574219 10.6687778-4.7167969-1.7697778v-5.30444444c0-.73333334-.4541016-1.38844445-1.1425781-1.64755556l-4.8828125-1.83333333c-.3955078-.15155556-.834961-.15155556-1.2353516 0l-4.88281249 1.83333333c-.68847656.25911111-1.14257812.91422222-1.14257812 1.64755556v5.30444444l-4.71679688 1.7697778c-.68359375.2591111-1.13769531.9142222-1.13769531 1.6475555v5.3826667c0 .6648889.37597656 1.276.97167969 1.5742222l4.8828125 2.4444445c.49316406.2493333 1.07910156.2493333 1.57226562 0l5.07324219-2.5422223 5.0732422 2.5422223c.493164.2493333 1.0791016.2493333 1.5722656 0l4.8828125-2.4444445c.5957031-.2982222.9716797-.9093333.9716797-1.5742222v-5.3826667c0-.7333333-.4541016-1.3884444-1.1425781-1.6475555zm-6.3769531-1.73066669-4.1503907 1.55955559v-3.33422226l4.1503907-1.80888888zm-9.96093755-5.412 4.98046875-1.86755555 4.9804688 1.86755555v.02933333l-4.9804688 2.024-4.98046875-2.024zm4.10156255 14.23155559-4.15039068 2.0777777v-3.8671111l4.15039068-1.8968889zm0-5.4755556-4.9804688 2.024-4.98046875-2.024v-.0293333l4.98046875-1.8675556 4.9804688 1.8675556zm11.71875 5.4755556-4.1503907 2.0777777v-3.8671111l4.1503907-1.8968889zm0-5.4755556-4.9804688 2.024-4.9804687-2.024v-.0293333l4.9804687-1.8675556 4.9804688 1.8675556z" fill="#2c3d75" transform="translate(13 15)"/></g></svg>