<svg height="50" viewBox="0 0 50 50" width="50" xmlns="http://www.w3.org/2000/svg"><g fill="none" fill-rule="evenodd"><rect fill="#fff3da" fill-rule="nonzero" height="50" rx="6" width="50"/><g fill="#daac4e" transform="translate(16 13)"><path d="m8.54470588 22.9817227-6.66934874-6.6693277 2.78655462-2.7865547 3.33592437 3.3357143c.30336135.3035715.794979.3035715 1.09834034 0l3.33359243-3.3336134 2.7842437 2.7844538zm.00228992-21.10651262 6.6693277 6.66932774-3.330042 3.33025208c-.0021008.0018908-.0048319.002521-.0069328.0044118-.0018697.0021008-.002521.0048319-.0044117.0069328l-3.3279412 3.327731-6.66932773-6.66932768zm4.9810924 10.55441172 3.3359244-3.33592432c.3033613-.30336135.3033613-.79495798 0-1.09831933l-7.76783613-7.76764706c-.30336134-.30357143-.79497899-.30357143-1.09834034 0l-7.76785714 7.76764706c-.30357143.30336135-.30357143.79495798 0 1.09831933l3.33361345 3.33361342-3.33592437 3.3359244c-.30355042.3033613-.30355042.794958 0 1.0983193l7.76785714 7.7678572c.30336134.3033613.79497899.3033613 1.09834034 0l7.76783615-7.7678572c.3033613-.3033613.3033613-.794958 0-1.0983193z"/><path d="m9.32367647 10.875v-1.55357143h1.55357143c.4289916 0 .7768908-.34747899.7768908-.77689075 0-.42920169-.3478992-.77668068-.7768908-.77668068h-1.55357143v-1.55357143c0-.42941176-.34768908-.77689075-.77668067-.77689075-.4289916 0-.77710084.34747899-.77710084.77689075v1.55357143h-1.55315126c-.42920168 0-.77689076.34747899-.77689076.77668068 0 .42941176.34768908.77689075.77689076.77689075h1.55315126v1.55357143c0 .4292017.34810924.7766807.77710084.7766807.42899159 0 .77668067-.347479.77668067-.7766807z"/></g></g></svg>